<svg width="36" height="36" viewBox="0 0 36 36" fill="none" xmlns="http://www.w3.org/2000/svg">
<circle cx="18" cy="18" r="18" fill="#F3F4F6"/>
<g clip-path="url(#clip0_1727_24309)">
<path d="M23.3362 7.20001H12.3524C11.4954 7.20001 10.8008 7.89925 10.8008 8.76181V27.2382C10.8008 28.1008 11.4954 28.8 12.3524 28.8H23.3362C24.1931 28.8 24.8877 28.1008 24.8877 27.2382V8.76181C24.8877 7.89925 24.1931 7.20001 23.3362 7.20001Z" fill="#2184B6"/>
<path d="M22.5388 10.8H13.1475V25.2H22.5388V10.8Z" fill="#F4F4F4"/>
</g>
<rect x="4.80078" y="13.2" width="15.6" height="7.2" rx="3.6" fill="#F45D95"/>
<path d="M9.92969 17.2949C9.43398 17.2949 9.0332 16.8941 9.04375 16.409C9.0332 15.9238 9.43398 15.5336 9.92969 15.5336C10.3938 15.5336 10.8051 15.9238 10.8051 16.409C10.8051 16.8941 10.3938 17.2949 9.92969 17.2949ZM12.9777 17.2949C12.482 17.2949 12.0813 16.8941 12.0918 16.409C12.0813 15.9238 12.482 15.5336 12.9777 15.5336C13.4418 15.5336 13.8531 15.9238 13.8531 16.409C13.8531 16.8941 13.4418 17.2949 12.9777 17.2949ZM16.0258 17.2949C15.5301 17.2949 15.1293 16.8941 15.1398 16.409C15.1293 15.9238 15.5301 15.5336 16.0258 15.5336C16.4898 15.5336 16.9012 15.9238 16.9012 16.409C16.9012 16.8941 16.4898 17.2949 16.0258 17.2949Z" fill="white"/>
<path d="M16.2 22.8L14.6412 20.1L17.7588 20.1L16.2 22.8Z" fill="#F45D95"/>
<defs>
<clipPath id="clip0_1727_24309">
<rect width="14.087" height="21.6" fill="white" transform="translate(10.8008 7.19998)"/>
</clipPath>
</defs>
</svg>
