<svg width="36" height="36" viewBox="0 0 36 36" fill="none" xmlns="http://www.w3.org/2000/svg">
<circle cx="18" cy="18" r="18" fill="#F3F4F6"/>
<g clip-path="url(#clip0_1727_24292)">
<path d="M25.1398 21.1606H24.9792V16.1626C24.9792 13.2452 22.8946 10.8078 20.1122 10.2154V9.69178C20.1122 8.98159 19.5218 8.40002 18.8008 8.40002C18.0798 8.40002 17.4893 8.98159 17.4893 9.69178V10.2154C14.707 10.8078 12.6224 13.2452 12.6224 16.1632V21.1612H12.4617C11.5445 21.1612 10.8008 21.8937 10.8008 22.7972C10.8008 23.7006 11.5445 24.4331 12.4617 24.4331H25.1398C26.0571 24.4331 26.8008 23.7006 26.8008 22.7972C26.8008 21.8937 26.0571 21.1612 25.1398 21.1612V21.1606Z" fill="#2184B6"/>
<path d="M22.0154 24.4331C22.0154 25.304 21.6536 26.0957 21.0706 26.6694C20.4881 27.2437 19.6849 27.6 18.8002 27.6C17.9154 27.6 17.1122 27.2437 16.5292 26.6694C15.9467 26.0957 15.585 25.3046 15.585 24.4331C15.585 22.6909 17.0313 21.2662 18.8002 21.2662C19.6843 21.2662 20.4881 21.6225 21.0706 22.1963C21.6536 22.7706 22.0154 23.5623 22.0154 24.4331Z" fill="#FF87B3"/>
<path d="M22.0154 24.4331H15.585C15.585 22.6909 17.0313 21.2662 18.8002 21.2662C19.6843 21.2662 20.4881 21.6225 21.0706 22.1963C21.6536 22.7706 22.0154 23.5623 22.0154 24.4331Z" fill="#3D3D3D"/>
</g>
<defs>
<clipPath id="clip0_1727_24292">
<rect width="16" height="19.2" fill="white" transform="translate(10.8008 8.39996)"/>
</clipPath>
</defs>
</svg>
