<svg width="20" height="20" viewBox="0 0 20 20" fill="none" xmlns="http://www.w3.org/2000/svg">
<g clip-path="url(#clip0_1597_3226)">
<path d="M4.43057 16.1988C4.93751 15.0044 6.12109 14.1667 7.50033 14.1667H12.5003C13.8796 14.1667 15.0631 15.0044 15.5701 16.1988M13.3337 7.91675C13.3337 9.7577 11.8413 11.2501 10.0003 11.2501C8.15938 11.2501 6.66699 9.7577 6.66699 7.91675C6.66699 6.0758 8.15938 4.58341 10.0003 4.58341C11.8413 4.58341 13.3337 6.0758 13.3337 7.91675ZM18.3337 10.0001C18.3337 14.6025 14.6027 18.3334 10.0003 18.3334C5.39795 18.3334 1.66699 14.6025 1.66699 10.0001C1.66699 5.39771 5.39795 1.66675 10.0003 1.66675C14.6027 1.66675 18.3337 5.39771 18.3337 10.0001Z" stroke="white" stroke-width="1.5" stroke-linecap="round" stroke-linejoin="round"/>
</g>
<defs>
<clipPath id="clip0_1597_3226">
<rect width="20" height="20" fill="white"/>
</clipPath>
</defs>
</svg>
