<svg width="20" height="20" viewBox="0 0 20 20" fill="none" xmlns="http://www.w3.org/2000/svg">
<g clip-path="url(#clip0_870_2551)">
<path d="M1.66699 9.99996H18.3337M1.66699 9.99996C1.66699 14.6023 5.39795 18.3333 10.0003 18.3333M1.66699 9.99996C1.66699 5.39759 5.39795 1.66663 10.0003 1.66663M18.3337 9.99996C18.3337 14.6023 14.6027 18.3333 10.0003 18.3333M18.3337 9.99996C18.3337 5.39759 14.6027 1.66663 10.0003 1.66663M10.0003 1.66663C12.0847 3.94859 13.2693 6.90999 13.3337 9.99996C13.2693 13.0899 12.0847 16.0513 10.0003 18.3333M10.0003 1.66663C7.91593 3.94859 6.73137 6.90999 6.66699 9.99996C6.73137 13.0899 7.91593 16.0513 10.0003 18.3333" stroke="#333333" stroke-width="1.5" stroke-linecap="round" stroke-linejoin="round"/>
</g>
<defs>
<clipPath id="clip0_870_2551">
<rect width="20" height="20" fill="white"/>
</clipPath>
</defs>
</svg>
