<svg width="20" height="20" viewBox="0 0 20 20" fill="none" xmlns="http://www.w3.org/2000/svg">
<path d="M1.66602 11.6667L18.3327 11.6667M6.66602 17.5H13.3327M5.66602 15H14.3327C15.7328 15 16.4329 15 16.9677 14.7275C17.4381 14.4878 17.8205 14.1054 18.0602 13.635C18.3327 13.1002 18.3327 12.4001 18.3327 11V6.5C18.3327 5.09987 18.3327 4.3998 18.0602 3.86502C17.8205 3.39462 17.4381 3.01217 16.9677 2.77248C16.4329 2.5 15.7328 2.5 14.3327 2.5H5.66602C4.26588 2.5 3.56582 2.5 3.03104 2.77248C2.56063 3.01217 2.17818 3.39462 1.9385 3.86502C1.66602 4.3998 1.66602 5.09987 1.66602 6.5V11C1.66602 12.4001 1.66602 13.1002 1.9385 13.635C2.17818 14.1054 2.56063 14.4878 3.03104 14.7275C3.56582 15 4.26588 15 5.66602 15Z" stroke="white" stroke-width="1.5" stroke-linecap="round" stroke-linejoin="round"/>
</svg>
