<svg width="20" height="20" viewBox="0 0 20 20" fill="none" xmlns="http://www.w3.org/2000/svg">
<g clip-path="url(#clip0_2233_48426)">
<path d="M14.8353 1.64844L18.132 4.94514M1.64844 18.132L2.70042 14.2747C2.76905 14.023 2.80337 13.8972 2.85605 13.7799C2.90282 13.6757 2.9603 13.5767 3.02754 13.4844C3.10328 13.3804 3.19551 13.2882 3.37995 13.1037L11.8965 4.58719C12.0597 4.424 12.1413 4.3424 12.2354 4.31183C12.3181 4.28493 12.4073 4.28493 12.4901 4.31183C12.5842 4.3424 12.6658 4.424 12.8289 4.58719L15.1932 6.95144C15.3564 7.11464 15.438 7.19623 15.4686 7.29033C15.4955 7.37309 15.4955 7.46225 15.4686 7.54501C15.438 7.6391 15.3564 7.7207 15.1932 7.88389L6.67666 16.4004C6.49221 16.5849 6.39999 16.6771 6.29603 16.7528C6.20373 16.8201 6.10469 16.8776 6.00051 16.9243C5.88317 16.977 5.75735 17.0113 5.50569 17.08L1.64844 18.132Z" stroke="#BDBDBD" stroke-width="1.97802" stroke-linecap="round" stroke-linejoin="round"/>
</g>
<defs>
<clipPath id="clip0_2233_48426">
<rect width="19.7802" height="19.7802" fill="white"/>
</clipPath>
</defs>
</svg>
