<svg width="20" height="20" viewBox="0 0 20 20" fill="none" xmlns="http://www.w3.org/2000/svg">
<g clip-path="url(#clip0_1942_34904)">
<path d="M7.57435 7.49984C7.77027 6.94289 8.15698 6.47326 8.66598 6.17411C9.17498 5.87497 9.77343 5.76562 10.3553 5.86543C10.9372 5.96524 11.465 6.26777 11.8452 6.71944C12.2255 7.17111 12.4336 7.74277 12.4327 8.33317C12.4327 9.99984 9.93268 10.8332 9.93268 10.8332M9.99935 14.1665H10.0077M18.3327 9.99984C18.3327 14.6022 14.6017 18.3332 9.99935 18.3332C5.39698 18.3332 1.66602 14.6022 1.66602 9.99984C1.66602 5.39746 5.39698 1.6665 9.99935 1.6665C14.6017 1.6665 18.3327 5.39746 18.3327 9.99984Z" stroke="white" stroke-width="1.5" stroke-linecap="round" stroke-linejoin="round"/>
</g>
<defs>
<clipPath id="clip0_1942_34904">
<rect width="20" height="20" fill="white"/>
</clipPath>
</defs>
</svg>
