<svg width="20" height="20" viewBox="0 0 20 20" fill="none" xmlns="http://www.w3.org/2000/svg">
<path d="M3.33268 11.6668L4.64489 16.9156C4.68179 17.0633 4.70024 17.1371 4.72207 17.2015C4.93532 17.8311 5.50228 18.2738 6.16478 18.328C6.2326 18.3335 6.30868 18.3335 6.46084 18.3335C6.65138 18.3335 6.74665 18.3335 6.82691 18.3257C7.62018 18.2488 8.24796 17.621 8.3249 16.8277C8.33268 16.7475 8.33268 16.6522 8.33268 16.4617V4.5835M15.416 11.2502C17.0268 11.2502 18.3327 9.94433 18.3327 8.3335C18.3327 6.72267 17.0268 5.41684 15.416 5.41684M8.54101 4.5835H5.41602C3.34495 4.5835 1.66601 6.26244 1.66602 8.33351C1.66602 10.4046 3.34495 12.0835 5.41602 12.0835H8.54102C10.013 12.0835 11.8137 12.8726 13.2029 13.6299C14.0134 14.0717 14.4186 14.2926 14.684 14.2601C14.9301 14.2299 15.1162 14.1194 15.2604 13.9178C15.416 13.7003 15.416 13.2652 15.416 12.3949V4.27207C15.416 3.40183 15.416 2.96671 15.2604 2.74924C15.1162 2.54759 14.9301 2.43709 14.684 2.40694C14.4186 2.37444 14.0134 2.59534 13.2029 3.03713C11.8137 3.79443 10.013 4.5835 8.54101 4.5835Z" stroke="white" stroke-width="1.5" stroke-linecap="round" stroke-linejoin="round"/>
</svg>
