<svg width="20" height="20" viewBox="0 0 20 20" fill="none" xmlns="http://www.w3.org/2000/svg">
<path d="M16.6673 10.4165V5.6665C16.6673 4.26637 16.6673 3.56631 16.3948 3.03153C16.1552 2.56112 15.7727 2.17867 15.3023 1.93899C14.7675 1.6665 14.0674 1.6665 12.6673 1.6665H7.33398C5.93385 1.6665 5.23379 1.6665 4.69901 1.93899C4.2286 2.17867 3.84615 2.56112 3.60647 3.03153C3.33398 3.56631 3.33398 4.26637 3.33398 5.6665V14.3332C3.33398 15.7333 3.33398 16.4334 3.60647 16.9681C3.84615 17.4386 4.2286 17.821 4.69901 18.0607C5.23379 18.3332 5.93385 18.3332 7.33398 18.3332H10.0007M11.6673 9.1665H6.66732M8.33398 12.4998H6.66732M13.334 5.83317H6.66732M12.084 15.8332L13.7507 17.4998L17.5007 13.7498" stroke="white" stroke-width="1.5" stroke-linecap="round" stroke-linejoin="round"/>
</svg>
