<svg width="20" height="20" viewBox="0 0 20 20" fill="none" xmlns="http://www.w3.org/2000/svg">
<g clip-path="url(#clip0_1597_3108)">
<path d="M10.0003 1.66675C11.0947 1.66675 12.1783 1.8823 13.1894 2.30109C14.2004 2.71988 15.1191 3.3337 15.8929 4.10753C16.6667 4.88135 17.2805 5.80001 17.6993 6.81106C18.1181 7.8221 18.3337 8.90574 18.3337 10.0001M10.0003 1.66675V10.0001M10.0003 1.66675C5.39795 1.66675 1.66699 5.39771 1.66699 10.0001C1.66699 14.6025 5.39795 18.3334 10.0003 18.3334C14.6027 18.3334 18.3337 14.6025 18.3337 10.0001M10.0003 1.66675C14.6027 1.66675 18.3337 5.39771 18.3337 10.0001M18.3337 10.0001L10.0003 10.0001M18.3337 10.0001C18.3337 11.3152 18.0224 12.6116 17.4254 13.7833C16.8283 14.9551 15.9625 15.9689 14.8985 16.7419L10.0003 10.0001" stroke="white" stroke-width="1.5" stroke-linecap="round" stroke-linejoin="round"/>
</g>
<defs>
<clipPath id="clip0_1597_3108">
<rect width="20" height="20" fill="white"/>
</clipPath>
</defs>
</svg>
