<svg width="36" height="36" viewBox="0 0 36 36" fill="none" xmlns="http://www.w3.org/2000/svg">
<circle cx="18" cy="18" r="18" fill="#F3F4F6"/>
<g clip-path="url(#clip0_1727_24337)">
<path d="M22.0018 9.81684C21.8462 9.68342 21.6492 9.60004 21.431 9.60004H13.0398C12.8396 9.60004 12.6561 9.66999 12.5068 9.78441L17.2712 14.3137L22.0018 9.81684Z" fill="#2184B6"/>
<path d="M21.9503 18.7804C22.0292 18.6428 22.0779 18.4853 22.0779 18.3134V10.3022C22.0779 10.1354 22.0314 9.98165 21.9566 9.84637L17.2549 14.3164L21.9503 18.7799V18.7804Z" fill="#3D3D3D"/>
<path d="M12.5046 9.80243C12.4135 9.9465 12.3594 10.1174 12.3594 10.3028V18.3135C12.3594 18.5029 12.4153 18.6785 12.5104 18.8249L17.2531 14.3169L12.5046 9.80243Z" fill="#FF87B3"/>
<path d="M9.59961 21.35L17.2703 14.0981L22.0144 18.6353L14.5732 26.1554L9.59961 21.35Z" fill="#2184B6"/>
<path d="M12.5156 18.6177L21.9014 27.5999L26.3141 22.7176L17.2705 14.0981L12.5156 18.6177Z" fill="#2184B6" fill-opacity="0.7"/>
</g>
<defs>
<clipPath id="clip0_1727_24337">
<rect width="16.7143" height="18" fill="white" transform="translate(9.59961 9.60007)"/>
</clipPath>
</defs>
</svg>
