<svg width="36" height="36" viewBox="0 0 36 36" fill="none" xmlns="http://www.w3.org/2000/svg">
<circle cx="18" cy="18" r="18" fill="#BDE3FF"/>
<g clip-path="url(#clip0_4181_58148)">
<path d="M23.3362 7.2002H12.3524C11.4954 7.2002 10.8008 7.89944 10.8008 8.762V27.2384C10.8008 28.101 11.4954 28.8002 12.3524 28.8002H23.3362C24.1931 28.8002 24.8877 28.101 24.8877 27.2384V8.762C24.8877 7.89944 24.1931 7.2002 23.3362 7.2002Z" fill="#2184B6"/>
<path d="M22.5378 10.8003H13.1465V25.2003H22.5378V10.8003Z" fill="#F4F4F4"/>
</g>
<rect x="4.80078" y="13.2002" width="15.6" height="7.2" rx="3.6" fill="#F45D95"/>
<path d="M9.92969 17.2951C9.43398 17.2951 9.0332 16.8943 9.04375 16.4092C9.0332 15.924 9.43398 15.5338 9.92969 15.5338C10.3938 15.5338 10.8051 15.924 10.8051 16.4092C10.8051 16.8943 10.3938 17.2951 9.92969 17.2951ZM12.9777 17.2951C12.482 17.2951 12.0813 16.8943 12.0918 16.4092C12.0813 15.924 12.482 15.5338 12.9777 15.5338C13.4418 15.5338 13.8531 15.924 13.8531 16.4092C13.8531 16.8943 13.4418 17.2951 12.9777 17.2951ZM16.0258 17.2951C15.5301 17.2951 15.1293 16.8943 15.1398 16.4092C15.1293 15.924 15.5301 15.5338 16.0258 15.5338C16.4898 15.5338 16.9012 15.924 16.9012 16.4092C16.9012 16.8943 16.4898 17.2951 16.0258 17.2951Z" fill="white"/>
<path d="M16.2 22.7998L14.6412 20.0998L17.7588 20.0998L16.2 22.7998Z" fill="#F45D95"/>
<defs>
<clipPath id="clip0_4181_58148">
<rect width="14.087" height="21.6" fill="white" transform="translate(10.8008 7.2002)"/>
</clipPath>
</defs>
</svg>
