<svg width="36" height="36" viewBox="0 0 36 36" fill="none" xmlns="http://www.w3.org/2000/svg">
<circle cx="18" cy="18" r="18" fill="#BDE3FF"/>
<g clip-path="url(#clip0_4181_58186)">
<path d="M18.0009 10C13.029 10 9 13.2736 9 17.3141C9 19.9428 10.7072 22.2489 13.2697 23.537C13.0819 24.2589 12.5876 26.1544 12.4891 26.5594C12.3669 27.0619 12.6678 27.0562 12.8648 26.9213C13.0199 26.8144 15.3307 25.1982 16.3284 24.5026C16.8701 24.5851 17.4282 24.6282 17.9991 24.6282C22.9692 24.6282 27 21.3546 27 17.3141C27 13.2736 22.971 10 18.0009 10Z" fill="#371D1E"/>
<path d="M11.7212 15.9677H12.6477C12.6477 15.9677 12.6532 18.5832 12.6477 19.1926C12.6477 19.6369 13.6107 19.6426 13.6107 19.1982L13.6144 16.0014C13.6144 16.0014 13.9244 16.0033 14.5354 16.0033C15.1118 16.0033 15.1118 15.0715 14.5354 15.0715C13.8861 15.0715 11.7175 15.0527 11.7175 15.0527C11.174 15.0527 11.1758 15.9658 11.7175 15.9658" fill="white"/>
<mask id="mask0_4181_58186" style="mask-type:luminance" maskUnits="userSpaceOnUse" x="11" y="15" width="4" height="5">
<path d="M11.7212 15.9677H12.6477C12.6477 15.9677 12.6532 18.5832 12.6477 19.1926C12.6477 19.6369 13.6107 19.6426 13.6107 19.1982L13.6144 16.0014C13.6144 16.0014 13.9244 16.0033 14.5354 16.0033C15.1118 16.0033 15.1118 15.0715 14.5354 15.0715C13.8861 15.0715 11.7175 15.0527 11.7175 15.0527C11.174 15.0527 11.1758 15.9658 11.7175 15.9658" fill="white"/>
</mask>
<g mask="url(#mask0_4181_58186)">
<path d="M15.1136 15.0547H11.1758V19.6445H15.1136V15.0547Z" fill="white"/>
</g>
<path d="M16.1543 16.1363L16.6705 17.7975H15.5962L16.1543 16.1363ZM15.5762 15.3582C15.3482 15.8738 14.5256 18.3112 14.252 18.9581C14.055 19.425 14.9068 19.8056 15.1038 19.3387L15.2898 18.6731H16.9842C16.9842 18.6731 16.9258 18.7012 17.1502 19.3106C17.3326 19.8056 18.2135 19.4625 18.0293 18.9675C17.7685 18.2606 16.8693 15.7182 16.7051 15.3582C16.6304 15.1914 16.3586 15.0732 16.096 15.0732C15.8789 15.0732 15.6655 15.1557 15.5762 15.3582Z" fill="white"/>
<mask id="mask1_4181_58186" style="mask-type:luminance" maskUnits="userSpaceOnUse" x="14" y="15" width="5" height="5">
<path d="M16.1543 16.1363L16.6705 17.7975H15.5962L16.1543 16.1363ZM15.5762 15.3582C15.3482 15.8738 14.5256 18.3112 14.252 18.9581C14.055 19.425 14.9068 19.8056 15.1038 19.3387L15.2898 18.6731H16.9842C16.9842 18.6731 16.9258 18.7012 17.1502 19.3106C17.3326 19.8056 18.2135 19.4625 18.0293 18.9675C17.7685 18.2606 16.8693 15.7182 16.7051 15.3582C16.6304 15.1914 16.3586 15.0732 16.096 15.0732C15.8789 15.0732 15.6655 15.1557 15.5762 15.3582Z" fill="white"/>
</mask>
<g mask="url(#mask1_4181_58186)">
<path d="M18.215 15.0732H14.0547V19.8074H18.215V15.0732Z" fill="white"/>
</g>
<path d="M18.3574 15.512C18.3574 16.3407 18.3629 19.0106 18.3629 19.0106C18.3629 19.0106 18.2881 19.5412 18.7313 19.5412C19.1745 19.5412 20.1558 19.5356 20.5917 19.5356C21.0276 19.5356 21.024 18.5831 20.5899 18.5831C20.1558 18.5831 19.3606 18.5775 19.3606 18.5775C19.3606 18.5775 19.3642 16.1082 19.3624 15.5082C19.3624 15.2176 19.1107 15.0732 18.8608 15.0732C18.6109 15.0732 18.3592 15.2195 18.3592 15.5101" fill="white"/>
<mask id="mask2_4181_58186" style="mask-type:luminance" maskUnits="userSpaceOnUse" x="18" y="15" width="3" height="5">
<path d="M18.3574 15.512C18.3574 16.3407 18.3629 19.0106 18.3629 19.0106C18.3629 19.0106 18.2881 19.5412 18.7313 19.5412C19.1745 19.5412 20.1558 19.5356 20.5917 19.5356C21.0276 19.5356 21.024 18.5831 20.5899 18.5831C20.1558 18.5831 19.3606 18.5775 19.3606 18.5775C19.3606 18.5775 19.3642 16.1082 19.3624 15.5082C19.3624 15.2176 19.1107 15.0732 18.8608 15.0732C18.6109 15.0732 18.3592 15.2195 18.3592 15.5101" fill="white"/>
</mask>
<g mask="url(#mask2_4181_58186)">
<path d="M21.0267 15.0732H18.2891V19.5393H21.0267V15.0732Z" fill="white"/>
</g>
<path d="M21.1418 15.3789C21.1509 15.7427 21.1309 19.0257 21.1309 19.2694C21.1309 19.6538 22.0829 19.6519 22.0811 19.2694C22.0811 18.8232 22.0811 17.9776 22.0811 17.9776L22.3602 17.747L23.5822 19.4607C23.8284 19.7963 24.6054 19.1907 24.3591 18.8551L23.0624 17.0982C23.0624 17.0982 23.9433 16.1195 24.2898 15.7652C24.4923 15.5589 23.8649 14.9083 23.6624 15.1164C23.4654 15.3171 22.0866 16.7364 22.0866 16.7364C22.0866 16.7364 22.0993 15.8458 22.0866 15.3527C22.0811 15.1652 21.8586 15.0752 21.6306 15.0752C21.3862 15.0752 21.1363 15.1783 21.1418 15.3789Z" fill="white"/>
<mask id="mask3_4181_58186" style="mask-type:luminance" maskUnits="userSpaceOnUse" x="21" y="15" width="4" height="5">
<path d="M21.1418 15.3789C21.1509 15.7427 21.1309 19.0257 21.1309 19.2694C21.1309 19.6538 22.0829 19.6519 22.0811 19.2694C22.0811 18.8232 22.0811 17.9776 22.0811 17.9776L22.3602 17.747L23.5822 19.4607C23.8284 19.7963 24.6054 19.1907 24.3591 18.8551L23.0624 17.0982C23.0624 17.0982 23.9433 16.1195 24.2898 15.7652C24.4923 15.5589 23.8649 14.9083 23.6624 15.1164C23.4654 15.3171 22.0866 16.7364 22.0866 16.7364C22.0866 16.7364 22.0993 15.8458 22.0866 15.3527C22.0811 15.1652 21.8586 15.0752 21.6306 15.0752C21.3862 15.0752 21.1363 15.1783 21.1418 15.3789Z" fill="white"/>
</mask>
<g mask="url(#mask3_4181_58186)">
<path d="M24.6072 14.9102H21.1309V19.7944H24.6072V14.9102Z" fill="white"/>
</g>
</g>
<defs>
<clipPath id="clip0_4181_58186">
<rect width="18" height="17" fill="white" transform="translate(9 10)"/>
</clipPath>
</defs>
</svg>
