<svg width="36" height="36" viewBox="0 0 36 36" fill="none" xmlns="http://www.w3.org/2000/svg">
<circle cx="18" cy="18" r="18" fill="#BDE3FF"/>
<g clip-path="url(#clip0_4181_58136)">
<path d="M25.1398 21.1604H24.9792V16.1625C24.9792 13.245 22.8946 10.8077 20.1122 10.2152V9.69166C20.1122 8.98146 19.5218 8.3999 18.8008 8.3999C18.0798 8.3999 17.4893 8.98146 17.4893 9.69166V10.2152C14.707 10.8077 12.6224 13.245 12.6224 16.1631V21.1611H12.4617C11.5445 21.1611 10.8008 21.8936 10.8008 22.797C10.8008 23.7005 11.5445 24.433 12.4617 24.433H25.1398C26.0571 24.433 26.8008 23.7005 26.8008 22.797C26.8008 21.8936 26.0571 21.1611 25.1398 21.1611V21.1604Z" fill="#2184B6"/>
<path d="M22.0163 24.433C22.0163 25.3038 21.6546 26.0956 21.0715 26.6693C20.4891 27.2436 19.6859 27.5999 18.8011 27.5999C17.9164 27.5999 17.1132 27.2436 16.5301 26.6693C15.9477 26.0956 15.5859 25.3044 15.5859 24.433C15.5859 22.6907 17.0323 21.2661 18.8011 21.2661C19.6853 21.2661 20.4891 21.6224 21.0715 22.1961C21.6546 22.7704 22.0163 23.5622 22.0163 24.433Z" fill="#FF87B3"/>
<path d="M22.0163 24.433H15.5859C15.5859 22.6907 17.0323 21.2661 18.8011 21.2661C19.6853 21.2661 20.4891 21.6224 21.0715 22.1961C21.6546 22.7704 22.0163 23.5622 22.0163 24.433Z" fill="#3D3D3D"/>
</g>
<defs>
<clipPath id="clip0_4181_58136">
<rect width="16" height="19.2" fill="white" transform="translate(10.8008 8.3999)"/>
</clipPath>
</defs>
</svg>
