<svg width="36" height="36" viewBox="0 0 36 36" fill="none" xmlns="http://www.w3.org/2000/svg">
<circle cx="18" cy="18" r="18" fill="#F3F4F6"/>
<g clip-path="url(#clip0_1727_24358)">
<path d="M18.0009 10C13.029 10 9 13.2736 9 17.3141C9 19.9428 10.7072 22.2489 13.2697 23.537C13.0819 24.2589 12.5876 26.1544 12.4891 26.5594C12.3669 27.0619 12.6678 27.0562 12.8648 26.9213C13.0199 26.8144 15.3307 25.1982 16.3284 24.5026C16.8701 24.5851 17.4282 24.6282 17.9991 24.6282C22.9692 24.6282 27 21.3546 27 17.3141C27 13.2736 22.971 10 18.0009 10Z" fill="#371D1E"/>
<path d="M11.7212 15.9679H12.6477C12.6477 15.9679 12.6532 18.5834 12.6477 19.1928C12.6477 19.6372 13.6107 19.6428 13.6107 19.1984L13.6144 16.0017C13.6144 16.0017 13.9244 16.0035 14.5354 16.0035C15.1118 16.0035 15.1118 15.0717 14.5354 15.0717C13.8861 15.0717 11.7175 15.0529 11.7175 15.0529C11.174 15.0529 11.1758 15.966 11.7175 15.966" fill="white"/>
<mask id="mask0_1727_24358" style="mask-type:luminance" maskUnits="userSpaceOnUse" x="11" y="15" width="4" height="5">
<path d="M11.7212 15.9679H12.6477C12.6477 15.9679 12.6532 18.5834 12.6477 19.1928C12.6477 19.6372 13.6107 19.6428 13.6107 19.1984L13.6144 16.0017C13.6144 16.0017 13.9244 16.0035 14.5354 16.0035C15.1118 16.0035 15.1118 15.0717 14.5354 15.0717C13.8861 15.0717 11.7175 15.0529 11.7175 15.0529C11.174 15.0529 11.1758 15.966 11.7175 15.966" fill="white"/>
</mask>
<g mask="url(#mask0_1727_24358)">
<path d="M15.1136 15.0548H11.1758V19.6446H15.1136V15.0548Z" fill="white"/>
</g>
<path d="M16.1553 16.1367L16.6715 17.7979H15.5972L16.1553 16.1367ZM15.5771 15.3586C15.3491 15.8742 14.5266 18.3116 14.253 18.9584C14.056 19.4253 14.9078 19.8059 15.1047 19.339L15.2908 18.6734H16.9852C16.9852 18.6734 16.9268 18.7016 17.1511 19.3109C17.3335 19.8059 18.2145 19.4628 18.0303 18.9678C17.7694 18.261 16.8703 15.7186 16.7061 15.3586C16.6313 15.1917 16.3596 15.0736 16.0969 15.0736C15.8799 15.0736 15.6665 15.1561 15.5771 15.3586Z" fill="white"/>
<mask id="mask1_1727_24358" style="mask-type:luminance" maskUnits="userSpaceOnUse" x="14" y="15" width="5" height="5">
<path d="M16.1553 16.1367L16.6715 17.7979H15.5972L16.1553 16.1367ZM15.5771 15.3586C15.3491 15.8742 14.5266 18.3116 14.253 18.9584C14.056 19.4253 14.9078 19.8059 15.1047 19.339L15.2908 18.6734H16.9852C16.9852 18.6734 16.9268 18.7016 17.1511 19.3109C17.3335 19.8059 18.2145 19.4628 18.0303 18.9678C17.7694 18.261 16.8703 15.7186 16.7061 15.3586C16.6313 15.1917 16.3596 15.0736 16.0969 15.0736C15.8799 15.0736 15.6665 15.1561 15.5771 15.3586Z" fill="white"/>
</mask>
<g mask="url(#mask1_1727_24358)">
<path d="M18.216 15.0736H14.0557V19.8078H18.216V15.0736Z" fill="white"/>
</g>
<path d="M18.3564 15.5123C18.3564 16.341 18.3619 19.0109 18.3619 19.0109C18.3619 19.0109 18.2871 19.5415 18.7303 19.5415C19.1735 19.5415 20.1548 19.5359 20.5907 19.5359C21.0266 19.5359 21.023 18.5834 20.5889 18.5834C20.1548 18.5834 19.3596 18.5778 19.3596 18.5778C19.3596 18.5778 19.3632 16.1085 19.3614 15.5086C19.3614 15.2179 19.1097 15.0736 18.8598 15.0736C18.61 15.0736 18.3583 15.2198 18.3583 15.5104" fill="white"/>
<mask id="mask2_1727_24358" style="mask-type:luminance" maskUnits="userSpaceOnUse" x="18" y="15" width="3" height="5">
<path d="M18.3564 15.5123C18.3564 16.341 18.3619 19.0109 18.3619 19.0109C18.3619 19.0109 18.2871 19.5415 18.7303 19.5415C19.1735 19.5415 20.1548 19.5359 20.5907 19.5359C21.0266 19.5359 21.023 18.5834 20.5889 18.5834C20.1548 18.5834 19.3596 18.5778 19.3596 18.5778C19.3596 18.5778 19.3632 16.1085 19.3614 15.5086C19.3614 15.2179 19.1097 15.0736 18.8598 15.0736C18.61 15.0736 18.3583 15.2198 18.3583 15.5104" fill="white"/>
</mask>
<g mask="url(#mask2_1727_24358)">
<path d="M21.0248 15.0736H18.2871V19.5397H21.0248V15.0736Z" fill="white"/>
</g>
<path d="M21.1418 15.3792C21.1509 15.7429 21.1309 19.0259 21.1309 19.2697C21.1309 19.654 22.0829 19.6521 22.0811 19.2697C22.0811 18.8234 22.0811 17.9778 22.0811 17.9778L22.3602 17.7472L23.5822 19.4609C23.8284 19.7965 24.6054 19.1909 24.3591 18.8553L23.0624 17.0985C23.0624 17.0985 23.9433 16.1198 24.2898 15.7654C24.4923 15.5592 23.8649 14.9086 23.6624 15.1167C23.4654 15.3173 22.0866 16.7366 22.0866 16.7366C22.0866 16.7366 22.0993 15.846 22.0866 15.3529C22.0811 15.1654 21.8586 15.0754 21.6306 15.0754C21.3862 15.0754 21.1363 15.1786 21.1418 15.3792Z" fill="white"/>
<mask id="mask3_1727_24358" style="mask-type:luminance" maskUnits="userSpaceOnUse" x="21" y="15" width="4" height="5">
<path d="M21.1418 15.3792C21.1509 15.7429 21.1309 19.0259 21.1309 19.2697C21.1309 19.654 22.0829 19.6521 22.0811 19.2697C22.0811 18.8234 22.0811 17.9778 22.0811 17.9778L22.3602 17.7472L23.5822 19.4609C23.8284 19.7965 24.6054 19.1909 24.3591 18.8553L23.0624 17.0985C23.0624 17.0985 23.9433 16.1198 24.2898 15.7654C24.4923 15.5592 23.8649 14.9086 23.6624 15.1167C23.4654 15.3173 22.0866 16.7366 22.0866 16.7366C22.0866 16.7366 22.0993 15.846 22.0866 15.3529C22.0811 15.1654 21.8586 15.0754 21.6306 15.0754C21.3862 15.0754 21.1363 15.1786 21.1418 15.3792Z" fill="white"/>
</mask>
<g mask="url(#mask3_1727_24358)">
<path d="M24.6072 14.9104H21.1309V19.7946H24.6072V14.9104Z" fill="white"/>
</g>
</g>
<defs>
<clipPath id="clip0_1727_24358">
<rect width="18" height="17" fill="white" transform="translate(9 10)"/>
</clipPath>
</defs>
</svg>
