<svg width="36" height="36" viewBox="0 0 36 36" fill="none" xmlns="http://www.w3.org/2000/svg">
<circle cx="18" cy="18" r="18" fill="#BDE3FF"/>
<g clip-path="url(#clip0_4181_58171)">
<path d="M22.0027 9.8169C21.8472 9.68348 21.6501 9.6001 21.4319 9.6001H13.0407C12.8406 9.6001 12.6571 9.67005 12.5078 9.78448L17.2722 14.3138L22.0027 9.8169Z" fill="#2184B6"/>
<path d="M21.9493 18.7802C22.0282 18.6426 22.0769 18.4851 22.0769 18.3132V10.302C22.0769 10.1353 22.0304 9.98146 21.9556 9.84619L17.2539 14.3162L21.9493 18.7797V18.7802Z" fill="#3D3D3D"/>
<path d="M12.5046 9.80225C12.4135 9.94632 12.3594 10.1173 12.3594 10.3026V18.3133C12.3594 18.5027 12.4153 18.6783 12.5104 18.8247L17.2531 14.3167L12.5046 9.80225Z" fill="#FF87B3"/>
<path d="M9.59961 21.35L17.2703 14.0981L22.0144 18.6353L14.5732 26.1554L9.59961 21.35Z" fill="#2184B6"/>
<path d="M12.5156 18.6177L21.9014 27.5999L26.3141 22.7176L17.2705 14.0981L12.5156 18.6177Z" fill="#2184B6" fill-opacity="0.7"/>
</g>
<defs>
<clipPath id="clip0_4181_58171">
<rect width="16.7143" height="18" fill="white" transform="translate(9.59961 9.6001)"/>
</clipPath>
</defs>
</svg>
