<svg width="20" height="20" viewBox="0 0 20 20" fill="none" xmlns="http://www.w3.org/2000/svg">
<path d="M2.08366 9.99992H4.90196C5.47297 9.99992 5.99496 10.3225 6.25033 10.8333C6.50569 11.344 7.02768 11.6666 7.59869 11.6666H12.402C12.973 11.6666 13.495 11.344 13.7503 10.8333C14.0057 10.3225 14.5277 9.99992 15.0987 9.99992H17.917M7.47246 3.33325H12.5282C13.4256 3.33325 13.8743 3.33325 14.2704 3.46989C14.6207 3.59072 14.9398 3.78792 15.2045 4.04721C15.5039 4.34042 15.7046 4.74175 16.1059 5.5444L17.9114 9.15534C18.0689 9.47032 18.1476 9.62782 18.2031 9.79287C18.2525 9.93946 18.2881 10.0903 18.3095 10.2435C18.3337 10.4159 18.3337 10.592 18.3337 10.9442V12.6666C18.3337 14.0667 18.3337 14.7668 18.0612 15.3016C17.8215 15.772 17.439 16.1544 16.9686 16.3941C16.4339 16.6666 15.7338 16.6666 14.3337 16.6666H5.66699C4.26686 16.6666 3.5668 16.6666 3.03202 16.3941C2.56161 16.1544 2.17916 15.772 1.93948 15.3016C1.66699 14.7668 1.66699 14.0667 1.66699 12.6666V10.9442C1.66699 10.592 1.66699 10.4159 1.69114 10.2435C1.71258 10.0903 1.74819 9.93946 1.79751 9.79287C1.85304 9.62782 1.93179 9.47032 2.08928 9.15534L3.89475 5.5444C4.29608 4.74174 4.49674 4.34042 4.79611 4.04721C5.06085 3.78792 5.37992 3.59072 5.73023 3.46989C6.12637 3.33325 6.57507 3.33325 7.47246 3.33325Z" stroke="white" stroke-width="1.5" stroke-linecap="round" stroke-linejoin="round"/>
</svg>
