<svg width="20" height="20" viewBox="0 0 20 20" fill="none" xmlns="http://www.w3.org/2000/svg">
<g clip-path="url(#clip0_1942_34927)">
<path d="M8.33268 12.4998L5.76997 15.0946C5.4125 15.4565 5.23377 15.6375 5.08014 15.6502C4.94686 15.6613 4.81636 15.6077 4.72931 15.5062C4.62898 15.3892 4.62898 15.1348 4.62898 14.6261V13.3262C4.62898 12.8698 4.25524 12.5396 3.80369 12.4734C2.7108 12.3134 1.8525 11.4551 1.69241 10.3622C1.66602 10.182 1.66602 9.96693 1.66602 9.53687V5.6665C1.66602 4.26637 1.66602 3.56631 1.9385 3.03153C2.17818 2.56112 2.56063 2.17867 3.03104 1.93899C3.56582 1.6665 4.26588 1.6665 5.66602 1.6665H11.8327C13.2328 1.6665 13.9329 1.6665 14.4677 1.93899C14.9381 2.17867 15.3205 2.56112 15.5602 3.03153C15.8327 3.56631 15.8327 4.26637 15.8327 5.6665V9.1665M15.8327 18.3332L14.019 17.0722C13.7641 16.895 13.6366 16.8064 13.4979 16.7435C13.3747 16.6878 13.2453 16.6472 13.1123 16.6227C12.9625 16.5951 12.8073 16.5951 12.4968 16.5951H10.9993C10.0659 16.5951 9.59922 16.5951 9.2427 16.4134C8.9291 16.2536 8.67413 15.9987 8.51434 15.6851C8.33268 15.3285 8.33268 14.8618 8.33268 13.9284V11.8332C8.33268 10.8998 8.33268 10.433 8.51434 10.0765C8.67413 9.76292 8.9291 9.50795 9.2427 9.34816C9.59922 9.1665 10.0659 9.1665 10.9993 9.1665H15.666C16.5994 9.1665 17.0661 9.1665 17.4227 9.34816C17.7363 9.50795 17.9912 9.76292 18.151 10.0765C18.3327 10.433 18.3327 10.8997 18.3327 11.8332V14.0951C18.3327 14.8716 18.3327 15.2599 18.2058 15.5662C18.0367 15.9746 17.7122 16.2991 17.3038 16.4682C16.9975 16.5951 16.6093 16.5951 15.8327 16.5951V18.3332Z" stroke="white" stroke-width="1.5" stroke-linecap="round" stroke-linejoin="round"/>
</g>
<defs>
<clipPath id="clip0_1942_34927">
<rect width="20" height="20" fill="white"/>
</clipPath>
</defs>
</svg>
