<svg width="20" height="20" viewBox="0 0 20 20" fill="none" xmlns="http://www.w3.org/2000/svg">
<path d="M5.74935 9.53687V11.8517M5.74935 9.53687V3.98132C5.74935 3.21426 6.38361 2.59243 7.16602 2.59243C7.94842 2.59243 8.58268 3.21426 8.58268 3.98132M5.74935 9.53687C5.74935 8.76981 5.11509 8.14799 4.33268 8.14799C3.55028 8.14799 2.91602 8.76981 2.91602 9.53687V11.3887C2.91602 15.224 6.08733 18.3332 9.99935 18.3332C13.9114 18.3332 17.0827 15.224 17.0827 11.3887V6.7591C17.0827 5.99204 16.4484 5.37021 15.666 5.37021C14.8836 5.37021 14.2493 5.99203 14.2493 6.7591M8.58268 3.98132V9.07391M8.58268 3.98132V3.05539C8.58268 2.28833 9.21695 1.6665 9.99935 1.6665C10.7818 1.6665 11.416 2.28833 11.416 3.05539V3.98132M11.416 3.98132V9.07391M11.416 3.98132C11.416 3.21426 12.0503 2.59243 12.8327 2.59243C13.6151 2.59243 14.2493 3.21426 14.2493 3.98132V6.7591M14.2493 6.7591V9.07391" stroke="white" stroke-width="1.5" stroke-linecap="round" stroke-linejoin="round"/>
</svg>
