<svg width="22" height="22" viewBox="0 0 22 22" fill="none" xmlns="http://www.w3.org/2000/svg">
<path d="M10.64 20C15.4117 20 19.28 15.9706 19.28 11C19.28 6.02944 15.4117 2 10.64 2C5.86826 2 2 6.02944 2 11C2 15.9706 5.86826 20 10.64 20Z" fill="#0094FB"/>
<path d="M6.752 11L9.344 13.7L14.528 8.3M19.28 11C19.28 15.9706 15.4117 20 10.64 20C5.86826 20 2 15.9706 2 11C2 6.02944 5.86826 2 10.64 2C15.4117 2 19.28 6.02944 19.28 11Z" stroke="#0094FB" stroke-width="2" stroke-linecap="round" stroke-linejoin="round"/>
<path d="M7 11.3516L9.7 13.7032L15.1 9" stroke="white" stroke-width="2" stroke-linecap="round" stroke-linejoin="round"/>
</svg>
