<svg width="20" height="20" viewBox="0 0 20 20" fill="none" xmlns="http://www.w3.org/2000/svg">
<path d="M11.6663 1.89136V5.33348C11.6663 5.80018 11.6663 6.03354 11.7572 6.2118C11.8371 6.3686 11.9645 6.49609 12.1213 6.57598C12.2996 6.66681 12.533 6.66681 12.9997 6.66681H16.4418M13.333 10.8334H6.66634M13.333 14.1667H6.66634M8.33301 7.50008H6.66634M11.6663 1.66675H7.33301C5.93288 1.66675 5.23281 1.66675 4.69803 1.93923C4.22763 2.17892 3.84517 2.56137 3.60549 3.03177C3.33301 3.56655 3.33301 4.26662 3.33301 5.66675V14.3334C3.33301 15.7335 3.33301 16.4336 3.60549 16.9684C3.84517 17.4388 4.22763 17.8212 4.69803 18.0609C5.23281 18.3334 5.93288 18.3334 7.33301 18.3334H12.6663C14.0665 18.3334 14.7665 18.3334 15.3013 18.0609C15.7717 17.8212 16.1542 17.4388 16.3939 16.9684C16.6663 16.4336 16.6663 15.7335 16.6663 14.3334V6.66675L11.6663 1.66675Z" stroke="white" stroke-width="1.5" stroke-linecap="round" stroke-linejoin="round"/>
</svg>
