<svg width="20" height="20" viewBox="0 0 20 20" fill="none" xmlns="http://www.w3.org/2000/svg">
<g clip-path="url(#clip0_1942_34935)">
<path d="M3.3327 18.181C3.83485 18.3332 4.51309 18.3332 5.66602 18.3332H14.3327C15.4856 18.3332 16.1638 18.3332 16.666 18.181M3.3327 18.181C3.22503 18.1484 3.12546 18.1088 3.03104 18.0607C2.56063 17.821 2.17818 17.4386 1.9385 16.9681C1.66602 16.4334 1.66602 15.7333 1.66602 14.3332V5.6665C1.66602 4.26637 1.66602 3.56631 1.9385 3.03153C2.17818 2.56112 2.56063 2.17867 3.03104 1.93899C3.56582 1.6665 4.26588 1.6665 5.66602 1.6665H14.3327C15.7328 1.6665 16.4329 1.6665 16.9677 1.93899C17.4381 2.17867 17.8205 2.56112 18.0602 3.03153C18.3327 3.56631 18.3327 4.26637 18.3327 5.6665V14.3332C18.3327 15.7333 18.3327 16.4334 18.0602 16.9681C17.8205 17.4386 17.4381 17.821 16.9677 18.0607C16.8732 18.1088 16.7737 18.1484 16.666 18.181M3.3327 18.181C3.33298 17.5066 3.33702 17.1497 3.39673 16.8495C3.65975 15.5272 4.69341 14.4936 6.01571 14.2306C6.33771 14.1665 6.72492 14.1665 7.49935 14.1665H12.4993C13.2738 14.1665 13.661 14.1665 13.983 14.2306C15.3053 14.4936 16.3389 15.5272 16.602 16.8495C16.6617 17.1497 16.6657 17.5066 16.666 18.181M13.3327 7.9165C13.3327 9.75745 11.8403 11.2498 9.99935 11.2498C8.1584 11.2498 6.66602 9.75745 6.66602 7.9165C6.66602 6.07555 8.1584 4.58317 9.99935 4.58317C11.8403 4.58317 13.3327 6.07555 13.3327 7.9165Z" stroke="white" stroke-width="1.5" stroke-linecap="round" stroke-linejoin="round"/>
</g>
<defs>
<clipPath id="clip0_1942_34935">
<rect width="20" height="20" fill="white"/>
</clipPath>
</defs>
</svg>
