<svg width="20" height="20" viewBox="0 0 20 20" fill="none" xmlns="http://www.w3.org/2000/svg">
<path d="M13.3333 7.91667H10M13.3333 10.8333H7.5M10 17.5C5.85786 17.5 2.5 14.1421 2.5 10C2.5 5.85786 5.85786 2.5 10 2.5C14.1421 2.5 17.5 5.85786 17.5 10C17.5 10.9976 17.3052 11.9497 16.9516 12.8204C16.8839 12.9871 16.8501 13.0704 16.835 13.1377C16.8202 13.2036 16.8148 13.2524 16.8148 13.3199C16.8148 13.3889 16.8273 13.4641 16.8524 13.6145L17.3466 16.5794C17.3983 16.8898 17.4242 17.0451 17.376 17.1573C17.3339 17.2556 17.2556 17.3339 17.1573 17.376C17.0451 17.4242 16.8898 17.3983 16.5794 17.3466L13.6145 16.8524C13.4641 16.8273 13.3889 16.8148 13.3199 16.8148C13.2524 16.8148 13.2036 16.8202 13.1377 16.835C13.0704 16.8501 12.9871 16.8839 12.8204 16.9516C11.9497 17.3052 10.9976 17.5 10 17.5Z" stroke="white" stroke-width="1.5" stroke-linecap="round" stroke-linejoin="round"/>
</svg>
