<svg width="20" height="20" viewBox="0 0 20 20" fill="none" xmlns="http://www.w3.org/2000/svg">
<g clip-path="url(#clip0_870_2557)">
<path d="M15.0003 1.66663L15.5152 2.69628C15.7364 3.13876 15.847 3.36 15.9948 3.55172C16.1259 3.72184 16.2784 3.87435 16.4486 4.00549C16.6403 4.15327 16.8615 4.26389 17.304 4.48513L18.3337 4.99996L17.304 5.51479C16.8615 5.73603 16.6403 5.84665 16.4486 5.99443C16.2784 6.12556 16.1259 6.27808 15.9948 6.4482C15.847 6.63992 15.7364 6.86116 15.5152 7.30364L15.0003 8.33329L14.4855 7.30364C14.2643 6.86116 14.1536 6.63992 14.0059 6.4482C13.8747 6.27808 13.7222 6.12556 13.5521 5.99443C13.3604 5.84665 13.1391 5.73603 12.6966 5.51479L11.667 4.99996L12.6966 4.48513C13.1391 4.26389 13.3604 4.15327 13.5521 4.00549C13.7222 3.87435 13.8747 3.72184 14.0059 3.55172C14.1536 3.36 14.2643 3.13876 14.4855 2.69628L15.0003 1.66663Z" stroke="#333333" stroke-width="1.5" stroke-linecap="round" stroke-linejoin="round"/>
<path d="M17.5003 11.1577C16.4078 13.0741 14.3458 14.3662 11.9819 14.3662C8.47623 14.3662 5.63428 11.5243 5.63428 8.01857C5.63428 5.65457 6.92657 3.59241 8.84324 2.49996C4.81682 2.88173 1.66699 6.2724 1.66699 10.3987C1.66699 14.7809 5.21943 18.3333 9.60157 18.3333C13.7277 18.3333 17.1183 15.1838 17.5003 11.1577Z" stroke="#333333" stroke-width="1.5" stroke-linecap="round" stroke-linejoin="round"/>
</g>
<defs>
<clipPath id="clip0_870_2557">
<rect width="20" height="20" fill="white"/>
</clipPath>
</defs>
</svg>
