<svg xmlns="http://www.w3.org/2000/svg" viewBox="0 0 118.73 131.06"><defs><style>.cls-1{fill:#444a4c;}</style></defs><g id="레이어_2" data-name="레이어 2"><g id="Layer_1" data-name="Layer 1"><path class="cls-1" d="M118.59,112.74v-61A13.81,13.81,0,0,0,104.8,38,13.57,13.57,0,0,0,98,39.8V26.67a13.81,13.81,0,0,0-13.8-13.8,13.66,13.66,0,0,0-6.54,1.66V13.8a13.8,13.8,0,1,0-27.59,0v1.8A13.77,13.77,0,0,0,28.21,26.78v53.1l-5-4.67a13.72,13.72,0,0,0-9.44-3.75A13.87,13.87,0,0,0,3.74,75.81a13.8,13.8,0,0,0,.61,19.5l38,35.71h65.27C120.82,132,118.59,112.74,118.59,112.74Zm-7.12,0c0,8.9-3.85,8.51-3.85,8.51H42.35l-22.13-20.8-11-10.33A6.68,6.68,0,0,1,13.8,78.58a6.71,6.71,0,0,1,4.57,1.81l9.84,9.26c6.63,4.64,7.12-3.08,7.12-3.08V26.78a6.68,6.68,0,1,1,13.35,0V63.11h8.5V13.8a6.68,6.68,0,1,1,13.35,0v11a14.1,14.1,0,0,0-.13,1.84v1.81l-.09-.06V63.11h7.34V25.32a6.67,6.67,0,0,1,13.21,1.35V63.11h7.26V51.77a6.68,6.68,0,1,1,13.35,0Z"/></g></g></svg>