<svg xmlns="http://www.w3.org/2000/svg" width="20" height="20" viewBox="0 0 20 20">
  <path id="bar-chart-11" d="M9,21H4.6a2.484,2.484,0,0,1-1.054-.109,1,1,0,0,1-.437-.437A2.484,2.484,0,0,1,3,19.4V4.6a2.484,2.484,0,0,1,.109-1.054,1,1,0,0,1,.437-.437A2.484,2.484,0,0,1,4.6,3H7.4a2.484,2.484,0,0,1,1.054.109,1,1,0,0,1,.437.437A2.484,2.484,0,0,1,9,4.6V7M9,21h6M9,21V7M9,7h4.4a2.484,2.484,0,0,1,1.054.109,1,1,0,0,1,.437.437A2.484,2.484,0,0,1,15,8.6V21m0-10h4.4a2.484,2.484,0,0,1,1.054.109,1,1,0,0,1,.437.437A2.484,2.484,0,0,1,21,12.6v6.8a2.484,2.484,0,0,1-.109,1.054,1,1,0,0,1-.437.437A2.484,2.484,0,0,1,19.4,21H15" transform="translate(-2 -2)" fill="none" stroke="#222" stroke-linecap="round" stroke-linejoin="round" stroke-width="2"/>
</svg>
