<svg xmlns="http://www.w3.org/2000/svg" width="16.5" height="15.29" viewBox="0 0 16.5 15.29">
  <path id="book-open-01_1_" data-name="book-open-01 (1)" d="M9.5,16.5l-.075-.113A6.575,6.575,0,0,0,8.3,14.932a3,3,0,0,0-1.033-.553,6.575,6.575,0,0,0-1.835-.129H4.4a3.726,3.726,0,0,1-1.581-.164,1.5,1.5,0,0,1-.656-.656A3.727,3.727,0,0,1,2,11.85V5.4a3.726,3.726,0,0,1,.163-1.581,1.5,1.5,0,0,1,.656-.656A3.726,3.726,0,0,1,4.4,3h.3a7.453,7.453,0,0,1,3.162.327A3,3,0,0,1,9.173,4.638,7.453,7.453,0,0,1,9.5,7.8m0,8.7V7.8m0,8.7.075-.113A6.575,6.575,0,0,1,10.7,14.932a3,3,0,0,1,1.033-.553,6.575,6.575,0,0,1,1.835-.129H14.6a3.726,3.726,0,0,0,1.581-.164,1.5,1.5,0,0,0,.655-.656A3.726,3.726,0,0,0,17,11.85V5.4a3.726,3.726,0,0,0-.163-1.581,1.5,1.5,0,0,0-.655-.656A3.727,3.727,0,0,0,14.6,3h-.3a7.453,7.453,0,0,0-3.162.327A3,3,0,0,0,9.827,4.638,7.453,7.453,0,0,0,9.5,7.8" transform="translate(-1.25 -2.25)" fill="none" stroke="#fff" stroke-linecap="round" stroke-linejoin="round" stroke-width="1.5"/>
</svg>
