<svg xmlns="http://www.w3.org/2000/svg" width="15" height="15" viewBox="0 0 15 15">
  <path id="calendar" d="M16.5,7.4H3M12.75,2V4.7M6.75,2V4.7M6.6,15.5h6.3a6.172,6.172,0,0,0,2.371-.221,2.151,2.151,0,0,0,.983-.885A4.562,4.562,0,0,0,16.5,12.26V6.59a4.562,4.562,0,0,0-.245-2.134,2.151,2.151,0,0,0-.983-.885A6.172,6.172,0,0,0,12.9,3.35H6.6a6.172,6.172,0,0,0-2.371.221,2.151,2.151,0,0,0-.983.885A4.562,4.562,0,0,0,3,6.59v5.67a4.563,4.563,0,0,0,.245,2.134,2.151,2.151,0,0,0,.983.885A6.172,6.172,0,0,0,6.6,15.5Z" transform="translate(-2.25 -1.25)" fill="none" stroke="#666" stroke-linecap="round" stroke-linejoin="round" stroke-width="1.5"/>
</svg>
