<svg xmlns="http://www.w3.org/2000/svg" width="20" height="22" viewBox="0 0 20 22">
  <path id="calendar-check-01" d="M21,10H3M16,2V6M8,2V6M9,16l2,2,4.5-4.5M7.8,22h8.4a7.453,7.453,0,0,0,3.162-.327,3,3,0,0,0,1.311-1.311A7.453,7.453,0,0,0,21,17.2V8.8a7.453,7.453,0,0,0-.327-3.162,3,3,0,0,0-1.311-1.311A7.453,7.453,0,0,0,16.2,4H7.8a7.453,7.453,0,0,0-3.162.327A3,3,0,0,0,3.327,5.638,7.453,7.453,0,0,0,3,8.8v8.4a7.453,7.453,0,0,0,.327,3.162,3,3,0,0,0,1.311,1.311A7.453,7.453,0,0,0,7.8,22Z" transform="translate(-2 -1)" fill="none" stroke="#222" stroke-linecap="round" stroke-linejoin="round" stroke-width="2"/>
</svg>
