<?xml version="1.0" encoding="UTF-8"?><svg id="Layer_2" xmlns="http://www.w3.org/2000/svg" viewBox="0 0 261.5 192.84"><defs><style>.cls-1{fill:#fff;}.cls-2{fill:#4194c9;}.cls-3{fill:#727171;}</style></defs><g id="_레이어_1"><g><path class="cls-3" d="M82.98,4.24v.22c0,.65-.11,1.56-1.36,1.56-1.09,0-1.32-.66-1.32-1.53V1.63c0-.88,.41-1.46,1.34-1.46,1.11,0,1.32,.71,1.32,1.5v.26h-.91v-.36c0-.38-.09-.59-.41-.59s-.41,.21-.41,.6v3.01c0,.37,.08,.66,.42,.66s.41-.25,.41-.67v-.32h.92Z"/><path class="cls-3" d="M86.13,2.89v1.7c0,.95-.49,1.43-1.35,1.43s-1.33-.5-1.33-1.43v-1.74c0-.96,.56-1.39,1.35-1.39s1.32,.49,1.32,1.42Zm-1.77-.05v1.78c0,.36,.11,.62,.44,.62,.3,0,.42-.22,.42-.63v-1.78c0-.34-.09-.59-.43-.59-.3,0-.43,.21-.43,.6Z"/><path class="cls-3" d="M86.76,2.89c0-.9,0-1.16,0-1.36h.87c.02,.1,.03,.27,.03,.4,.13-.26,.38-.47,.84-.47,.56,0,.94,.33,.94,1.16v3.32h-.91V2.79c0-.4-.14-.54-.39-.54-.32,0-.46,.17-.46,.77v2.93h-.91V2.89Z"/><path class="cls-3" d="M90.77,1.53c.15,.87,.41,2.47,.52,3.44h0c.08-.94,.4-2.53,.55-3.44h.91l-.98,4.42h-1.02l-.96-4.42h.97Z"/><path class="cls-3" d="M93.93,3.97v.65c0,.34,.08,.65,.43,.65s.41-.31,.41-.63v-.02h.89v.02c0,.46-.1,1.37-1.27,1.37s-1.33-.7-1.33-1.59v-1.45c0-.6,.2-1.52,1.33-1.52,.97,0,1.29,.64,1.29,1.51v1h-1.74Zm.87-.69v-.45c0-.41-.1-.63-.42-.63-.29,0-.43,.2-.43,.63v.45h.86Z"/><path class="cls-3" d="M96.28,3.03c0-.73,0-1.05,0-1.5h.86c0,.08,.03,.48,.03,.71,.18-.6,.58-.78,1.01-.78v1.08c-.52,0-.98,.13-.98,1.03v2.36h-.91V3.03Z"/><path class="cls-3" d="M101.2,5.7c0,.98-.1,1.79-1.4,1.79-1.09,0-1.27-.66-1.27-1.15v-.02h.91v.02c0,.12,.05,.42,.41,.42s.44-.28,.44-.84v-.48c-.12,.24-.37,.41-.75,.41-.83,0-1.01-.63-1.01-1.38v-1.67c0-.6,.23-1.34,1.11-1.34,.48,0,.68,.22,.75,.46,0-.13,.03-.32,.04-.39h.79c0,.27-.02,.64-.02,1.1v3.07Zm-1.76-2.84v1.55c0,.45,.11,.67,.4,.67,.39,0,.45-.29,.45-.84v-1.29c0-.38-.04-.7-.41-.7-.29,0-.45,.18-.45,.61Z"/><path class="cls-3" d="M102.72,3.97v.65c0,.34,.08,.65,.43,.65,.36,0,.41-.31,.41-.63v-.02h.89v.02c0,.46-.1,1.37-1.27,1.37s-1.33-.7-1.33-1.59v-1.45c0-.6,.2-1.52,1.33-1.52,.97,0,1.29,.64,1.29,1.51v1h-1.74Zm.87-.69v-.45c0-.41-.1-.63-.42-.63-.29,0-.43,.2-.43,.63v.45h.86Z"/><path class="cls-3" d="M105.06,2.89c0-.9,0-1.16,0-1.36h.87c.02,.1,.03,.27,.03,.4,.13-.26,.38-.47,.84-.47,.56,0,.94,.33,.94,1.16v3.32h-.91V2.79c0-.4-.14-.54-.39-.54-.32,0-.46,.17-.46,.77v2.93h-.91V2.89Z"/><path class="cls-3" d="M110.88,4.48v.06c0,.8-.21,1.47-1.27,1.47s-1.24-.68-1.24-1.59v-1.52c0-.72,.25-1.44,1.29-1.44,1.12,0,1.23,.78,1.23,1.33v.17h-.89v-.19c0-.34-.06-.57-.35-.57-.27,0-.36,.2-.36,.57v1.91c0,.31,.06,.58,.36,.58s.35-.22,.35-.58v-.21h.89Z"/><path class="cls-3" d="M112.26,3.97v.65c0,.34,.08,.65,.43,.65s.41-.31,.41-.63v-.02h.89v.02c0,.46-.1,1.37-1.27,1.37s-1.33-.7-1.33-1.59v-1.45c0-.6,.2-1.52,1.33-1.52,.97,0,1.29,.64,1.29,1.51v1h-1.74Zm.87-.69v-.45c0-.41-.1-.63-.42-.63-.29,0-.43,.2-.43,.63v.45h.86Z"/><path class="cls-3" d="M118.17,5.04c0,.28,0,.74,.02,.9h-.83c-.02-.08-.05-.26-.06-.32-.16,.27-.4,.39-.75,.39-.69,0-.96-.61-.96-1.28v-.08c0-1.09,.76-1.38,1.58-1.38h.1v-.56c0-.35-.04-.54-.32-.54s-.33,.2-.33,.48v.07h-.89v-.06c0-.64,.25-1.21,1.26-1.21,.88,0,1.19,.47,1.19,1.18v2.4Zm-.89-1.1h-.15c-.41,0-.69,.15-.69,.7v.07c0,.31,.12,.53,.4,.53,.3,0,.44-.2,.44-.8v-.51Z"/><path class="cls-3" d="M118.94,2.89c0-.9,0-1.16,0-1.36h.87c.02,.1,.03,.27,.03,.4,.13-.26,.38-.47,.84-.47,.55,0,.94,.33,.94,1.16v3.32h-.91V2.79c0-.4-.14-.54-.39-.54-.32,0-.46,.17-.46,.77v2.93h-.91V2.89Z"/><path class="cls-3" d="M124.92,0V4.72c0,.67,0,.98,0,1.22h-.87c-.02-.11-.03-.35-.03-.42-.14,.28-.36,.49-.8,.49-.82,0-.98-.63-.98-1.49v-1.73c0-.77,.3-1.33,1.05-1.33,.3,0,.59,.09,.72,.31V0h.91Zm-1.77,2.85v1.75c0,.41,.1,.63,.41,.63,.37,0,.44-.32,.44-.83v-1.36c0-.48-.04-.79-.43-.79-.32,0-.42,.23-.42,.6Z"/><path class="cls-3" d="M129.59,1.76v2.66c0,1.09-.48,1.61-1.48,1.61s-1.39-.53-1.39-1.59V1.75c0-1.09,.57-1.59,1.45-1.59s1.42,.5,1.42,1.6Zm-1.94-.09v2.87c0,.47,.18,.7,.5,.7,.35,0,.51-.21,.51-.71V1.67c0-.45-.14-.7-.51-.7-.33,0-.5,.23-.5,.71Z"/><path class="cls-3" d="M131.15,5.64v1.79h-.91V2.8c0-.6,0-1,0-1.27h.87c.02,.08,.03,.28,.03,.43,.13-.28,.39-.5,.84-.5,.64,0,.94,.43,.94,1.29v1.81c0,1.02-.35,1.45-1.04,1.45-.39,0-.61-.18-.73-.38Zm.86-1.06v-1.74c0-.4-.13-.59-.4-.59-.3,0-.46,.18-.46,.69v1.53c0,.45,.08,.76,.43,.76s.43-.25,.43-.65Z"/><path class="cls-3" d="M134.35,3.97v.65c0,.34,.08,.65,.43,.65,.36,0,.41-.31,.41-.63v-.02h.89v.02c0,.46-.1,1.37-1.27,1.37s-1.33-.7-1.33-1.59v-1.45c0-.6,.2-1.52,1.33-1.52,.97,0,1.29,.64,1.29,1.51v1h-1.74Zm.87-.69v-.45c0-.41-.1-.63-.42-.63-.29,0-.43,.2-.43,.63v.45h.86Z"/><path class="cls-3" d="M136.7,2.89c0-.9,0-1.16,0-1.36h.87c.02,.1,.03,.27,.03,.4,.13-.26,.38-.47,.84-.47,.56,0,.94,.33,.94,1.16v3.32h-.91V2.79c0-.4-.14-.54-.39-.54-.32,0-.46,.17-.46,.77v2.93h-.91V2.89Z"/><path class="cls-3" d="M141.93,4.27v.35c0,.42,.13,.66,.48,.66s.45-.32,.45-.69c0-.61-.14-.8-.77-1.28-.63-.48-.97-.79-.97-1.64,0-.75,.24-1.51,1.3-1.51,1.09,0,1.26,.75,1.26,1.37v.3h-.9v-.28c0-.4-.07-.64-.37-.64s-.37,.25-.37,.63c0,.4,.08,.6,.6,.97,.88,.63,1.15,1,1.15,1.95,0,.81-.29,1.57-1.39,1.57s-1.36-.67-1.36-1.42v-.34h.91Z"/><path class="cls-3" d="M145.24,0V1.9c.14-.25,.4-.43,.85-.43,.7,0,.92,.51,.92,1.14v3.35h-.91V2.83c0-.33-.07-.58-.4-.58-.35,0-.45,.22-.45,.73v2.97h-.91V0h.91Z"/><path class="cls-3" d="M150.13,5.04c0,.28,0,.74,.02,.9h-.83c-.02-.08-.05-.26-.06-.32-.16,.27-.4,.39-.75,.39-.69,0-.96-.61-.96-1.28v-.08c0-1.09,.76-1.38,1.58-1.38h.1v-.56c0-.35-.04-.54-.32-.54s-.33,.2-.33,.48v.07h-.89v-.06c0-.64,.25-1.21,1.26-1.21,.88,0,1.19,.47,1.19,1.18v2.4Zm-.88-1.1h-.15c-.41,0-.69,.15-.69,.7v.07c0,.31,.12,.53,.4,.53,.3,0,.44-.2,.44-.8v-.51Z"/><path class="cls-3" d="M150.9,3.03c0-.73,0-1.05,0-1.5h.86c0,.08,.03,.48,.03,.71,.18-.6,.58-.78,1.01-.78v1.08c-.52,0-.97,.13-.97,1.03v2.36h-.91V3.03Z"/><path class="cls-3" d="M153.21,1.53h.91V5.95h-.91V1.53Zm0-1.53h.91V.94h-.91V0Z"/><path class="cls-3" d="M154.89,2.89c0-.9,0-1.16,0-1.36h.87c.02,.1,.03,.27,.03,.4,.13-.26,.38-.47,.84-.47,.56,0,.94,.33,.94,1.16v3.32h-.91V2.79c0-.4-.14-.54-.39-.54-.32,0-.46,.17-.46,.77v2.93h-.91V2.89Z"/><path class="cls-3" d="M160.87,5.7c0,.98-.1,1.79-1.4,1.79-1.09,0-1.27-.66-1.27-1.15v-.02h.91v.02c0,.12,.05,.42,.41,.42s.44-.28,.44-.84v-.48c-.12,.24-.37,.41-.75,.41-.83,0-1.01-.63-1.01-1.38v-1.67c0-.6,.23-1.34,1.11-1.34,.48,0,.68,.22,.75,.46,0-.13,.03-.32,.04-.39h.79c0,.27-.02,.64-.02,1.1v3.07Zm-1.76-2.84v1.55c0,.45,.11,.67,.4,.67,.39,0,.45-.29,.45-.84v-1.29c0-.38-.04-.7-.41-.7-.29,0-.45,.18-.45,.61Z"/><path class="cls-3" d="M163.42,4.27v.35c0,.42,.13,.66,.48,.66s.45-.32,.45-.69c0-.61-.14-.8-.77-1.28-.63-.48-.97-.79-.97-1.64,0-.75,.23-1.51,1.3-1.51,1.09,0,1.25,.75,1.25,1.37v.3h-.9v-.28c0-.4-.07-.64-.37-.64s-.37,.25-.37,.63c0,.4,.08,.6,.6,.97,.88,.63,1.15,1,1.15,1.95,0,.81-.29,1.57-1.39,1.57s-1.36-.67-1.36-1.42v-.34h.91Z"/><path class="cls-3" d="M166.44,1.53c.24,1.45,.47,2.79,.51,3.36h.02c.08-.76,.26-1.64,.55-3.36h.91l-1.03,4.63c-.29,1.27-.76,1.33-1.28,1.33-.16,0-.3-.02-.42-.03l.02-.78s.16,.02,.27,.02c.29,0,.43-.1,.51-.57l-1.04-4.59h.97Z"/><path class="cls-3" d="M169.52,4.56v.2c0,.27,.08,.51,.37,.51,.25,0,.35-.15,.35-.44s-.08-.48-.64-.83c-.63-.39-.93-.71-.93-1.34,0-.75,.41-1.2,1.21-1.2,.86,0,1.21,.46,1.21,1.27v.18h-.88v-.27c0-.31-.11-.43-.32-.43s-.31,.16-.31,.39c0,.25,.08,.36,.5,.62,.8,.49,1.08,.8,1.08,1.53,0,.85-.44,1.28-1.3,1.28-1.03,0-1.26-.62-1.26-1.25v-.2h.92Z"/><path class="cls-3" d="M171.38,1.53h.48V.47h.91V1.53h.57v.77h-.57v2.61c0,.21,.03,.38,.3,.38,.08,0,.2,0,.25-.03v.66c-.15,.07-.38,.09-.55,.09-.57,0-.91-.18-.91-.94V2.3h-.48v-.77Z"/><path class="cls-3" d="M174.55,3.97v.65c0,.34,.08,.65,.43,.65s.41-.31,.41-.63v-.02h.89v.02c0,.46-.1,1.37-1.27,1.37s-1.33-.7-1.33-1.59v-1.45c0-.6,.2-1.52,1.33-1.52,.97,0,1.29,.64,1.29,1.51v1h-1.74Zm.87-.69v-.45c0-.41-.1-.63-.42-.63-.29,0-.43,.2-.43,.63v.45h.86Z"/><path class="cls-3" d="M176.89,2.81c0-.88,0-1.08,0-1.28h.87c.03,.13,.03,.24,.03,.39,.16-.3,.44-.46,.8-.46s.62,.16,.73,.48c.16-.25,.4-.48,.88-.48s.9,.24,.9,1.1v3.38h-.91V2.73c0-.31-.08-.48-.34-.48-.32,0-.4,.24-.4,.68v3.02h-.92V2.75c0-.4-.12-.5-.34-.5-.32,0-.39,.24-.39,.66v3.03h-.91V2.81Z"/></g><g><g><path class="cls-2" d="M190.25,61.64c-2.65,0-4.9,1.78-5.61,4.21h-16.55l-11.65-11.65c-1.3-1.3-3.03-2.02-4.87-2.02s-3.57,.72-4.88,2.02c-1.49,1.49-2.15,3.49-1.99,5.44-.19-.01-.38-.03-.57-.03-1.84,0-3.57,.72-4.87,2.02-1.3,1.3-2.02,3.03-2.02,4.88,0,.19,.01,.38,.03,.57-.19-.02-.37-.03-.57-.03-1.84,0-3.57,.72-4.88,2.02-1.49,1.49-2.15,3.49-1.99,5.44-.19-.02-.38-.03-.57-.03-1.84,0-3.57,.72-4.87,2.02-1.3,1.3-2.02,3.03-2.02,4.88s.72,3.57,2.02,4.87l6.25,6.25-3.88,3.88c-1.41,1.41-3.71,1.41-5.11,0-1.41-1.41-1.41-3.71,0-5.12,.11-.11,.19-.23,.27-.36l1.16-1.16c.64-.64,.64-1.68,0-2.32-.64-.64-1.68-.64-2.32,0l-1.47,1.47c-.09,.09-.17,.2-.23,.3-.64,.52-1.44,.8-2.27,.8-.97,0-1.87-.38-2.56-1.06-1.41-1.41-1.41-3.71,0-5.12,0,0,0,0,0,0l1.47-1.47c.64-.64,.64-1.68,0-2.32-.64-.64-1.68-.64-2.32,0l-1.47,1.47s0,0,0,0c-.68,.68-1.59,1.06-2.56,1.06s-1.87-.38-2.56-1.06c-1.41-1.41-1.41-3.71,0-5.12l1.47-1.47c.64-.64,.64-1.68,0-2.32-.64-.64-1.68-.64-2.32,0l-1.47,1.47c-1.41,1.41-3.7,1.41-5.12,0-.68-.68-1.06-1.59-1.06-2.56s.38-1.87,1.06-2.56l20.4-20.51,5.83,5.25c1.53,1.47,3.52,2.28,5.64,2.28,.04,0,.08,0,.12,0,2.17-.03,4.2-.91,5.72-2.47,1.51-1.56,2.33-3.61,2.3-5.79-.03-2.17-.91-4.2-2.48-5.73l-4.13-3.92s-.18-.18-.42-.41c-.02-.02-.04-.05-.07-.08l-1.44-1.4c-.98-.96-2.08-2.03-2.65-2.57,0,0-.01-.01-.02-.02-.06-.06-.12-.11-.18-.17,1.58-.69,3.28-1.05,5.01-1.05h29.38c1.04,0,2.07,.42,2.81,1.16l2.81,2.8c1.35,1.35,3.21,2.12,5.12,2.12h11.72c1.92,0,3.75-.73,5.15-2.06,.91-.87,2.05-1.95,3-2.87,.76-.73,1.78-1.16,2.8-1.16h23.06c.71,2.43,2.95,4.21,5.61,4.21,3.22,0,5.85-2.62,5.85-5.84s-2.62-5.85-5.85-5.85c-2.65,0-4.9,1.78-5.61,4.21h-23.06c-1.88,0-3.69,.74-5.08,2.07-.95,.91-2.07,1.99-2.99,2.85-.78,.74-1.83,1.16-2.89,1.16h-11.72c-1.05,0-2.07-.42-2.81-1.16l-2.81-2.81c-1.35-1.35-3.21-2.12-5.12-2.12h-29.38c-2.8,0-5.52,.75-7.94,2.15-.41-.24-.83-.46-1.26-.66-2.08-.98-4.33-1.49-6.67-1.49h-39.97c-.71-2.43-2.95-4.21-5.61-4.21-3.22,0-5.85,2.62-5.85,5.85s2.62,5.85,5.85,5.85c2.65,0,4.9-1.78,5.61-4.21h39.97c.36,0,.72,.02,1.07,.05,.14,.01,.27,.03,.41,.04,.18,.02,.36,.05,.54,.08,.33,.06,.66,.12,.99,.2h0c.71,.18,1.41,.42,2.08,.72,.15,.07,.31,.14,.46,.21,.1,.05,.2,.1,.3,.15,1.04,.56,2.03,1.28,2.96,2.16l2.61,2.53c1.02,1,1.92,1.88,1.95,1.91l4.14,3.92c.93,.91,1.45,2.12,1.47,3.42,.02,1.3-.47,2.53-1.38,3.46-.9,.93-2.12,1.45-3.42,1.47-1.29,.02-2.53-.47-3.46-1.37-.02-.01-.03-.03-.05-.04l-6.89-6.21s-.03-.04-.05-.06c-.64-.64-1.68-.64-2.32,0l-20.71,20.82h-8.93c-1.04,0-2.07-.42-2.81-1.16l-2.8-2.8c-1.35-1.35-3.22-2.12-5.12-2.12h-11.72c-1.92,0-3.75,.73-5.15,2.06-.92,.87-2.05,1.95-3,2.87-.76,.74-1.79,1.16-2.8,1.16h-11.46c-.71-2.43-2.95-4.21-5.61-4.21-3.22,0-5.85,2.62-5.85,5.85s2.62,5.85,5.85,5.85c2.65,0,4.9-1.78,5.61-4.21h11.46c1.88,0,3.69-.74,5.08-2.07,.95-.91,2.07-1.99,2.99-2.85,.78-.74,1.83-1.16,2.89-1.16h11.72c1.04,0,2.07,.42,2.81,1.16l2.8,2.8c1.35,1.35,3.21,2.12,5.12,2.12h6.55c-.28,.76-.44,1.57-.44,2.4,0,1.84,.72,3.57,2.02,4.87,1.3,1.3,3.03,2.02,4.88,2.02,.19,0,.38,0,.56-.02-.16,1.95,.51,3.95,1.99,5.44,1.49,1.49,3.49,2.15,5.44,1.99-.16,1.95,.51,3.95,1.99,5.44,1.3,1.3,3.03,2.02,4.87,2.02,.19,0,.38,0,.57-.02-.16,1.95,.51,3.95,1.99,5.44,1.34,1.34,3.11,2.02,4.87,2.02s3.53-.67,4.87-2.02l3.88-3.88,3.88,3.88c1.3,1.3,3.03,2.02,4.87,2.02s3.57-.72,4.88-2.02c1.49-1.49,2.15-3.49,1.99-5.44,.19,.02,.38,.03,.57,.03,1.84,0,3.57-.72,4.87-2.02,1.3-1.3,2.02-3.03,2.02-4.87,0-.19-.01-.38-.03-.57,.19,.01,.38,.03,.57,.03,1.84,0,3.57-.72,4.87-2.02,1.49-1.49,2.15-3.49,1.99-5.44,.19,.01,.38,.03,.57,.03,1.84,0,3.57-.72,4.87-2.02,1.96-1.96,2.49-4.83,1.58-7.27h14.16c.71,2.43,2.95,4.21,5.61,4.21,3.22,0,5.85-2.62,5.85-5.85s-2.62-5.85-5.85-5.85Zm34.19-33.46c1.42,0,2.57,1.15,2.57,2.57s-1.15,2.57-2.57,2.57-2.57-1.15-2.57-2.57,1.15-2.57,2.57-2.57Zm-152.91,5.14c-1.42,0-2.57-1.15-2.57-2.57s1.15-2.57,2.57-2.57,2.57,1.15,2.57,2.57-1.15,2.57-2.57,2.57Zm-33.11,36.74c-1.42,0-2.57-1.15-2.57-2.57s1.15-2.57,2.57-2.57,2.57,1.15,2.57,2.57-1.15,2.57-2.57,2.57Zm106.92,23.77c0,.97-.38,1.87-1.06,2.56-.68,.68-1.59,1.06-2.56,1.06s-1.87-.38-2.56-1.06l-12.45-12.45c-.68-.68-1.06-1.59-1.06-2.56s.38-1.87,1.06-2.56c.68-.68,1.59-1.06,2.56-1.06s1.87,.38,2.56,1.06l12.45,12.45c.68,.68,1.06,1.59,1.06,2.56Zm7.43-7.43c0,.97-.38,1.87-1.06,2.56-.68,.68-1.59,1.06-2.56,1.06s-1.87-.38-2.56-1.06l-12.45-12.45c-1.41-1.41-1.41-3.71,0-5.12,.68-.68,1.59-1.06,2.56-1.06s1.87,.38,2.56,1.06l12.45,12.45c.68,.68,1.06,1.59,1.06,2.56Zm6.37-4.88c-.68,.68-1.59,1.06-2.56,1.06s-1.88-.38-2.56-1.06l-12.45-12.45c-.68-.68-1.06-1.59-1.06-2.56s.38-1.87,1.06-2.56c.68-.68,1.59-1.06,2.56-1.06s1.87,.38,2.56,1.06l12.45,12.45c1.41,1.41,1.41,3.71,0,5.12Zm7.43-7.43c-.68,.68-1.59,1.06-2.56,1.06s-1.87-.38-2.56-1.06l-12.45-12.45c-1.41-1.41-1.41-3.71,0-5.12,.68-.68,1.59-1.06,2.56-1.06s1.87,.38,2.56,1.06l12.04,12.04c.05,.06,.11,.12,.17,.17l.24,.24c1.41,1.41,1.41,3.71,0,5.12Zm23.67-4.03c-1.42,0-2.57-1.15-2.57-2.57s1.15-2.57,2.57-2.57,2.57,1.15,2.57,2.57-1.15,2.57-2.57,2.57Z"/><path class="cls-2" d="M195.56,45.04h-30.67c-.9,0-1.64,.73-1.64,1.64s.73,1.64,1.64,1.64h30.89c.82,2.24,2.97,3.84,5.48,3.84,3.22,0,5.84-2.62,5.84-5.85s-2.62-5.84-5.84-5.84c-2.79,0-5.12,1.96-5.7,4.58Zm8.27,1.27c0,1.42-1.15,2.57-2.57,2.57s-2.57-1.15-2.57-2.57,1.15-2.57,2.57-2.57,2.57,1.15,2.57,2.57Z"/><path class="cls-2" d="M255.66,50.84c-2.65,0-4.9,1.78-5.61,4.21h-11.37c-1.04,0-2.07-.42-2.81-1.16l-2.81-2.81c-1.35-1.35-3.21-2.12-5.12-2.12h-11.32c-1.91,0-3.77,.77-5.12,2.12l-2.81,2.81c-.74,.74-1.76,1.16-2.8,1.16h-32.37c-.9,0-1.64,.73-1.64,1.64s.73,1.64,1.64,1.64h21.83l8,8.29c1.33,1.38,3.19,2.17,5.11,2.17h11.69c.78,2.32,2.96,4,5.54,4,3.22,0,5.85-2.62,5.85-5.85s-2.62-5.85-5.85-5.85c-2.73,0-5.02,1.88-5.66,4.41h-11.57c-1.03,0-2.04-.43-2.75-1.17l-5.81-6.02h5.99c1.91,0,3.77-.77,5.12-2.12l2.81-2.8c.74-.74,1.76-1.16,2.8-1.16h11.32c1.04,0,2.07,.42,2.81,1.16l2.81,2.8c1.35,1.35,3.21,2.12,5.12,2.12h11.37c.71,2.43,2.95,4.21,5.61,4.21,3.22,0,5.85-2.62,5.85-5.85s-2.62-5.85-5.85-5.85Zm-29.96,13.53c1.42,0,2.57,1.15,2.57,2.57s-1.15,2.57-2.57,2.57-2.57-1.15-2.57-2.57,1.15-2.57,2.57-2.57Zm29.96-5.12c-1.42,0-2.57-1.15-2.57-2.57s1.15-2.57,2.57-2.57,2.57,1.15,2.57,2.57-1.15,2.57-2.57,2.57Z"/><path class="cls-2" d="M23.65,43.18c1.04,0,2.07,.42,2.8,1.16l2.81,2.81c1.35,1.35,3.22,2.12,5.12,2.12h11.32c1.91,0,3.77-.77,5.12-2.12l2.81-2.81c.74-.74,1.76-1.16,2.81-1.16h35.07c.9,0,1.64-.73,1.64-1.64s-.73-1.64-1.64-1.64h-24.52l-8-8.29c-1.33-1.38-3.2-2.17-5.11-2.17h-12.08c-.6-2.6-2.92-4.54-5.69-4.54-3.22,0-5.85,2.62-5.85,5.85s2.62,5.84,5.85,5.84c2.53,0,4.68-1.62,5.5-3.87h12.27c1.03,0,2.04,.43,2.75,1.17l5.81,6.02h-5.99c-1.91,0-3.77,.77-5.12,2.12l-2.81,2.8c-.74,.74-1.76,1.16-2.8,1.16h-11.32c-1.04,0-2.07-.42-2.81-1.16l-2.8-2.8c-1.35-1.35-3.21-2.12-5.12-2.12H11.45c-.71-2.43-2.95-4.21-5.61-4.21-3.22,0-5.85,2.62-5.85,5.85s2.62,5.85,5.85,5.85c2.65,0,4.9-1.78,5.61-4.21h12.19Zm12.44-9.87c-1.42,0-2.57-1.15-2.57-2.57s1.15-2.57,2.57-2.57,2.57,1.15,2.57,2.57-1.15,2.57-2.57,2.57ZM5.85,44.11c-1.42,0-2.57-1.15-2.57-2.57s1.15-2.57,2.57-2.57,2.57,1.15,2.57,2.57-1.15,2.57-2.57,2.57Z"/><path class="cls-2" d="M51.43,59.28c1.91,0,3.77-.77,5.12-2.12l2.81-2.81c.74-.74,1.76-1.16,2.8-1.16h29.34c.9,0,1.64-.73,1.64-1.64s-.73-1.64-1.64-1.64h-29.34c-1.91,0-3.77,.77-5.12,2.12l-2.81,2.8c-.74,.74-1.76,1.16-2.8,1.16H22.57c-.71-2.43-2.95-4.21-5.61-4.21-3.22,0-5.85,2.62-5.85,5.85s2.62,5.85,5.85,5.85c2.65,0,4.9-1.78,5.61-4.21h28.86Zm-34.47,.93c-1.42,0-2.57-1.15-2.57-2.57s1.15-2.57,2.57-2.57,2.57,1.15,2.57,2.57-1.15,2.57-2.57,2.57Z"/></g><g><path class="cls-2" d="M198.52,36.39c-11.11,0-20.14-9.04-20.14-20.14v-3.25H83.13v3.25c0,11.11-9.04,20.14-20.14,20.14h-3.25V110.39h4.94V41.27c12.49-.84,22.5-10.85,23.33-23.33h85.48c.84,12.49,10.85,22.5,23.33,23.33V110.39h4.94V36.39h-3.25Z"/><path class="cls-2" d="M173.65,171.53l-10.19-4.87s-21.63-7.95-31.82-7.95-28.45,7.41-28.45,7.41l-14.63,6.53c-1.33-1.11-2.63-2.25-3.89-3.47-4.52-4.39-8.3-9.32-11.34-14.63h-5.63c3.46,6.64,7.99,12.77,13.53,18.16,13.38,13.02,30.9,20.12,49.51,20.12,.67,0,1.33,0,2-.03,26.03-.71,48.74-16.14,60.49-38.26h-5.63c-3.72,6.4-8.45,12.14-13.95,16.98Z"/></g><g><path class="cls-2" d="M141.45,129.67c-3.97,14.94-16.5,27.43-35.01,27.43s-23.67-12.42-19.7-27.36c4.04-15.2,16.92-27.41,35.06-27.41,17.04,0,23.85,11.54,19.65,27.34Zm-38.32-.16c-2.57,9.69-1.07,16.44,6.77,16.44,8.24,0,12.85-7.16,15.24-16.16,2.56-9.63,1.45-16.32-6.82-16.32-7.69,0-12.57,6.2-15.18,16.03Z"/><path class="cls-2" d="M93.17,138.75c-4.91,11.04-15.15,18.35-29.98,18.35-17.7,0-23.16-11.67-19.09-27,3.97-14.95,15.83-27.77,34.4-27.77,15.89,0,20.72,9.02,19.36,18.16h-15.72c.29-3.82-1.04-7.29-6.89-7.29-7.7,0-12.22,7.14-14.67,16.36-2.22,8.37-2.23,16.64,6.08,16.64,6.3,0,9.25-4.47,10.71-7.45h15.8Z"/><path class="cls-2" d="M145.16,140.13c-.32,4.6,2.46,6.54,7.58,6.54,4.79,0,7.44-1.64,8.25-4.71,.92-3.47-1.13-4.79-9.13-6.78-14.95-3.77-16.61-9.46-14.73-16.57,2.35-8.86,10.99-16.28,26.04-16.28s19.97,7.75,18.51,16.08h-15.3c.34-2.83-.38-5.72-6-5.72-3.63,0-6.21,1.34-6.97,4.19-.76,2.86,.93,3.97,8.73,5.97,15.58,4.06,17.33,9.92,15.34,17.43-2.63,9.92-12.29,16.81-28.17,16.81-14.95,0-21.06-6.82-19.56-16.98h15.41Z"/><path class="cls-2" d="M181.9,140.13c-.32,4.6,2.46,6.54,7.58,6.54,4.79,0,7.44-1.64,8.25-4.71,.92-3.47-1.13-4.79-9.13-6.78-14.95-3.77-16.61-9.46-14.73-16.57,2.35-8.86,10.99-16.28,26.04-16.28s19.97,7.75,18.51,16.08h-15.3c.34-2.83-.38-5.72-6-5.72-3.63,0-6.21,1.34-6.97,4.19-.76,2.86,.93,3.97,8.73,5.97,15.58,4.06,17.33,9.92,15.34,17.43-2.63,9.92-12.29,16.81-28.17,16.81-14.95,0-21.06-6.82-19.56-16.98h15.41Z"/></g></g><g><path class="cls-1" d="M104.86,172.34v-2.6c0-.12,.05-.23,.14-.32,.09-.09,.21-.13,.34-.13h.54c.13,0,.24,.04,.34,.13,.1,.09,.14,.19,.14,.32v9.92c0,.13-.05,.24-.14,.32-.09,.08-.21,.13-.34,.13h-.54c-.13,0-.24-.04-.34-.13-.1-.08-.14-.19-.14-.32v-5.94h-.57c-.08,.37-.21,.71-.38,1.02-.18,.31-.39,.59-.64,.82-.26,.23-.55,.42-.87,.55-.32,.13-.66,.2-1.01,.2-.42,0-.82-.09-1.19-.26s-.68-.41-.95-.71-.48-.65-.63-1.06c-.15-.41-.23-.85-.23-1.32s.08-.88,.23-1.28c.15-.4,.36-.76,.63-1.06s.58-.54,.95-.72,.76-.27,1.19-.27c.35,0,.69,.07,1.02,.2s.62,.32,.87,.56c.26,.23,.48,.52,.65,.85,.18,.33,.3,.7,.37,1.09h.56Zm-3.47-1.24c-.21,0-.4,.05-.58,.15-.18,.1-.34,.23-.48,.4-.14,.17-.25,.37-.33,.59-.08,.23-.12,.46-.12,.72s.04,.51,.12,.74c.08,.23,.19,.43,.33,.6,.14,.17,.3,.3,.48,.39,.18,.09,.38,.14,.58,.14,.19,0,.38-.05,.56-.14s.34-.23,.48-.39c.14-.17,.25-.37,.33-.6,.08-.23,.12-.48,.12-.74s-.04-.49-.12-.72c-.08-.23-.19-.42-.33-.59s-.3-.3-.48-.4-.37-.15-.56-.15Zm6.32,9.35c-.13,0-.24-.04-.34-.13-.09-.08-.14-.19-.14-.32v-10.47c0-.12,.05-.23,.14-.32,.1-.09,.21-.13,.34-.13h.61c.13,0,.24,.04,.34,.13,.09,.09,.14,.19,.14,.32v10.47c0,.13-.05,.24-.14,.32-.1,.08-.21,.13-.34,.13h-.61Z"/><path class="cls-1" d="M117.42,176.39c0,.11-.04,.21-.12,.29-.08,.08-.18,.13-.28,.15-.28,.06-.59,.11-.93,.15-.35,.05-.69,.09-1.04,.13-.35,.03-.7,.05-1.04,.07-.34,.02-.63,.03-.89,.03h-2.06c-.13,0-.24-.04-.34-.13s-.14-.19-.14-.32v-6.67c0-.12,.05-.23,.14-.32s.21-.13,.34-.13h.66c.13,0,.24,.04,.34,.13s.14,.19,.14,.32v5.73h1.19c.54,0,1.12-.03,1.74-.09s1.2-.13,1.74-.22c.15-.02,.27,.02,.38,.11,.11,.09,.16,.2,.16,.34v.44Zm.52-4.34v-2.55c0-.12,.05-.23,.14-.32,.09-.09,.21-.13,.34-.13h.65c.13,0,.24,.04,.34,.13,.1,.09,.14,.19,.14,.32v10.39c0,.13-.05,.24-.14,.32-.09,.08-.21,.13-.34,.13h-.65c-.13,0-.24-.04-.34-.13-.1-.08-.14-.19-.14-.32v-6.45h-2.95c-.13,0-.24-.04-.34-.13-.1-.08-.14-.19-.14-.32v-.49c0-.12,.05-.23,.14-.32,.09-.09,.21-.13,.34-.13h2.95Z"/><path class="cls-1" d="M121.83,171.21c-.13,0-.24-.04-.34-.13-.1-.08-.14-.19-.14-.32v-.53c0-.12,.05-.23,.14-.32,.09-.09,.21-.13,.34-.13h5.25c.13,0,.24,.04,.34,.13,.1,.09,.14,.19,.14,.32v.53c0,.13-.05,.24-.14,.32-.09,.08-.21,.13-.34,.13h-1.84c0,.68,.07,1.27,.21,1.77,.14,.51,.32,.95,.56,1.34,.22,.38,.49,.72,.8,1.01s.64,.56,.99,.8c.12,.08,.19,.19,.21,.32,.02,.13-.02,.25-.12,.35l-.36,.44c-.08,.08-.17,.12-.29,.13-.12,0-.22-.01-.3-.07-.54-.38-1.02-.79-1.46-1.21-.44-.42-.78-.87-1.01-1.35-.18,.37-.5,.8-.94,1.3-.45,.5-.95,.95-1.52,1.34-.1,.06-.2,.08-.32,.08-.12,0-.22-.05-.29-.13l-.34-.38c-.11-.09-.16-.21-.16-.35,0-.14,.08-.25,.21-.34,.58-.44,1.03-.88,1.36-1.32s.57-.88,.74-1.31c.17-.42,.28-.84,.33-1.24,.05-.4,.08-.8,.1-1.18h-1.79Zm7.6,9.14c-.13,0-.24-.04-.34-.13-.09-.08-.14-.19-.14-.32v-10.39c0-.12,.05-.23,.14-.32,.1-.09,.21-.13,.34-.13h.65c.13,0,.24,.04,.34,.13s.14,.19,.14,.32v10.39c0,.13-.05,.24-.14,.32s-.21,.13-.34,.13h-.65Z"/><path class="cls-1" d="M138.23,176.17c-.08,.09-.17,.15-.29,.17-.12,.02-.23,0-.33-.06-.2-.11-.41-.26-.63-.44-.22-.18-.44-.38-.65-.6-.21-.22-.4-.44-.57-.66-.17-.23-.31-.45-.4-.66-.09,.19-.23,.4-.4,.64-.17,.24-.37,.48-.6,.73-.23,.24-.48,.48-.75,.71-.26,.23-.53,.43-.8,.61-.09,.06-.2,.08-.32,.07s-.21-.06-.27-.14l-.4-.45c-.1-.11-.15-.23-.14-.37,.01-.13,.08-.24,.21-.32,.85-.64,1.48-1.33,1.92-2.08,.43-.75,.66-1.7,.67-2.86v-.66c0-.12,.05-.23,.14-.32,.09-.09,.21-.13,.34-.13h.74c.13,0,.24,.04,.34,.13,.09,.09,.14,.2,.14,.32v.76c0,.63,.07,1.18,.19,1.65,.13,.47,.3,.88,.51,1.24,.21,.36,.45,.67,.72,.93,.27,.26,.55,.49,.85,.69,.12,.08,.19,.18,.21,.3,.02,.13-.01,.25-.09,.36l-.34,.45Zm-3.62,2.24c0-.12,.05-.23,.14-.32,.09-.09,.21-.13,.34-.13h.65c.13,0,.24,.04,.34,.13,.09,.09,.14,.19,.14,.32v2.32h5.14c.13,0,.24,.04,.34,.13,.09,.09,.14,.19,.14,.32v.51c0,.13-.05,.24-.14,.32-.1,.08-.21,.13-.34,.13h-6.27c-.13,0-.24-.04-.34-.13s-.14-.19-.14-.32v-3.28Zm5.83,.2c-.13,0-.24-.04-.34-.13-.09-.08-.14-.19-.14-.32v-8.66c0-.12,.05-.23,.14-.32,.1-.09,.21-.13,.34-.13h.63c.13,0,.24,.04,.34,.13,.09,.09,.14,.19,.14,.32v8.66c0,.13-.05,.24-.14,.32-.1,.08-.21,.13-.34,.13h-.63Z"/><path class="cls-1" d="M149.01,176.17c-.08,.09-.17,.15-.29,.17-.11,.02-.22,0-.32-.06-.22-.13-.45-.29-.69-.49-.23-.19-.45-.4-.65-.61-.21-.22-.39-.43-.55-.65-.16-.22-.28-.43-.37-.63-.29,.48-.65,.96-1.09,1.46-.44,.49-.92,.91-1.45,1.26-.09,.06-.19,.08-.31,.08-.12,0-.21-.05-.27-.13l-.43-.49c-.1-.1-.14-.22-.12-.34,.01-.13,.08-.23,.21-.32,.84-.62,1.47-1.31,1.9-2.08,.43-.77,.66-1.72,.69-2.88v-.66c0-.12,.05-.23,.14-.32,.09-.09,.21-.13,.34-.13h.75c.13,0,.24,.04,.34,.13,.09,.09,.14,.2,.14,.32v.76c0,.54,.06,1.03,.15,1.46s.22,.83,.39,1.18c.18,.36,.41,.69,.69,.99,.28,.3,.62,.59,1.02,.87,.12,.08,.19,.18,.21,.3,.02,.13-.01,.25-.09,.36l-.35,.45Zm-3.77,2.24c0-.12,.05-.23,.14-.32,.09-.09,.21-.13,.34-.13h.65c.13,0,.24,.04,.34,.13,.09,.09,.14,.19,.14,.32v2.32h5.01c.13,0,.24,.04,.34,.13,.1,.09,.14,.19,.14,.32v.51c0,.13-.05,.24-.14,.32-.09,.08-.21,.13-.34,.13h-6.14c-.13,0-.24-.04-.34-.13s-.14-.19-.14-.32v-3.28Zm6.9-5.73h1.27c.13,0,.24,.04,.34,.13,.1,.09,.14,.19,.14,.32v.52c0,.13-.05,.24-.14,.32s-.21,.13-.34,.13h-1.27v4.1c0,.13-.05,.24-.14,.32-.1,.08-.21,.13-.34,.13h-.63c-.13,0-.24-.04-.34-.13-.09-.08-.14-.19-.14-.32v-8.7c0-.12,.05-.23,.14-.32,.1-.09,.21-.13,.34-.13h.63c.13,0,.24,.04,.34,.13,.09,.09,.14,.19,.14,.32v3.18Z"/><path class="cls-1" d="M156.86,169.33c.42,0,.82,.09,1.21,.26,.38,.17,.71,.41,1,.7,.29,.29,.51,.63,.67,1.03,.16,.39,.25,.82,.25,1.27s-.08,.87-.25,1.27-.39,.74-.67,1.03c-.29,.29-.62,.52-1,.69-.38,.17-.78,.25-1.21,.25s-.85-.08-1.23-.25c-.38-.17-.71-.4-1-.69-.29-.29-.51-.63-.67-1.03-.16-.39-.24-.82-.24-1.27s.08-.87,.24-1.27c.16-.39,.38-.74,.67-1.03,.29-.29,.62-.52,1-.7,.38-.17,.79-.26,1.23-.26Zm0,1.45c-.41,0-.77,.18-1.07,.53-.3,.35-.45,.78-.45,1.27s.15,.93,.45,1.27c.3,.34,.66,.51,1.07,.51s.76-.17,1.06-.51c.3-.34,.45-.77,.45-1.27s-.15-.92-.45-1.27c-.3-.35-.66-.53-1.06-.53Zm-.31,6.43c0-.12,.05-.23,.14-.32,.1-.09,.21-.13,.34-.13h.65c.13,0,.24,.04,.34,.13,.09,.09,.14,.19,.14,.32v.9h3.68v-.9c0-.12,.05-.23,.14-.32,.09-.09,.21-.13,.34-.13h.65c.13,0,.24,.04,.34,.13,.09,.09,.14,.19,.14,.32v4.48c0,.13-.05,.24-.14,.32-.1,.08-.21,.13-.34,.13h-5.93c-.13,0-.24-.04-.34-.13s-.14-.19-.14-.32v-4.48Zm5.28,2.24h-3.68v1.34h3.68v-1.34Zm.14-7.6v-2.35c0-.12,.05-.23,.14-.32,.1-.09,.21-.13,.34-.13h.63c.13,0,.24,.04,.34,.13,.1,.09,.14,.19,.14,.32v6.26c0,.13-.05,.24-.14,.32-.09,.08-.21,.13-.34,.13h-.63c-.13,0-.24-.04-.34-.13-.09-.08-.14-.19-.14-.32v-2.51h-1.14c-.13,0-.24-.04-.34-.13s-.14-.19-.14-.32v-.51c0-.12,.05-.23,.14-.32,.09-.09,.21-.13,.34-.13h1.14Z"/></g></g></svg>