<svg xmlns="http://www.w3.org/2000/svg" width="313.532" height="246.057" viewBox="0 0 313.532 246.057">
  <g id="error_img" transform="translate(-2078 -198)">
    <rect id="사각형_9" data-name="사각형 9" width="313.532" height="246.057" rx="8" transform="translate(2078 198)" fill="#f8f5ed" opacity="0"/>
    <g id="그룹_30" data-name="그룹 30" transform="translate(-210.936 16.139)">
      <g id="그룹_29" data-name="그룹 29" transform="translate(2164.172 -128.578)">
        <path id="패스_34" data-name="패스 34" d="M366.435,344.58a6.142,6.142,0,0,0-6.142-6.141H255.078a6.142,6.142,0,0,0-6.142,6.141v13.333h117.5Z" fill="#fff" stroke="#1a1a1a" stroke-linecap="round" stroke-linejoin="round" stroke-width="3"/>
        <path id="패스_35" data-name="패스 35" d="M248.936,363.386v65.589a6.142,6.142,0,0,0,6.142,6.141H360.293a6.142,6.142,0,0,0,6.142-6.141V363.386Z" transform="translate(0 -5.472)" fill="rgba(125,206,201,0)" stroke="#1a1a1a" stroke-linecap="round" stroke-linejoin="round" stroke-width="3"/>
        <circle id="타원_3" data-name="타원 3" cx="0.974" cy="0.974" r="0.974" transform="translate(329.919 347.203)" fill="none" stroke="#1a1a1a" stroke-linecap="round" stroke-linejoin="round" stroke-width="3"/>
        <circle id="타원_4" data-name="타원 4" cx="0.974" cy="0.974" r="0.974" transform="translate(341.604 347.203)" fill="none" stroke="#1a1a1a" stroke-linecap="round" stroke-linejoin="round" stroke-width="3"/>
        <path id="패스_36" data-name="패스 36" d="M384.561,350.639a.974.974,0,1,1-.973-.974A.974.974,0,0,1,384.561,350.639Z" transform="translate(-29.324 -2.463)" fill="none" stroke="#1a1a1a" stroke-linecap="round" stroke-linejoin="round" stroke-width="3"/>
        <rect id="사각형_15" data-name="사각형 15" width="19.308" height="3.465" transform="translate(259.838 368.549)" fill="#1a1a1a"/>
        <rect id="사각형_16" data-name="사각형 16" width="43.566" height="3.465" transform="translate(285.086 368.549)" fill="#dbdbdb"/>
        <rect id="사각형_17" data-name="사각형 17" width="43.566" height="3.465" transform="translate(269.492 404.69)" fill="#fff"/>
        <rect id="사각형_18" data-name="사각형 18" width="30.447" height="3.465" transform="translate(317.266 404.69)" fill="#dbdbdb"/>
        <rect id="사각형_19" data-name="사각형 19" width="30.447" height="3.466" transform="translate(269.492 412.363)" fill="#fff"/>
        <rect id="사각형_20" data-name="사각형 20" width="30.447" height="3.466" transform="translate(304.642 412.363)" fill="#1a1a1a"/>
        <rect id="사각형_21" data-name="사각형 21" width="43.566" height="3.465" transform="translate(269.492 377.708)" fill="#dbdbdb"/>
        <rect id="사각형_22" data-name="사각형 22" width="43.566" height="3.465" transform="translate(269.492 385.933)" fill="#1a1a1a"/>
        <rect id="사각형_23" data-name="사각형 23" width="43.566" height="3.465" transform="translate(259.838 395.587)" fill="#1a1a1a"/>
      </g>
      <g id="그룹_26" data-name="그룹 26" transform="translate(2091 -55.368)">
        <path id="패스_34-2" data-name="패스 34" d="M399.453,346.306a7.868,7.868,0,0,0-7.868-7.867H256.8a7.868,7.868,0,0,0-7.868,7.867v17.08H399.453Z" fill="#fff" stroke="#1a1a1a" stroke-linecap="round" stroke-linejoin="round" stroke-width="3"/>
        <path id="패스_35-2" data-name="패스 35" d="M248.936,363.386v84.02a7.868,7.868,0,0,0,7.868,7.867H391.585a7.868,7.868,0,0,0,7.868-7.867v-84.02Z" fill="rgba(125,206,201,0)" stroke="#1a1a1a" stroke-linecap="round" stroke-linejoin="round" stroke-width="3"/>
        <circle id="타원_3-2" data-name="타원 3" cx="1.247" cy="1.247" r="1.247" transform="translate(352.676 349.665)" fill="none" stroke="#1a1a1a" stroke-linecap="round" stroke-linejoin="round" stroke-width="3"/>
        <circle id="타원_4-2" data-name="타원 4" cx="1.247" cy="1.247" r="1.247" transform="translate(367.645 349.665)" fill="none" stroke="#1a1a1a" stroke-linecap="round" stroke-linejoin="round" stroke-width="3"/>
        <path id="패스_36-2" data-name="패스 36" d="M385.108,350.913a1.247,1.247,0,1,1-1.247-1.248A1.247,1.247,0,0,1,385.108,350.913Z" fill="none" stroke="#1a1a1a" stroke-linecap="round" stroke-linejoin="round" stroke-width="3"/>
      </g>
      <line id="선_17" data-name="선 17" x2="42.465" transform="translate(2482.585 399.905)" fill="#fff" stroke="#1a1a1a" stroke-linecap="round" stroke-linejoin="round" stroke-width="3"/>
      <line id="선_18" data-name="선 18" x2="42.465" transform="translate(2509.375 390.632)" fill="#fff" stroke="#1a1a1a" stroke-linecap="round" stroke-linejoin="round" stroke-width="3"/>
      <line id="선_19" data-name="선 19" x2="35.367" transform="translate(2364.5 271.632)" fill="#fff" stroke="#1a1a1a" stroke-linecap="round" stroke-linejoin="round" stroke-width="3"/>
      <line id="선_20" data-name="선 20" x2="29.951" transform="translate(2383.107 263.382)" fill="#fff" stroke="#1a1a1a" stroke-linecap="round" stroke-linejoin="round" stroke-width="3"/>
      <line id="선_21" data-name="선 21" x2="6.29" transform="translate(2370.768 263.382)" fill="#fff" stroke="#1a1a1a" stroke-linecap="round" stroke-linejoin="round" stroke-width="3"/>
      <g id="그룹_28" data-name="그룹 28" transform="translate(-479.891 -96.873)">
        <path id="패스_48" data-name="패스 48" d="M77.755,17.408a3.2,3.2,0,0,1,5.474,0l24.8,41a3.2,3.2,0,0,1-2.737,4.854H55.695a3.2,3.2,0,0,1-2.737-4.854Z" transform="translate(2814.594 408.498)" fill="#f9d43c"/>
        <path id="패스_49" data-name="패스 49" d="M70.475,28V39.195m0,6.4h.016" transform="translate(2825.371 415.77)" fill="none" stroke="#fff" stroke-linecap="round" stroke-linejoin="round" stroke-width="4"/>
      </g>
    </g>
  </g>
</svg>
