<svg xmlns="http://www.w3.org/2000/svg" width="24.661" height="24.661" viewBox="0 0 24.661 24.661">
  <path id="face-frown" d="M17.863,17.863A6.118,6.118,0,0,0,13.331,15.6,6.118,6.118,0,0,0,8.8,17.863M16.73,9.931h.011m-6.81,0h.011m14.719,3.4A11.331,11.331,0,1,1,13.331,2,11.331,11.331,0,0,1,24.661,13.331ZM17.3,9.931a.567.567,0,1,1-.567-.567A.567.567,0,0,1,17.3,9.931Zm-6.8,0a.567.567,0,1,1-.567-.567A.567.567,0,0,1,10.5,9.931Z" transform="translate(-1 -1)" fill="none" stroke="#333" stroke-linecap="round" stroke-linejoin="round" stroke-width="2"/>
</svg>
