<svg xmlns="http://www.w3.org/2000/svg" width="16.5" height="14.5" viewBox="0 0 16.5 14.5">
  <path id="graduation-hat-01" d="M4.25,8.536v4.645a1.777,1.777,0,0,0,.041.539.776.776,0,0,0,.173.289,1.666,1.666,0,0,0,.449.279l4.05,2.086a1.6,1.6,0,0,0,.4.172.73.73,0,0,0,.277,0,1.6,1.6,0,0,0,.4-.172l4.05-2.086a1.666,1.666,0,0,0,.449-.279.776.776,0,0,0,.173-.289,1.775,1.775,0,0,0,.041-.539V8.536M2,7.377,9.232,3.652a.8.8,0,0,1,.2-.086.364.364,0,0,1,.138,0,.8.8,0,0,1,.2.086L17,7.377,9.768,11.1a.8.8,0,0,1-.2.086.365.365,0,0,1-.138,0,.8.8,0,0,1-.2-.086Z" transform="translate(-1.25 -2.809)" fill="none" stroke="#fff" stroke-linecap="round" stroke-linejoin="round" stroke-width="1.5"/>
</svg>
