<svg id="레이어_1" data-name="레이어 1" xmlns="http://www.w3.org/2000/svg" viewBox="0 0 20.03 20.03"><defs><style>.cls-1{fill:none;stroke:#fff;stroke-linecap:round;stroke-linejoin:round;stroke-width:2px;}</style></defs><g id="grid-01"><path id="패스_173" data-name="패스 173" class="cls-1" d="M6.4,1H2.6a2.48,2.48,0,0,0-1,.11.94.94,0,0,0-.44.44A2.48,2.48,0,0,0,1,2.6V6.4a2.48,2.48,0,0,0,.11,1,.94.94,0,0,0,.44.44A2.48,2.48,0,0,0,2.6,8H6.4a2.48,2.48,0,0,0,1-.11.94.94,0,0,0,.44-.44A2.48,2.48,0,0,0,8,6.4V2.6a2.48,2.48,0,0,0-.11-1,.94.94,0,0,0-.44-.44A2.48,2.48,0,0,0,6.4,1Z" transform="translate(0.02 0.02)"/><path id="패스_174" data-name="패스 174" class="cls-1" d="M17.4,1H13.6a2.48,2.48,0,0,0-1,.11.94.94,0,0,0-.44.44A2.48,2.48,0,0,0,12,2.6V6.4a2.48,2.48,0,0,0,.11,1,.94.94,0,0,0,.44.44,2.48,2.48,0,0,0,1,.11h3.8a2.48,2.48,0,0,0,1.05-.11.94.94,0,0,0,.44-.44,2.48,2.48,0,0,0,.11-1V2.6a2.48,2.48,0,0,0-.11-1,.94.94,0,0,0-.44-.44A2.48,2.48,0,0,0,17.4,1Z" transform="translate(0.02 0.02)"/><path id="패스_175" data-name="패스 175" class="cls-1" d="M17.4,12H13.6a2.48,2.48,0,0,0-1,.11.94.94,0,0,0-.44.44,2.48,2.48,0,0,0-.11,1v3.8a2.48,2.48,0,0,0,.11,1.05.94.94,0,0,0,.44.44,2.48,2.48,0,0,0,1,.11h3.8a2.48,2.48,0,0,0,1.05-.11.94.94,0,0,0,.44-.44A2.48,2.48,0,0,0,19,17.4V13.6a2.48,2.48,0,0,0-.11-1,.94.94,0,0,0-.44-.44A2.48,2.48,0,0,0,17.4,12Z" transform="translate(0.02 0.02)"/><path id="패스_176" data-name="패스 176" class="cls-1" d="M6.4,12H2.6a2.48,2.48,0,0,0-1,.11.94.94,0,0,0-.44.44,2.48,2.48,0,0,0-.11,1v3.8a2.48,2.48,0,0,0,.11,1.05.94.94,0,0,0,.44.44A2.48,2.48,0,0,0,2.6,19H6.4a2.48,2.48,0,0,0,1-.11.94.94,0,0,0,.44-.44A2.48,2.48,0,0,0,8,17.4V13.6a2.48,2.48,0,0,0-.11-1,.94.94,0,0,0-.44-.44A2.48,2.48,0,0,0,6.4,12Z" transform="translate(0.02 0.02)"/></g></svg>