<svg xmlns="http://www.w3.org/2000/svg" width="10.5" height="10.928" viewBox="0 0 10.5 10.928">
  <path id="home-05" d="M8.823,2.557a1.358,1.358,0,0,0-.421-.27.583.583,0,0,0-.3,0,1.358,1.358,0,0,0-.421.27L3.721,5.634a2.532,2.532,0,0,0-.492.437,1.167,1.167,0,0,0-.186.379A2.532,2.532,0,0,0,3,7.107v4.22a2.9,2.9,0,0,0,.127,1.23,1.167,1.167,0,0,0,.51.51,2.9,2.9,0,0,0,1.23.127H6.033a.725.725,0,0,0,.307-.032.291.291,0,0,0,.127-.127.725.725,0,0,0,.032-.307V8.878a1.449,1.449,0,0,1,.064-.615.583.583,0,0,1,.255-.255,1.449,1.449,0,0,1,.615-.064H9.067a1.449,1.449,0,0,1,.615.064.583.583,0,0,1,.255.255A1.449,1.449,0,0,1,10,8.878v3.85a.725.725,0,0,0,.032.307.291.291,0,0,0,.127.127.725.725,0,0,0,.307.032h1.167a2.9,2.9,0,0,0,1.23-.127,1.166,1.166,0,0,0,.51-.51,2.9,2.9,0,0,0,.127-1.23V7.107a2.533,2.533,0,0,0-.043-.657,1.168,1.168,0,0,0-.186-.379,2.532,2.532,0,0,0-.492-.437Z" transform="translate(-3 -2.267)" fill="#fff"/>
</svg>
