<svg xmlns="http://www.w3.org/2000/svg" width="13.008" height="11.665" viewBox="0 0 13.008 11.665">
  <path id="triangle" d="M2.087,10.867,6.5,3.245c.244-.421.366-.632.525-.7a.537.537,0,0,1,.436,0c.159.071.281.281.525.7L12.4,10.867c.245.423.367.634.349.808a.537.537,0,0,1-.218.378c-.141.1-.385.1-.874.1H2.83c-.488,0-.733,0-.874-.1a.537.537,0,0,1-.218-.378C1.72,11.5,1.842,11.289,2.087,10.867Z" transform="translate(-0.739 -1.49)" fill="none" stroke="#fff" stroke-linecap="round" stroke-linejoin="round" stroke-width="2"/>
</svg>
