<svg width="24" height="24" viewBox="0 0 24 24" fill="none" xmlns="http://www.w3.org/2000/svg">
<path d="M13.5556 6.49884C13.5556 7.0818 13.083 7.55439 12.5 7.55439C11.917 7.55439 11.4444 7.0818 11.4444 6.49884C11.4444 5.91587 11.917 5.44328 12.5 5.44328C13.083 5.44328 13.5556 5.91587 13.5556 6.49884ZM13.5889 2.35505C12.9402 1.88165 12.0598 1.88165 11.4111 2.35505L3.57694 8.07189C2.54557 8.8245 3.07792 10.4571 4.3547 10.4571H4.58333V16.5792C3.64345 17.0597 3 18.0375 3 19.1655V20.7488C3 21.186 3.35445 21.5405 3.79167 21.5405H21.2083C21.6455 21.5405 22 21.186 22 20.7488V19.1655C22 18.0375 21.3565 17.0597 20.4167 16.5792V10.4571H20.6453C21.9221 10.4571 22.4544 8.82451 21.423 8.07189L13.5889 2.35505ZM12.3444 3.63405C12.4371 3.56642 12.5629 3.56642 12.6556 3.63405L19.836 8.87384H5.164L12.3444 3.63405ZM18.8333 10.4571V16.2627H16.7222V10.4571H18.8333ZM15.1389 10.4571V16.2627H13.2917V10.4571H15.1389ZM11.7083 10.4571V16.2627H9.86111V10.4571H11.7083ZM5.90278 17.846H19.0972C19.826 17.846 20.4167 18.4368 20.4167 19.1655V19.9571H4.58333V19.1655C4.58333 18.4368 5.17406 17.846 5.90278 17.846ZM6.16667 16.2627V10.4571H8.27778V16.2627H6.16667Z" fill="white"/>
</svg>
