<svg width="24" height="24" viewBox="0 0 24 24" fill="none" xmlns="http://www.w3.org/2000/svg">
<path d="M12.5108 2C13.2557 2.00858 13.9976 2.09464 14.7245 2.25677C15.0418 2.32755 15.2792 2.59212 15.3152 2.91527L15.4879 4.46464C15.5662 5.17604 16.1668 5.71485 16.8828 5.7156C17.0753 5.71591 17.2657 5.67582 17.4436 5.59713L18.8648 4.97278C19.1604 4.84292 19.5058 4.91372 19.7264 5.14941C20.7536 6.24638 21.5185 7.56202 21.9638 8.99732C22.0598 9.30682 21.9493 9.64316 21.6885 9.83542L20.4287 10.764C20.0692 11.0281 19.857 11.4474 19.857 11.8933C19.857 12.3392 20.0692 12.7585 20.4295 13.0232L21.6903 13.9521C21.9512 14.1443 22.0618 14.4807 21.9658 14.7903C21.5207 16.2253 20.7562 17.5409 19.7297 18.638C19.5093 18.8736 19.1642 18.9447 18.8686 18.8151L17.4415 18.1899C17.0332 18.0112 16.5644 18.0374 16.1785 18.2604C15.7927 18.4834 15.5359 18.8766 15.4869 19.3195L15.3153 20.8687C15.2799 21.1882 15.0477 21.451 14.735 21.5254C13.2652 21.8751 11.7338 21.8751 10.264 21.5254C9.95133 21.451 9.7191 21.1882 9.68371 20.8687L9.5124 19.3218C9.46208 18.8797 9.20491 18.4877 8.81938 18.2655C8.43387 18.0433 7.96575 18.0172 7.55884 18.1949L6.13145 18.8202C5.8358 18.9497 5.49059 18.8787 5.27014 18.6429C4.24305 17.5445 3.4785 16.2274 3.03405 14.7908C2.93832 14.4814 3.04892 14.1452 3.30971 13.9531L4.57138 13.0236C4.93074 12.7595 5.14298 12.3402 5.14298 11.8944C5.14298 11.4484 4.93074 11.0291 4.5709 10.7647L3.31002 9.83679C3.04886 9.6446 2.93815 9.30803 3.03422 8.99833C3.47944 7.56303 4.24439 6.24739 5.27151 5.15043C5.49218 4.91474 5.83755 4.84394 6.13315 4.9738L7.55419 5.59803C7.96307 5.77748 8.43315 5.75038 8.82075 5.52393C9.20668 5.30007 9.46362 4.90648 9.51322 4.46346L9.6858 2.91527C9.72184 2.59196 9.9594 2.3273 10.277 2.25667C11.0048 2.0948 11.7475 2.00878 12.5108 2ZM12.511 3.52203C12.0502 3.52745 11.5909 3.56722 11.1365 3.64088L11.0259 4.63245C10.9226 5.55537 10.3878 6.37462 9.58654 6.83939C8.78037 7.31038 7.79747 7.36706 6.94225 6.99175L6.03071 6.59132C5.45034 7.29573 4.9884 8.08989 4.66305 8.94262L5.47262 9.53839C6.22233 10.0892 6.66511 10.964 6.66511 11.8944C6.66511 12.8246 6.22233 13.6994 5.47341 14.2496L4.66258 14.847C4.98764 15.7012 5.44965 16.4969 6.03041 17.2026L6.9489 16.8003C7.79936 16.429 8.77557 16.4833 9.57955 16.9467C10.3835 17.4102 10.9198 18.2276 11.025 19.152L11.1356 20.1504C12.0384 20.3039 12.9607 20.3039 13.8634 20.1504L13.974 19.1521C14.0763 18.228 14.612 17.4077 15.4169 16.9426C16.2218 16.4773 17.2 16.4227 18.052 16.7956L18.9697 17.1977C19.55 16.493 20.0118 15.6987 20.3371 14.8458L19.5274 14.2492C18.7777 13.6984 18.3349 12.8236 18.3349 11.8933C18.3349 10.963 18.7777 10.0882 19.5264 9.53807L20.3351 8.94202C20.0098 8.08914 19.5477 7.29482 18.9673 6.5903L18.0576 6.98992C17.6869 7.15395 17.2859 7.23836 16.8809 7.23773C15.3895 7.23617 14.1378 6.11336 13.975 4.6321L13.8645 3.64055C13.4124 3.56698 12.9577 3.52733 12.511 3.52203ZM12.4981 8.08847C14.5998 8.08847 16.3035 9.79217 16.3035 11.8939C16.3035 13.9954 14.5998 15.6992 12.4981 15.6992C10.3965 15.6992 8.69282 13.9954 8.69282 11.8939C8.69282 9.79217 10.3965 8.08847 12.4981 8.08847ZM12.4981 9.6106C11.2372 9.6106 10.215 10.6328 10.215 11.8939C10.215 13.1548 11.2372 14.177 12.4981 14.177C13.7591 14.177 14.7813 13.1548 14.7813 11.8939C14.7813 10.6328 13.7591 9.6106 12.4981 9.6106Z" fill="white"/>
</svg>
