<svg xmlns="http://www.w3.org/2000/svg" xmlns:xlink="http://www.w3.org/1999/xlink" width="32" height="32" viewBox="0 0 32 32">
  <defs>
    <clipPath id="clip-아트보드_1">
      <rect width="32" height="32"/>
    </clipPath>
  </defs>
  <g id="아트보드_1" data-name="아트보드 – 1" clip-path="url(#clip-아트보드_1)">
    <g id="settings-01" transform="translate(5 5)">
      <path id="패스_255" data-name="패스 255" d="M12,15a3,3,0,1,0-3-3A3,3,0,0,0,12,15Z" transform="translate(-1 -1)" fill="none" stroke="#fff" stroke-linecap="round" stroke-linejoin="round" stroke-width="1.5"/>
      <path id="패스_256" data-name="패스 256" d="M17.055,13.455a1.35,1.35,0,0,0,.27,1.489l.049.049a1.637,1.637,0,1,1-2.315,2.315l-.049-.049a1.359,1.359,0,0,0-2.307.966v.139a1.636,1.636,0,0,1-3.273,0V18.29a1.4,1.4,0,0,0-2.373-.965l-.049.049a1.637,1.637,0,1,1-2.315-2.315l.049-.049A1.359,1.359,0,0,0,3.775,12.7H3.636a1.636,1.636,0,0,1,0-3.273H3.71a1.4,1.4,0,0,0,.965-2.373l-.049-.049A1.637,1.637,0,1,1,6.942,4.692l.049.049a1.35,1.35,0,0,0,1.489.27h.065a1.35,1.35,0,0,0,.818-1.235V3.636a1.636,1.636,0,0,1,3.273,0V3.71a1.359,1.359,0,0,0,2.307.965l.049-.049a1.637,1.637,0,1,1,2.315,2.315l-.049.049a1.35,1.35,0,0,0-.27,1.489v.065a1.35,1.35,0,0,0,1.236.818h.139a1.636,1.636,0,0,1,0,3.273H18.29a1.35,1.35,0,0,0-1.235.818Z" fill="none" stroke="#fff" stroke-linecap="round" stroke-linejoin="round" stroke-width="1.5"/>
    </g>
  </g>
</svg>
