<svg width="40" height="40" viewBox="0 0 40 40" fill="none" xmlns="http://www.w3.org/2000/svg">
<path d="M17.413 7.9045C19.2942 6.6985 21.7057 6.6985 23.587 7.9045L35.4904 15.5349C35.8065 15.7375 35.9984 16.0866 36 16.4622C36.0016 16.8377 35.8128 17.1884 35.4984 17.3939L30.8333 20.4416V28.6454C30.8333 28.885 30.7557 29.1181 30.6119 29.3097L30.6103 29.3119L30.6085 29.3142L30.6039 29.3202L30.5918 29.3359C30.5855 29.3441 30.5778 29.3538 30.5689 29.3649C30.5645 29.3705 30.5596 29.3765 30.5545 29.3829C30.5239 29.4207 30.4818 29.4715 30.4278 29.533C30.3199 29.6564 30.1645 29.824 29.9596 30.0208C29.5498 30.4142 28.9403 30.926 28.1152 31.4336C26.4578 32.4535 23.9524 33.443 20.5 33.443C17.0476 33.443 14.5422 32.4535 12.8848 31.4336C12.0597 30.926 11.4502 30.4142 11.0405 30.0208C10.8355 29.824 10.6801 29.6564 10.5721 29.533C10.5092 29.4611 10.4473 29.3882 10.3897 29.3119C10.3874 29.3089 10.3881 29.3097 10.3881 29.3097C10.2444 29.1181 10.1667 28.885 10.1667 28.6454V20.4416L7.21428 18.5128V26.4311C7.21428 27.0427 6.7186 27.5382 6.10714 27.5382C5.49569 27.5382 5 27.0427 5 26.4311V16.4669C5 16.0676 5.21136 15.7177 5.5283 15.5229L17.413 7.9045ZM23.6286 25.1487C21.7277 26.3907 19.2722 26.3905 17.3713 25.1487L12.3809 21.8883V28.2303C12.4353 28.2871 12.4995 28.3521 12.5739 28.4234C12.885 28.722 13.3711 29.1328 14.0453 29.5478C15.3864 30.3731 17.4941 31.2287 20.5 31.2287C23.506 31.2287 25.6137 30.3731 26.9548 29.5478C27.629 29.1328 28.1151 28.722 28.4261 28.4234C28.5005 28.3521 28.5647 28.2871 28.619 28.2303V21.8883L23.6286 25.1487ZM22.392 9.76865C21.239 9.02949 19.761 9.02949 18.608 9.76865L8.14489 16.4758L18.5824 23.2949C19.7474 24.0561 21.2526 24.0561 22.4176 23.2949L32.8551 16.4758L22.392 9.76865Z" fill="white"/>
</svg>
