<svg width="40" height="40" viewBox="0 0 40 40" fill="none" xmlns="http://www.w3.org/2000/svg">
<path d="M30.2446 4C32.3156 4 33.9942 5.67872 33.9942 7.74952V30.2505C33.9942 32.3212 32.3156 34 30.2446 34H7.74952C5.67872 34 4 32.3212 4 30.2505V7.74952C4 5.67872 5.67872 4 7.74952 4H30.2446ZM30.2446 6.49968H7.74952C7.05926 6.49968 6.49968 7.05926 6.49968 7.74952V30.2505C6.49968 30.9407 7.05926 31.5003 7.74952 31.5003H30.2446C30.9349 31.5003 31.4945 30.9407 31.4945 30.2505V7.74952C31.4945 7.05926 30.9349 6.49968 30.2446 6.49968ZM12.7573 18.1655L15.3515 12.2478C15.7703 11.2925 17.0775 11.257 17.5734 12.1139L17.6564 12.285L21.6247 22.1948L23.2965 18.8558C23.482 18.4856 23.8363 18.2348 24.2391 18.1779L24.4142 18.1655H27.747C28.4372 18.1655 28.9968 18.7251 28.9968 19.4154C28.9968 20.0481 28.5265 20.571 27.9166 20.6539L27.747 20.6652H25.1861L22.6153 25.7995C22.1612 26.7066 20.899 26.7086 20.4181 25.8714L20.3374 25.7046L16.4441 15.9816L14.7188 19.9173C14.5445 20.3149 14.1788 20.5894 13.7576 20.6517L13.5741 20.6652H10.2492C9.55894 20.6652 8.99936 20.1058 8.99936 19.4154C8.99936 18.7826 9.46955 18.2597 10.0796 18.177L10.2492 18.1655H12.7573Z" fill="white"/>
</svg>
