<svg id="icon-table-list" xmlns="http://www.w3.org/2000/svg" width="32" height="32" viewBox="0 0 32 32">
  <g id="사각형_214" data-name="사각형 214" fill="#fff" stroke="#fff" stroke-width="1" opacity="0">
    <rect width="32" height="32" stroke="none"/>
    <rect x="0.5" y="0.5" width="31" height="31" fill="none"/>
  </g>
  <path id="list" d="M21,12H9M21,6H9M21,18H9M5,12a1,1,0,1,1-1-1A1,1,0,0,1,5,12ZM5,6A1,1,0,1,1,4,5,1,1,0,0,1,5,6ZM5,18a1,1,0,1,1-1-1A1,1,0,0,1,5,18Z" transform="translate(3.5 4.5)" fill="none" stroke="#fff" stroke-linecap="round" stroke-linejoin="round" stroke-width="2"/>
</svg>
