<svg width="40" height="40" viewBox="0 0 40 40" fill="none" xmlns="http://www.w3.org/2000/svg">
<path d="M5 8.75C5 6.67893 6.67893 5 8.75 5H24.5833C26.6543 5 28.3333 6.67893 28.3333 8.75V23.3333H35V29.5833C35 32.5748 32.5748 35 29.5833 35H10.4167C7.42512 35 5 32.5748 5 29.5833V8.75ZM28.3333 32.5H29.5833C31.1942 32.5 32.5 31.1942 32.5 29.5833V25.8333H28.3333V32.5ZM8.75 7.5C8.05965 7.5 7.5 8.05965 7.5 8.75V29.5833C7.5 31.1942 8.80583 32.5 10.4167 32.5H25.8333V8.75C25.8333 8.05965 25.2737 7.5 24.5833 7.5H8.75ZM12.0833 11.6667C11.393 11.6667 10.8333 12.2263 10.8333 12.9167C10.8333 13.607 11.393 14.1667 12.0833 14.1667H21.25C21.9403 14.1667 22.5 13.607 22.5 12.9167C22.5 12.2263 21.9403 11.6667 21.25 11.6667H12.0833ZM10.8333 19.5833C10.8333 18.893 11.393 18.3333 12.0833 18.3333H21.25C21.9403 18.3333 22.5 18.893 22.5 19.5833C22.5 20.2737 21.9403 20.8333 21.25 20.8333H12.0833C11.393 20.8333 10.8333 20.2737 10.8333 19.5833ZM12.0833 25C11.393 25 10.8333 25.5597 10.8333 26.25C10.8333 26.9403 11.393 27.5 12.0833 27.5H17.0833C17.7737 27.5 18.3333 26.9403 18.3333 26.25C18.3333 25.5597 17.7737 25 17.0833 25H12.0833Z" fill="white"/>
</svg>
