<svg id="icon-users" xmlns="http://www.w3.org/2000/svg" width="32" height="32" viewBox="0 0 32 32">
  <rect id="사각형_228" data-name="사각형 228" width="32" height="32" fill="#ff1313" opacity="0"/>
  <path id="users-01" d="M22,21V19a4,4,0,0,0-3-3.874M15.5,3.291a4,4,0,0,1,0,7.418M17,21a9.975,9.975,0,0,0-.3-3.531A4,4,0,0,0,14.531,15.3,9.975,9.975,0,0,0,11,15H8a9.975,9.975,0,0,0-3.531.3A4,4,0,0,0,2.3,17.469,9.975,9.975,0,0,0,2,21M13.5,7a4,4,0,1,1-4-4A4,4,0,0,1,13.5,7Z" transform="translate(4.5 4.5)" fill="none" stroke="#fff" stroke-linecap="round" stroke-linejoin="round" stroke-width="2"/>
</svg>
