<svg width="40" height="40" viewBox="0 0 40 40" fill="none" xmlns="http://www.w3.org/2000/svg">
<path d="M23.0336 6.39301C23.1667 6.22392 23.4147 6.20143 23.5763 6.34381L24.9578 7.5621L20.6075 13H23.4888L26.6472 9.05196L29.1255 11.2373C29.2779 11.3718 29.2956 11.6031 29.1653 11.759L28.1285 13H31.0448C31.7858 11.9184 31.6167 10.4342 30.6136 9.54976L25.0644 4.65624C23.9342 3.65958 22.1987 3.81694 21.2662 5.00064L14.9643 13H17.8287L23.0336 6.39301ZM25.875 23.5C25.2537 23.5 24.75 24.0037 24.75 24.625C24.75 25.2463 25.2537 25.75 25.875 25.75H28.875C29.4963 25.75 30 25.2463 30 24.625C30 24.0037 29.4963 23.5 28.875 23.5H25.875ZM8.25 13.375C8.25 12.7537 8.75368 12.25 9.375 12.25H14.0677L15.855 10H9.375C7.51104 10 6 11.511 6 13.375V29.125C6 31.8174 8.18261 34 10.875 34H28.875C31.5674 34 33.75 31.8174 33.75 29.125V19.375C33.75 16.6826 31.5674 14.5 28.875 14.5H9.375C8.75368 14.5 8.25 13.9963 8.25 13.375ZM8.25 29.125V16.558C8.60187 16.6823 8.98053 16.75 9.375 16.75H28.875C30.3248 16.75 31.5 17.9253 31.5 19.375V29.125C31.5 30.5748 30.3248 31.75 28.875 31.75H10.875C9.42525 31.75 8.25 30.5748 8.25 29.125Z" fill="white"/>
</svg>
