<svg width="40" height="40" viewBox="0 0 40 40" fill="none" xmlns="http://www.w3.org/2000/svg">
<path d="M16.413 7.9045C18.2942 6.6985 20.7057 6.6985 22.587 7.9045L34.4904 15.5349C34.8065 15.7375 34.9984 16.0866 35 16.4622C35.0016 16.8377 34.8128 17.1884 34.4984 17.3939L29.8333 20.4416V28.6454C29.8333 28.885 29.7557 29.1181 29.6119 29.3097L29.6103 29.3119L29.6085 29.3142L29.6039 29.3202L29.5918 29.3359C29.5855 29.3441 29.5778 29.3538 29.5689 29.3649C29.5645 29.3705 29.5596 29.3765 29.5545 29.3829C29.5239 29.4207 29.4818 29.4715 29.4278 29.533C29.3199 29.6564 29.1645 29.824 28.9596 30.0208C28.5498 30.4142 27.9403 30.926 27.1152 31.4336C25.4578 32.4535 22.9524 33.443 19.5 33.443C16.0476 33.443 13.5422 32.4535 11.8848 31.4336C11.0597 30.926 10.4502 30.4142 10.0405 30.0208C9.8355 29.824 9.68005 29.6564 9.57214 29.533C9.5092 29.4611 9.44729 29.3882 9.38967 29.3119C9.38744 29.3089 9.38809 29.3097 9.38809 29.3097C9.24436 29.1181 9.16667 28.885 9.16667 28.6454V20.4416L6.21428 18.5128V26.4311C6.21428 27.0427 5.7186 27.5382 5.10714 27.5382C4.49569 27.5382 4 27.0427 4 26.4311V16.4669C4 16.0676 4.21136 15.7177 4.5283 15.5229L16.413 7.9045ZM22.6286 25.1487C20.7277 26.3907 18.2722 26.3905 16.3713 25.1487L11.3809 21.8883V28.2303C11.4353 28.2871 11.4995 28.3521 11.5739 28.4234C11.885 28.722 12.3711 29.1328 13.0453 29.5478C14.3864 30.3731 16.4941 31.2287 19.5 31.2287C22.506 31.2287 24.6137 30.3731 25.9548 29.5478C26.629 29.1328 27.1151 28.722 27.4261 28.4234C27.5005 28.3521 27.5647 28.2871 27.619 28.2303V21.8883L22.6286 25.1487ZM21.392 9.76865C20.239 9.02949 18.761 9.02949 17.608 9.76865L7.14489 16.4758L17.5824 23.2949C18.7474 24.0561 20.2526 24.0561 21.4176 23.2949L31.8551 16.4758L21.392 9.76865Z" fill="white"/>
</svg>
