<svg width="32" height="32" viewBox="0 0 32 32" fill="none" xmlns="http://www.w3.org/2000/svg">
<g clip-path="url(#clip0_1420_2260)">
<path d="M13 24.8261C13.6998 25.555 14.56 26.1107 15.5121 26.449C16.4643 26.7874 17.4822 26.8991 18.4851 26.7753C19.488 26.6515 20.4482 26.2956 21.2895 25.7359C22.1307 25.1761 22.8299 24.4279 23.3315 23.5507C23.8331 22.6734 24.1232 21.6914 24.1789 20.6824C24.2345 19.6735 24.0542 18.6654 23.6522 17.7383C23.2502 16.8113 22.6376 15.9907 21.863 15.3418C21.5915 15.1144 21.3028 14.9102 21 14.731" stroke="white" stroke-width="2" stroke-linecap="round" stroke-linejoin="round"/>
<path d="M18.5 10C19.8807 10 21 8.88071 21 7.5C21 6.11929 19.8807 5 18.5 5C17.1193 5 16 6.11929 16 7.5C16 8.88071 17.1193 10 18.5 10Z" stroke="white" stroke-width="2"/>
<path d="M17.5 13L16 20H10.5L6 27" stroke="white" stroke-width="2" stroke-linecap="round" stroke-linejoin="round"/>
<path d="M16.5 15L13.25 16.25L10 17.5" stroke="white" stroke-width="2" stroke-linecap="round" stroke-linejoin="round"/>
</g>
<defs>
<clipPath id="clip0_1420_2260">
<rect width="32" height="32" fill="white"/>
</clipPath>
</defs>
</svg>
