<svg id="icon-paper-text" xmlns="http://www.w3.org/2000/svg" width="32" height="32" viewBox="0 0 32 32">
  <rect id="사각형_776" data-name="사각형 776" width="32" height="32" fill="#ff1313" opacity="0"/>
  <g id="Group_2096" data-name="Group 2096" transform="translate(9 7)">
    <path id="패스_330" data-name="패스 330" d="M12.5,2.229V5.74a2.112,2.112,0,0,0,.093.9.85.85,0,0,0,.371.371,2.112,2.112,0,0,0,.9.093h3.511M17.6,8.79v6.13a6.335,6.335,0,0,1-.278,2.688,2.55,2.55,0,0,1-1.114,1.114A6.335,6.335,0,0,1,13.52,19H8.08a6.335,6.335,0,0,1-2.688-.278,2.55,2.55,0,0,1-1.114-1.114A6.335,6.335,0,0,1,4,14.92V6.08a6.335,6.335,0,0,1,.278-2.688A2.55,2.55,0,0,1,5.392,2.278,6.335,6.335,0,0,1,8.08,2h2.73a5.456,5.456,0,0,1,1.229.07,2.551,2.551,0,0,1,.737.305A5.459,5.459,0,0,1,13.7,3.2L16.4,5.9a5.453,5.453,0,0,1,.819.919,2.55,2.55,0,0,1,.305.737A5.455,5.455,0,0,1,17.6,8.79Z" transform="translate(-4 -2)" fill="none" stroke="#fff" stroke-linecap="round" stroke-linejoin="round" stroke-width="1.7"/>
    <path id="패스_331" data-name="패스 331" d="M9,13.064a1.768,1.768,0,0,1,.054-.626.709.709,0,0,1,.384-.384A1.768,1.768,0,0,1,10.064,12h3.546a1.768,1.768,0,0,1,.626.054.709.709,0,0,1,.384.384,1.768,1.768,0,0,1,.054.626m-3.9,4.609H12.9M11.836,12v5.673" transform="translate(-5.036 -3.909)" fill="none" stroke="#fff" stroke-linecap="round" stroke-linejoin="round" stroke-width="1.7"/>
  </g>
</svg>
