<svg width="40" height="40" viewBox="0 0 40 40" fill="none" xmlns="http://www.w3.org/2000/svg">
<path d="M33.2056 6.35022L33.4342 6.56594L33.6497 6.79449C35.5193 8.89402 35.4474 12.1136 33.4342 14.127L15.5524 32.0087C15.1388 32.4223 14.6243 32.7209 14.0599 32.8748L6.41664 34.9594C5.58013 35.1875 4.81258 34.4198 5.04073 33.5835L7.12524 25.9402C7.27917 25.3757 7.57773 24.8613 7.9914 24.4476L25.8731 6.56594C27.8865 4.55259 31.1061 4.48068 33.2056 6.35022ZM24.4245 11.184L9.57611 26.0324C9.43822 26.1703 9.3387 26.3416 9.2874 26.5299L7.71884 32.2812L13.4702 30.7126C13.6583 30.6613 13.8298 30.5618 13.9677 30.4239L28.8156 15.5751L24.4245 11.184ZM11.762 18.5633L9.52083 20.8044L6.1218 20.805C5.50292 20.805 5.00124 20.3033 5.00124 19.6845C5.00124 19.0656 5.50292 18.5639 6.1218 18.5639L11.762 18.5633ZM17.7382 12.587L15.4972 14.8281L6.1218 14.8287C5.50292 14.8287 5.00124 14.327 5.00124 13.7081C5.00124 13.0893 5.50292 12.5876 6.1218 12.5876L17.7382 12.587ZM27.4578 8.15065L26.0083 9.59877L30.3994 13.9914L31.8494 12.5423C33.0621 11.3296 33.0621 9.36337 31.8494 8.15065C30.6366 6.93795 28.6704 6.93795 27.4578 8.15065ZM23.7146 6.61063L21.4734 8.85173L6.1218 8.85238C5.50292 8.85238 5.00124 8.35069 5.00124 7.73182C5.00124 7.11295 5.50292 6.61126 6.1218 6.61126L23.7146 6.61063Z" fill="white"/>
</svg>
