<svg width="127" height="127" viewBox="0 0 127 127" fill="none" xmlns="http://www.w3.org/2000/svg">
<g clip-path="url(#clip0_666_1394)">
<path d="M63.0002 110.717C89.3518 110.717 110.717 89.3518 110.717 63.0002C110.717 36.6486 89.3518 15.2832 63.0002 15.2832C36.6486 15.2832 15.2832 36.643 15.2832 62.9946C15.2832 89.3462 36.6486 110.712 63.0002 110.712V110.717Z" fill="white" stroke="#221E1F"/>
<path d="M93.8957 84.875L99.6856 89.1254L99.2272 89.799L93.4316 85.5938L93.8957 84.875Z" fill="#221E1F"/>
<path d="M23.3429 50.2034C23.6655 50.2034 23.9202 49.9431 23.9202 49.6261C23.9202 49.3092 23.6599 49.0488 23.3429 49.0488C23.026 49.0488 22.7656 49.3092 22.7656 49.6261C22.7656 49.9431 23.026 50.2034 23.3429 50.2034Z" fill="#221E1F"/>
<path d="M36.9205 90.5798L36.2357 91.1967L35.8225 90.7439L31.2268 95.0566L30.5703 94.4058L35.0924 90.0874L34.6453 89.595L35.2962 88.9385L36.9205 90.5798Z" fill="#221E1F"/>
<path d="M102.708 49.8975C103.031 49.8975 103.285 49.6372 103.285 49.3203C103.285 49.0033 103.025 48.7373 102.708 48.7373C102.391 48.7373 102.131 48.9977 102.131 49.3203C102.131 49.6429 102.391 49.8975 102.708 49.8975Z" fill="#221E1F"/>
<path d="M107.728 56.0269L107.524 55.1553L105.424 55.5175H100.455V56.3891H103.325L100.659 57.255L100.863 58.1832L104.96 56.5419L107.728 56.0269Z" fill="#221E1F"/>
<path d="M101.938 61.9186V61.2564L108.187 61.0979L108.142 60.1811L101.837 60.2829V59.666H100.914L101.016 61.9752L101.938 61.9186Z" fill="#221E1F"/>
<path d="M100.965 64.9974L108.187 65.2012V64.3296L101.016 64.1768L100.965 64.9974Z" fill="#221E1F"/>
<path d="M19.5622 68.2694C19.5622 68.2694 21.2997 68.3599 21.8544 67.3751C21.8544 67.3751 22.5109 68.4957 24.3616 67.8788C24.3616 67.8788 25.1823 67.726 25.0974 66.3847L24.9729 65.4961L17.9096 65.9998L17.8926 66.945L21.0903 66.6846C21.0903 66.6846 21.4978 67.0242 20.7338 67.3185L18.5548 67.5109C18.5548 67.5109 17.9888 67.6185 17.9435 67.9128L18.0228 68.5467C18.0228 68.5467 18.6114 68.3712 19.5679 68.275L19.5622 68.2694ZM22.1996 66.5771L24.1239 66.4299C24.1862 67.0129 23.1844 67.1261 23.1844 67.1261C22.0185 67.2506 22.1996 66.5771 22.1996 66.5771Z" fill="#221E1F"/>
<path d="M74.9808 98.9219L75.2864 99.8614L74.3243 100.195L74.8336 101.746L75.7675 101.514L76.0335 102.487L75.1393 102.691L75.7222 105.119L76.69 104.927L76.9956 105.866L75.1166 106.398L73.1074 99.4539L74.9808 98.9219Z" fill="#221E1F"/>
<path d="M26.0023 72.0272L25.0401 72.248L24.7911 71.2575L23.2007 71.6311L23.3479 72.5819L22.3574 72.763L22.2386 71.8518L19.7653 72.2253L19.9068 73.1931L18.905 73.4252L18.5371 71.5122L25.6344 70.1143L26.0023 72.0272Z" fill="#221E1F"/>
<path d="M106.196 68.2751C106.196 68.2751 105.222 68.0204 103.734 68.6316C103.734 68.6316 102.353 69.5032 101.889 69.1467C101.889 69.1467 101.017 68.7901 101.838 68.5864L103.015 68.6373V67.9242L103.066 67.7714L101.425 67.7204C101.425 67.7204 100.4 67.6186 100.4 68.9995C100.4 68.9995 100.604 70.2277 102.551 70.2786C102.551 70.2786 104.04 70.1258 104.906 69.458C104.906 69.458 105.471 69.0505 106.547 69.3052C106.547 69.3052 107.113 69.7692 106.343 69.8711L105.013 69.6674L104.809 70.5899L106.4 70.8446C106.4 70.8446 107.888 70.9465 107.781 69.6164C107.781 69.6164 107.984 68.592 106.196 68.2864V68.2751Z" fill="#221E1F"/>
<path d="M102.76 73.8613C102.76 73.8613 102.557 72.5822 100.61 72.4803C100.61 72.4803 99.789 72.3275 99.3815 73.6066L99.1777 74.4782L105.941 76.5779L106.298 75.7063L103.224 74.7838C103.224 74.7838 102.97 74.3254 103.79 74.3254L105.89 74.9423C105.89 74.9423 106.456 75.0441 106.609 74.7895L106.762 74.1782C106.762 74.1782 106.15 74.1273 105.228 73.8669C105.228 73.8669 103.638 73.1481 102.766 73.8669L102.76 73.8613ZM102.143 74.4782L100.298 73.9179C100.451 73.3519 101.425 73.6122 101.425 73.6122C102.551 73.9179 102.143 74.4838 102.143 74.4838V74.4782Z" fill="#221E1F"/>
<path d="M103.631 79.9568L101.378 78.8815L101.785 78.0608L100.863 77.6533L100.455 78.5249L98.916 77.908L99.2725 76.9855L98.35 76.6289L97.5859 78.423L104.247 81.2359L105.011 79.4418L104.089 79.0852L103.631 79.9568Z" fill="#221E1F"/>
<path d="M96.2 81.3947L100.354 84.3661L95.7416 82.0569L95.2266 82.8266L101.786 85.9565L102.403 84.9264L96.5623 80.625L96.2 81.3947Z" fill="#221E1F"/>
<path d="M39.0418 92.3736L34.3782 97.8409L33.75 97.3315L38.3627 91.8643L39.0418 92.3736Z" fill="#221E1F"/>
<path d="M91.7907 87.6426L96.8165 92.7137L96.0468 93.5343L91.3322 89.9461L95.328 94.2531L94.9714 94.7116L89.8438 89.5386L90.7719 88.7179L94.9714 91.7911L91.2813 88.0557L91.7907 87.6426Z" fill="#221E1F"/>
<path d="M80.1781 96.7549L82.7986 103.399L81.7628 103.846L78.8481 98.6962L80.8233 104.226L80.314 104.509L77.6426 97.734L78.8141 97.3435L81.4629 101.826L79.5499 96.9303L80.1781 96.7549Z" fill="#221E1F"/>
<path d="M31.1754 83.8734L24.978 87.4107L24.3837 86.4542L29.07 82.8263L23.8743 85.5769L23.5234 85.1072L29.851 81.502L30.4 82.5999L26.342 85.8656L30.9094 83.2678L31.1754 83.8734Z" fill="#221E1F"/>
<path d="M47.6122 97.5245L44.6182 104.005L43.5825 103.575L45.2917 97.898L42.6599 103.15L42.0996 102.975L45.1559 96.3643L46.2482 96.9416L44.8389 101.956L47.0519 97.1906L47.6122 97.5245Z" fill="#221E1F"/>
<path d="M87.0819 92.0512L87.7497 91.5928L90.9758 95.8432C90.9758 95.8432 92.4133 97.4336 91.2361 98.2486C91.2361 98.2486 90.4664 99.1711 88.9835 97.2242L85.8594 93.1266L86.5782 92.5606L89.8551 96.8167C89.8551 96.8167 90.2683 97.4845 90.6248 97.2751C90.6248 97.2751 90.8795 97.1223 90.523 96.6073L87.0875 92.0456L87.0819 92.0512Z" fill="#221E1F"/>
<path d="M69.5602 100.247L68.332 100.399L69.3564 107.621L70.279 107.519L69.9224 104.752C69.9224 104.752 71.2524 104.752 71.0996 102.958C71.0996 102.958 71.3034 100.19 69.5602 100.241V100.247ZM69.713 103.529L69.4074 101.271C70.1771 101.016 70.1771 102.448 70.1771 102.448C70.279 103.32 69.7187 103.524 69.7187 103.524L69.713 103.529Z" fill="#221E1F"/>
<path d="M64.0758 100.608C63.3966 100.608 62.8477 101.163 62.8477 101.837V106.959C62.8477 107.638 63.3966 108.187 64.0758 108.187C64.755 108.187 65.304 107.638 65.304 106.959V101.837C65.304 101.157 64.755 100.608 64.0758 100.608ZM64.3305 106.761C64.3305 106.902 64.2173 107.015 64.0758 107.015C63.9343 107.015 63.8211 106.902 63.8211 106.761V101.944C63.8211 101.803 63.9343 101.689 64.0758 101.689C64.2173 101.689 64.3305 101.803 64.3305 101.944V106.761Z" fill="#221E1F"/>
<path d="M25.0002 61.9188C25.0002 61.2396 24.4569 60.6849 23.7777 60.6849L18.6557 60.668C17.9765 60.668 17.4219 61.2113 17.4219 61.8905C17.4219 62.5696 17.9652 63.1243 18.6444 63.1243L23.7664 63.1469C24.4456 63.1469 25.0002 62.6036 25.0002 61.9244V61.9188ZM18.8481 62.1508C18.7066 62.1508 18.5934 62.032 18.5934 61.8905C18.5934 61.749 18.7066 61.6358 18.8481 61.6358L23.6645 61.6584C23.806 61.6584 23.9192 61.7716 23.9192 61.9131C23.9192 62.0546 23.806 62.1678 23.6589 62.1678L18.8425 62.1508H18.8481Z" fill="#221E1F"/>
<path d="M42.0373 94.4231C41.4656 94.0552 40.7072 94.225 40.3394 94.7967L37.5774 99.115C37.2095 99.6866 37.3793 100.451 37.951 100.813C38.5226 101.175 39.281 101.011 39.6489 100.439L42.4108 96.121C42.7787 95.5494 42.6089 94.7853 42.0373 94.4231ZM38.9414 99.7432C38.8678 99.8621 38.7094 99.8961 38.5905 99.8225C38.4717 99.7432 38.4377 99.5904 38.5113 99.4716L41.1034 95.4136C41.1827 95.2947 41.3411 95.2608 41.46 95.34C41.5788 95.4136 41.6128 95.572 41.5392 95.6966L38.9471 99.7546L38.9414 99.7432Z" fill="#221E1F"/>
<path d="M54.9574 99.9922L55.8743 100.196L54.5443 106.19L55.6705 106.501L55.4159 107.576L53.418 107.061L54.9574 99.9922Z" fill="#221E1F"/>
<path d="M50.7524 98.8145L47.832 105.425L48.6527 105.68L49.3715 104.038L49.8299 104.248L49.4733 105.991L50.294 106.246L51.9353 99.2276L50.7581 98.8201L50.7524 98.8145ZM50.0846 103.065L49.728 102.963L50.8543 100.297L50.0846 103.065Z" fill="#221E1F"/>
<path d="M32.8508 85.9783L26.7949 89.9175L27.3439 90.5797L28.8381 89.5949L29.1097 90.0193L27.8589 91.2815L28.4023 91.9436L33.6092 86.9574L32.8452 85.9727L32.8508 85.9783ZM29.97 89.176L29.7267 88.8931L32.1264 87.28L29.97 89.176Z" fill="#221E1F"/>
<path d="M26.654 74.4492L19.6133 76.0622L19.8963 76.8716L21.6395 76.4697L21.7527 76.9621L20.1396 77.7149L20.4283 78.5242L27.0332 75.6378L26.6596 74.4492H26.654ZM22.845 76.4584L22.7091 76.1075L25.5164 75.417L22.8393 76.4584H22.845Z" fill="#221E1F"/>
<path d="M18.1121 55.7217L25.1867 56.6442L25.1358 57.5667L22.2154 57.2102L25.0339 58.3365L24.9773 59.2081L22.006 58.1327L17.8574 58.2346L17.9593 57.3121L21.5985 57.1027L18.0612 56.5933L18.1121 55.7217Z" fill="#221E1F"/>
<path d="M44.3518 60.198C40.7296 62.1109 46.876 63.7523 46.876 63.7523C50.9057 65.2521 59.2425 65.32 59.2425 65.32L50.0171 58.5566C46.7402 59.0321 44.3461 60.198 44.3461 60.198H44.3518Z" fill="#007DB6"/>
<path d="M63 26.7324C42.9703 26.7324 26.7383 42.9701 26.7383 62.9942C26.7383 83.0182 42.976 99.2616 63 99.2616C83.0241 99.2616 99.2618 83.0239 99.2618 62.9942C99.2618 42.9645 83.0241 26.7324 63 26.7324ZM62.5246 82.9447C62.5246 82.9447 58.0138 83.2899 53.6389 78.847C53.6389 78.847 50.3619 76.9341 50.0167 69.899C50.0167 69.899 36.971 68.603 31.9113 66.0052C31.9113 66.0052 25.9686 63.9563 28.9739 60.5435C28.9739 60.5435 30.8868 58.223 39.5632 56.5138C39.5632 56.5138 43.525 55.4894 49.8808 55.0083L49.9488 43.1229H59.3778L59.5137 68.1275C59.5137 68.1275 58.9647 74.9588 63.068 77.6924C63.068 77.6924 67.9183 81.3826 73.1139 78.1679C73.1139 78.1679 70.652 83.0182 62.5246 82.9503V82.9447ZM95.7924 65.2524C95.7924 65.2524 92.9908 67.4371 82.4694 69.0105C82.4694 69.0105 79.2604 69.418 76.5267 69.8311C76.5267 69.8311 76.9342 76.6624 69.8313 77.9641C69.8313 77.9641 64.5055 78.9206 61.5681 73.5892C61.5681 73.5892 64.3697 74.7494 66.011 72.5648C66.011 72.5648 66.8996 71.3366 66.8317 68.8067V65.4562C66.8317 65.4562 74.6194 65.1845 79.4019 63.7526C79.4019 63.7526 86.369 61.9075 81.7224 59.9266C81.7224 59.9266 81.2469 59.3776 76.5324 58.4891L76.4815 64.3469L66.8317 57.6005V43.1173H76.4645V54.8668C76.4645 54.8668 86.918 55.7554 93.0644 58.1495C93.0644 58.1495 102.833 60.8831 95.7981 65.2524H95.7924Z" fill="#007DB6"/>
<path d="M24.0954 45.5234C25.0689 46.095 26.3253 45.7724 26.9026 44.7933C27.4742 43.8198 27.1516 42.5577 26.1782 41.9861C25.4481 41.5559 24.5651 41.6295 23.9199 42.0993L25.1821 39.9486L24.2086 39.377L22.8559 41.6805L22.0183 41.1881L21.3957 42.2464L22.2333 42.7388L21.1523 44.5839L22.1258 45.1555L23.0993 43.4972C22.9974 44.2839 23.3653 45.0989 24.0954 45.5234ZM25.9008 44.2047C25.6518 44.6292 25.1085 44.7707 24.684 44.5216C24.2595 44.2726 24.118 43.7293 24.3671 43.3048C24.6161 42.8803 25.1594 42.7388 25.5839 42.9878C26.0084 43.2369 26.1499 43.7802 25.9008 44.2047Z" fill="#221E1F"/>
<path d="M25.2836 37.4805C25.2836 37.4805 24.6667 38.4993 25.6345 39.1105L29.2397 41.2329L29.8397 40.2142L26.6985 38.3691C26.6985 38.3691 26.1891 38.1767 26.4665 37.7069L26.9702 36.8523L25.9854 36.292L25.2836 37.4862V37.4805Z" fill="#221E1F"/>
<path d="M27.1402 46.4797L26.2347 45.9421L25.6348 46.9552L27.1516 47.8494C28.0741 48.138 28.5325 47.2947 28.5325 47.2947L32.0585 41.2954L31.0454 40.7012L27.7345 46.3326C27.5081 46.7118 27.1402 46.4741 27.1402 46.4741V46.4797Z" fill="#221E1F"/>
<path d="M32.268 29.381L27.7969 33.9314L28.5949 34.735L32.7321 30.5186C33.3264 29.8224 33.5641 30.3205 33.5641 30.3205L34.0226 30.7732L34.8489 29.9299L33.9773 29.0697C33.0717 28.3339 32.268 29.3753 32.268 29.3753V29.381Z" fill="#221E1F"/>
<path d="M30.2466 36.7779L35.1253 31.8087L35.7422 32.42L36.5572 31.588L35.1196 30.1787L29.4316 35.9743L30.2466 36.7779Z" fill="#221E1F"/>
<path d="M35.7764 32.8274L31.209 37.4797L32.007 38.2607L36.3084 33.8801C36.8461 33.2858 37.0724 33.7273 37.0724 33.7273L38.0686 34.7064L38.8836 33.8745L37.6384 32.652C36.597 31.6728 35.7707 32.8218 35.7707 32.8218L35.7764 32.8274Z" fill="#221E1F"/>
<path d="M42.5685 23.5288L43.8928 25.6795C43.525 25.7021 43.1627 25.8096 42.8232 26.0191C42.6307 26.1379 42.4609 26.2851 42.3138 26.4492V26.4379L40.4234 23.376L39.4613 23.9702L39.8631 24.6268L37.0106 26.3813L36.6258 25.753L35.5957 26.3869L37.0785 28.798C37.7521 29.6243 38.3293 29.1545 38.3293 29.1545L42.0138 26.885C41.6403 27.5811 41.6346 28.4471 42.0761 29.1715C42.7383 30.2469 44.1475 30.5864 45.2229 29.9243C46.2982 29.2621 46.6378 27.8528 45.97 26.7775C45.5511 26.0926 44.8267 25.7078 44.0796 25.6908L44.9172 25.1758L43.7627 23.3024C43.3948 22.7364 44.006 22.527 44.006 22.527L44.7588 22.0459L44.1645 21.0781L43.0269 21.7799C41.8101 22.527 42.5628 23.5401 42.5628 23.5401L42.5685 23.5288ZM40.8592 26.2398L38.4369 27.7283C38.4369 27.7283 38.069 28.0848 37.7917 27.6094L37.6162 27.2925L40.4404 25.555L40.8592 26.2398ZM44.6286 28.9451C44.0853 29.279 43.3721 29.1093 43.0382 28.5659C42.7043 28.0226 42.8741 27.3095 43.4174 26.9755C43.9608 26.6416 44.6739 26.8114 45.0078 27.3547C45.3417 27.8981 45.1719 28.6112 44.6286 28.9451Z" fill="#221E1F"/>
<path d="M50.8942 19.879C50.8942 19.879 52.196 20.6034 53.9052 20.0657L55.6484 19.5394L55.3088 18.4301L53.6562 18.9281C53.6562 18.9281 51.6187 19.4658 51.1206 18.4131L49.9321 18.7753C49.9321 18.7753 50.2094 19.8563 48.3474 20.5355L46.457 21.1241L46.791 22.239L48.8624 21.6052C48.8624 21.6052 50.3905 21.0109 50.8829 19.879H50.8942Z" fill="#221E1F"/>
<path d="M51.8049 20.6035L50.6164 20.9657L50.9616 22.0976L46.9941 23.2975L47.3337 24.4238L50.339 23.5125C50.0391 24.0559 49.9485 24.7181 50.1409 25.3576C50.5201 26.6141 51.8502 27.3272 53.1066 26.9423C54.3631 26.5631 55.0762 25.2331 54.6913 23.9766C54.4989 23.3314 54.0575 22.8334 53.5028 22.5504L56.4345 21.6618L56.0893 20.5186L52.1501 21.7128L51.8106 20.6035H51.8049ZM52.7953 25.8726C52.1728 26.0594 51.5163 25.7085 51.3295 25.0859C51.1371 24.4634 51.4936 23.8068 52.1105 23.6144C52.7331 23.422 53.3896 23.7785 53.582 24.4011C53.7688 25.0237 53.4179 25.6802 52.7953 25.8726Z" fill="#221E1F"/>
<path d="M86.8675 25.9234L85.5771 27.7628L82.9 25.8838C82.3284 25.5215 82.7755 25.1027 82.7755 25.1027L83.7886 23.6595L86.0015 25.2159L86.6694 24.2651L83.4943 22.0352L81.5247 24.8367C80.8399 26.0083 81.9039 26.5629 81.9039 26.5629L84.9262 28.6853L83.1038 31.2831L84.032 31.9283L87.524 26.9534C87.9315 26.3988 88.1692 26.6308 88.1692 26.6308L88.8767 27.1289L85.0054 32.6358L85.9223 33.281L90.4274 26.8629L88.4465 25.4706C87.3995 24.9669 86.8675 25.9177 86.8675 25.9177V25.9234Z" fill="#221E1F"/>
<path d="M91.4731 31.345C90.6468 32.126 90.6071 33.4277 91.3825 34.2597C92.1636 35.086 93.4653 35.1257 94.2973 34.3446C94.8236 33.8522 95.0274 33.1391 94.9085 32.4769L96.3291 33.9824L97.2007 33.1617L95.4122 31.2657L96.0405 30.6715L95.1972 29.7772L94.5689 30.3715L93.1484 28.8604L92.2711 29.664L93.3804 30.8413C92.7239 30.6828 92.0051 30.8413 91.4787 31.3393L91.4731 31.345ZM92.2371 33.456C91.9032 33.0995 91.9202 32.5392 92.2768 32.1996C92.6333 31.8657 93.1936 31.8826 93.5332 32.2392C93.8671 32.6014 93.8502 33.1617 93.4936 33.4957C93.137 33.8352 92.5767 33.8183 92.2371 33.4617V33.456Z" fill="#221E1F"/>
<path d="M97.0152 34.5027L94.1797 37.1741L94.9777 38.0174L97.3888 35.7422C97.7453 35.3856 97.9604 35.6346 97.9604 35.6346L98.832 36.5402L99.6809 35.7422L98.7301 34.7574C97.751 33.6933 97.0152 34.497 97.0152 34.497V34.5027Z" fill="#221E1F"/>
<path d="M93.834 37.3104L89.5552 32.7656L88.7402 33.5523L92.7247 37.7858C93.2171 38.2895 92.8265 38.4876 92.8265 38.4876L92.0625 39.212L92.8605 40.0553L93.9698 39.0083C94.8188 38.2103 93.834 37.3047 93.834 37.3047V37.3104Z" fill="#221E1F"/>
<path d="M103.049 44.3226L99.7441 46.377L100.418 47.4637L103.813 45.3526C105.387 44.3961 104.47 43.2416 104.47 43.2416L101.125 37.8535L100.084 38.4987L103.129 43.4C103.604 44.1018 103.049 44.3226 103.049 44.3226Z" fill="#221E1F"/>
<path d="M98.1758 45.7263L100.915 44.0227L100.242 42.9417L97.5023 44.6396L96.7043 43.3549L99.4379 41.6513L98.7701 40.5703L96.0308 42.2682L95.2045 40.9382L94.1348 41.6004L98.7814 49.0825L99.8511 48.4203L98.1758 45.7263Z" fill="#221E1F"/>
<path d="M79.6464 19.9315L78.002 25.0625L79.15 25.4304L80.7944 20.2994L79.6464 19.9315Z" fill="#221E1F"/>
<path d="M78.6365 26.6701L72.1448 24.5873L72.6881 22.8894L71.5392 22.5215L70.9959 24.2194C70.9959 24.2194 70.7921 24.7514 71.0129 25.1872C71.2336 25.623 71.7656 25.7588 71.7656 25.7588L78.2629 27.836L78.6365 26.6701Z" fill="#221E1F"/>
<path d="M75.7847 18.6274V18.6161L74.6471 18.2539V18.2652C74.6075 18.435 73.9962 20.7668 71.172 19.8613L70.8438 20.8857C70.8438 20.8857 72.7284 21.9214 74.4999 20.58L74.5678 20.4838V20.6027C75.23 22.7251 77.3637 22.9741 77.3637 22.9741L77.692 21.9497C74.8678 21.0441 75.7224 18.7972 75.7847 18.6331V18.6274Z" fill="#221E1F"/>
<path d="M67.6411 20.7837H63.5322V20.4102H67.1091V19.5047H59.9892V19.0349H67.1091V18.3388H59.9892V17.869H67.1091V17.1729H58.7837V19.5103C58.7837 19.5103 58.761 19.8612 59.0497 20.1555C59.3383 20.4442 59.9892 20.4215 59.9892 20.4215H62.3266V20.7951H58.3535V22.0176H60.8947C60.7136 22.3515 60.6117 22.7363 60.6117 23.1438C60.6117 24.4569 61.6758 25.5266 62.9945 25.5266C64.3132 25.5266 65.3716 24.4626 65.3716 23.1438C65.3716 22.7363 65.2697 22.3571 65.0886 22.0176H67.6354V20.7951L67.6411 20.7837ZM62.9832 24.2984C62.3436 24.2984 61.8286 23.7834 61.8286 23.1438C61.8286 22.5043 62.3436 21.9893 62.9832 21.9893C63.6227 21.9893 64.1377 22.5043 64.1377 23.1438C64.1377 23.7834 63.6227 24.2984 62.9832 24.2984Z" fill="#221E1F"/>
</g>
<defs>
<clipPath id="clip0_666_1394">
<rect width="96" height="96" fill="white" transform="translate(15 15)"/>
</clipPath>
</defs>
</svg>
