<svg width="32" height="32" viewBox="0 0 32 32" fill="none" xmlns="http://www.w3.org/2000/svg">
<g clip-path="url(#clip0_1411_2417)">
<path d="M22.6396 15.9646V11.1196C22.7413 10.214 22.6465 9.29719 22.3616 8.43161C22.1172 7.952 21.7272 7.56205 21.2476 7.31761C20.382 7.03269 19.4652 6.93787 18.5596 7.03961H13.1196C12.214 6.93787 11.2972 7.03269 10.4316 7.31761C9.952 7.56205 9.56205 7.952 9.31761 8.43161C9.03269 9.29719 8.93787 10.214 9.03961 11.1196V19.9596C8.93787 20.8652 9.03269 21.782 9.31761 22.6476C9.56205 23.1272 9.952 23.5172 10.4316 23.7616C11.2972 24.0465 12.214 24.1413 13.1196 24.0396H15.8396M17.5396 14.6896H12.4396M14.1396 18.0896H12.4396M19.2396 11.2896H12.4396M17.9646 21.4896L19.6646 23.1896L23.4896 19.3646" stroke="white" stroke-width="1.7" stroke-linecap="round" stroke-linejoin="round"/>
</g>
<defs>
<clipPath id="clip0_1411_2417">
<rect width="32" height="32" fill="white"/>
</clipPath>
</defs>
</svg>
