<svg width="40" height="40" viewBox="0 0 40 40" fill="none" xmlns="http://www.w3.org/2000/svg">
<path d="M11.3614 34.4461C10.7194 34.4461 10.199 33.9258 10.199 33.2838C10.199 32.6953 10.6363 32.209 11.2036 32.1321L11.3614 32.1214L14.0719 32.1208V28.2495L7.48696 28.25C5.64141 28.25 4.13074 26.8161 4.00804 25.0017L4 24.763V8.48696C4 6.64141 5.43378 5.13074 7.24822 5.00804L7.48696 5H31.5064C33.352 5 34.8627 6.43378 34.9853 8.24822L34.9934 8.48696V24.763C34.9934 25.3392 34.8536 25.8829 34.6061 26.3619L32.6687 24.2138V8.48696C32.6687 7.89852 32.2315 7.41222 31.6642 7.33526L31.5064 7.32464H7.48696C6.89852 7.32464 6.41222 7.76191 6.33526 8.32924L6.32464 8.48696V24.763C6.32464 25.3515 6.76191 25.8378 7.32924 25.9146L7.48696 25.9253H22.6015L22.6004 28.2495H16.395L16.3965 32.1214H22.5985L22.5973 34.4461H11.3614ZM24.8998 19.026C25.3487 18.8535 25.8575 18.9754 26.1796 19.3325L36.0438 30.2699C36.386 30.6493 36.4402 31.2078 36.1774 31.6461C35.9145 32.0844 35.3964 32.2995 34.9005 32.1764L29.4196 30.8154L26.2733 35.4869C25.9877 35.9109 25.4585 36.0986 24.9695 35.9492C24.4806 35.7998 24.1466 35.3483 24.1469 34.8371L24.1542 20.1103C24.1543 19.6294 24.4508 19.1983 24.8998 19.026Z" fill="white"/>
</svg>
