<svg width="40" height="40" viewBox="0 0 40 40" fill="none" xmlns="http://www.w3.org/2000/svg">
<path d="M29.5833 5C32.5748 5 35 7.42512 35 10.4167V29.5833C35 32.5748 32.5748 35 29.5833 35H10.4167C7.42512 35 5 32.5748 5 29.5833V10.4167C5 7.42512 7.42512 5 10.4167 5H29.5833ZM32.5 14.1667H7.5V29.5833C7.5 31.1942 8.80583 32.5 10.4167 32.5H29.5833C31.1942 32.5 32.5 31.1942 32.5 29.5833V14.1667ZM12.9167 24.1667C14.0673 24.1667 15 25.0993 15 26.25C15 27.4007 14.0673 28.3333 12.9167 28.3333C11.7661 28.3333 10.8333 27.4007 10.8333 26.25C10.8333 25.0993 11.7661 24.1667 12.9167 24.1667ZM20 24.1667C21.1507 24.1667 22.0833 25.0993 22.0833 26.25C22.0833 27.4007 21.1507 28.3333 20 28.3333C18.8493 28.3333 17.9167 27.4007 17.9167 26.25C17.9167 25.0993 18.8493 24.1667 20 24.1667ZM12.9167 17.5C14.0673 17.5 15 18.4327 15 19.5833C15 20.734 14.0673 21.6667 12.9167 21.6667C11.7661 21.6667 10.8333 20.734 10.8333 19.5833C10.8333 18.4327 11.7661 17.5 12.9167 17.5ZM20 17.5C21.1507 17.5 22.0833 18.4327 22.0833 19.5833C22.0833 20.734 21.1507 21.6667 20 21.6667C18.8493 21.6667 17.9167 20.734 17.9167 19.5833C17.9167 18.4327 18.8493 17.5 20 17.5ZM27.0833 17.5C28.234 17.5 29.1667 18.4327 29.1667 19.5833C29.1667 20.734 28.234 21.6667 27.0833 21.6667C25.9327 21.6667 25 20.734 25 19.5833C25 18.4327 25.9327 17.5 27.0833 17.5ZM29.5833 7.5H10.4167C8.80583 7.5 7.5 8.80583 7.5 10.4167V11.6667H32.5V10.4167C32.5 8.80583 31.1942 7.5 29.5833 7.5Z" fill="white"/>
</svg>
