<svg width="40" height="40" viewBox="0 0 40 40" fill="none" xmlns="http://www.w3.org/2000/svg">
<path d="M5 8.58333C5 6.05203 7.05203 4 9.58333 4H26.1908C27.6273 4 29.0052 4.57068 30.021 5.5865L33.4135 8.97907C34.4293 9.99488 35 11.3726 35 12.8092V29.4167C35 31.948 32.948 34 30.4167 34H9.58333C7.05203 34 5 31.948 5 29.4167V8.58333ZM9.58333 6.5C8.43273 6.5 7.5 7.43273 7.5 8.58333V29.4167C7.5 30.5673 8.43273 31.5 9.58333 31.5H10V22.75C10 20.679 11.6789 19 13.75 19H26.25C28.321 19 30 20.679 30 22.75V31.5H30.4167C31.5673 31.5 32.5 30.5673 32.5 29.4167V12.8092C32.5 12.0357 32.1927 11.2938 31.6457 10.7468L28.2532 7.35427C27.8197 6.92077 27.2637 6.63782 26.6667 6.53907V11.0833C26.6667 13.1544 24.9877 14.8333 22.9167 14.8333H15.4167C13.3456 14.8333 11.6667 13.1544 11.6667 11.0833V6.5H9.58333ZM27.5 31.5V22.75C27.5 22.0597 26.9403 21.5 26.25 21.5H13.75C13.0596 21.5 12.5 22.0597 12.5 22.75V31.5H27.5ZM14.1667 6.5V11.0833C14.1667 11.7737 14.7263 12.3333 15.4167 12.3333H22.9167C23.607 12.3333 24.1667 11.7737 24.1667 11.0833V6.5H14.1667Z" fill="white"/>
</svg>
