<svg width="40" height="40" viewBox="0 0 40 40" fill="none" xmlns="http://www.w3.org/2000/svg">
<path d="M7 8.75C7 6.67893 8.67893 5 10.75 5H26.5833C28.6543 5 30.3333 6.67893 30.3333 8.75V23.3333H37V29.5833C37 32.5748 34.5748 35 31.5833 35H12.4167C9.42512 35 7 32.5748 7 29.5833V8.75ZM30.3333 32.5H31.5833C33.1942 32.5 34.5 31.1942 34.5 29.5833V25.8333H30.3333V32.5ZM10.75 7.5C10.0596 7.5 9.5 8.05965 9.5 8.75V29.5833C9.5 31.1942 10.8058 32.5 12.4167 32.5H27.8333V8.75C27.8333 8.05965 27.2737 7.5 26.5833 7.5H10.75ZM14.0833 11.6667C13.393 11.6667 12.8333 12.2263 12.8333 12.9167C12.8333 13.607 13.393 14.1667 14.0833 14.1667H23.25C23.9403 14.1667 24.5 13.607 24.5 12.9167C24.5 12.2263 23.9403 11.6667 23.25 11.6667H14.0833ZM12.8333 19.5833C12.8333 18.893 13.393 18.3333 14.0833 18.3333H23.25C23.9403 18.3333 24.5 18.893 24.5 19.5833C24.5 20.2737 23.9403 20.8333 23.25 20.8333H14.0833C13.393 20.8333 12.8333 20.2737 12.8333 19.5833ZM14.0833 25C13.393 25 12.8333 25.5597 12.8333 26.25C12.8333 26.9403 13.393 27.5 14.0833 27.5H19.0833C19.7737 27.5 20.3333 26.9403 20.3333 26.25C20.3333 25.5597 19.7737 25 19.0833 25H14.0833Z" fill="white"/>
</svg>
