<svg width="40" height="40" viewBox="0 0 40 40" fill="none" xmlns="http://www.w3.org/2000/svg">
<path d="M9.5127 10.5127C9.6978 7.98956 11.8035 6 14.3739 6H27.8724C31.8071 6 34.9966 9.18961 34.9966 13.1242V22.1232C34.9966 24.6936 33.0071 26.7993 30.4839 26.9844C30.2988 29.5076 28.1931 31.4971 25.6227 31.4971H17.9986L12.4992 35.6216C11.2632 36.5485 9.49949 35.6668 9.49949 34.1218V31.4829C6.98261 31.2915 5 29.1886 5 26.6227V15.3739C5 12.8035 6.98956 10.6978 9.5127 10.5127ZM11.7758 10.4995H25.6227C28.3147 10.4995 30.4971 12.6818 30.4971 15.3739V24.7213C31.7691 24.5394 32.7469 23.4454 32.7469 22.1232V13.1242C32.7469 10.4321 30.5645 8.24975 27.8724 8.24975H14.3739C13.0517 8.24975 11.9578 9.22753 11.7758 10.4995ZM9.87445 29.2474H11.7492V33.3719L17.2487 29.2474H25.6227C27.0723 29.2474 28.2474 28.0723 28.2474 26.6227V15.3739C28.2474 13.9244 27.0723 12.7492 25.6227 12.7492H9.87445C8.42486 12.7492 7.24975 13.9244 7.24975 15.3739V26.6227C7.24975 28.0723 8.42486 29.2474 9.87445 29.2474Z" fill="white"/>
</svg>
