<svg id="icon-dubblebox-check" xmlns="http://www.w3.org/2000/svg" width="32" height="32" viewBox="0 0 32 32">
  <rect id="사각형_228" data-name="사각형 228" width="32" height="32" fill="#ff1313" opacity="0"/>
  <path id="check-done-01" d="M5.4,13.05l1.7,1.7,3.825-3.825M7.1,7.1V4.72a4.223,4.223,0,0,1,.185-1.792,1.7,1.7,0,0,1,.743-.743A4.223,4.223,0,0,1,9.82,2h6.46a4.223,4.223,0,0,1,1.792.185,1.7,1.7,0,0,1,.743.743A4.223,4.223,0,0,1,19,4.72v6.46a4.223,4.223,0,0,1-.185,1.792,1.7,1.7,0,0,1-.743.743,4.223,4.223,0,0,1-1.792.185H13.9M4.72,19h6.46a4.223,4.223,0,0,0,1.792-.185,1.7,1.7,0,0,0,.743-.743A4.223,4.223,0,0,0,13.9,16.28V9.82a4.223,4.223,0,0,0-.185-1.792,1.7,1.7,0,0,0-.743-.743A4.223,4.223,0,0,0,11.18,7.1H4.72a4.223,4.223,0,0,0-1.792.185,1.7,1.7,0,0,0-.743.743A4.223,4.223,0,0,0,2,9.82v6.46a4.223,4.223,0,0,0,.185,1.792,1.7,1.7,0,0,0,.743.743A4.223,4.223,0,0,0,4.72,19Z" transform="translate(5.5 5.5)" fill="none" stroke="#fff" stroke-linecap="round" stroke-linejoin="round" stroke-width="1.7"/>
</svg>
