<svg id="icon-square-play" xmlns="http://www.w3.org/2000/svg" width="40" height="40" viewBox="0 0 40 40">
  <rect id="사각형_177" data-name="사각형 177" width="40" height="40" fill="rgba(255,255,255,0)"/>
  <g id="그룹_1140" data-name="그룹 1140" transform="translate(8 8)">
    <rect id="사각형_227" data-name="사각형 227" width="24" height="24" fill="rgba(255,19,19,0)"/>
    <g id="play-square" transform="translate(3 3)">
      <path id="패스_323" data-name="패스 323" d="M9.5,8.965c0-.477,0-.716.1-.849a.5.5,0,0,1,.365-.2c.166-.012.367.117.768.375l4.721,3.035c.348.224.523.336.583.478a.5.5,0,0,1,0,.389c-.06.142-.234.254-.583.478l-4.721,3.035c-.4.258-.6.387-.768.375a.5.5,0,0,1-.365-.2c-.1-.133-.1-.372-.1-.849Z" transform="translate(-3 -3)" fill="none" stroke="#fff" stroke-linecap="round" stroke-linejoin="round" stroke-width="2"/>
      <path id="패스_324" data-name="패스 324" d="M3,7.8a7.453,7.453,0,0,1,.327-3.162A3,3,0,0,1,4.638,3.327,7.453,7.453,0,0,1,7.8,3h8.4a7.453,7.453,0,0,1,3.162.327,3,3,0,0,1,1.311,1.311A7.453,7.453,0,0,1,21,7.8v8.4a7.453,7.453,0,0,1-.327,3.162,3,3,0,0,1-1.311,1.311A7.453,7.453,0,0,1,16.2,21H7.8a7.453,7.453,0,0,1-3.162-.327,3,3,0,0,1-1.311-1.311A7.453,7.453,0,0,1,3,16.2Z" transform="translate(-3 -3)" fill="none" stroke="#fff" stroke-linecap="round" stroke-linejoin="round" stroke-width="2"/>
    </g>
  </g>
</svg>
