<svg width="40" height="40" viewBox="0 0 40 40" fill="none" xmlns="http://www.w3.org/2000/svg">
<path d="M20 10C21.3132 10 22.6136 10.2587 23.8268 10.7612C25.0401 11.2638 26.1425 12.0003 27.0711 12.9289C27.9997 13.8575 28.7362 14.9599 29.2388 16.1732C29.7413 17.3864 30 18.6868 30 20C30 22.6522 28.9464 25.1957 27.0711 27.0711C25.1957 28.9464 22.6522 30 20 30C18.6868 30 17.3864 29.7413 16.1732 29.2388C14.9599 28.7362 13.8575 27.9997 12.9289 27.0711C11.0536 25.1957 10 22.6522 10 20C10 17.3478 11.0536 14.8043 12.9289 12.9289C14.8043 11.0536 17.3478 10 20 10ZM20 12C17.8783 12 15.8434 12.8429 14.3431 14.3431C12.8429 15.8434 12 17.8783 12 20C12 22.1217 12.8429 24.1566 14.3431 25.6569C15.8434 27.1571 17.8783 28 20 28C22.1217 28 24.1566 27.1571 25.6569 25.6569C27.1571 24.1566 28 22.1217 28 20C28 17.8783 27.1571 15.8434 25.6569 14.3431C24.1566 12.8429 22.1217 12 20 12ZM20 18.5C20.3978 18.5 20.7794 18.658 21.0607 18.9393C21.342 19.2206 21.5 19.6022 21.5 20C21.5 20.3978 21.342 20.7794 21.0607 21.0607C20.7794 21.342 20.3978 21.5 20 21.5C19.6022 21.5 19.2206 21.342 18.9393 21.0607C18.658 20.7794 18.5 20.3978 18.5 20C18.5 19.6022 18.658 19.2206 18.9393 18.9393C19.2206 18.658 19.6022 18.5 20 18.5ZM15.5 18.5C15.8978 18.5 16.2794 18.658 16.5607 18.9393C16.842 19.2206 17 19.6022 17 20C17 20.3978 16.842 20.7794 16.5607 21.0607C16.2794 21.342 15.8978 21.5 15.5 21.5C15.1022 21.5 14.7206 21.342 14.4393 21.0607C14.158 20.7794 14 20.3978 14 20C14 19.6022 14.158 19.2206 14.4393 18.9393C14.7206 18.658 15.1022 18.5 15.5 18.5ZM24.5 18.5C24.8978 18.5 25.2794 18.658 25.5607 18.9393C25.842 19.2206 26 19.6022 26 20C26 20.3978 25.842 20.7794 25.5607 21.0607C25.2794 21.342 24.8978 21.5 24.5 21.5C24.1022 21.5 23.7206 21.342 23.4393 21.0607C23.158 20.7794 23 20.3978 23 20C23 19.6022 23.158 19.2206 23.4393 18.9393C23.7206 18.658 24.1022 18.5 24.5 18.5Z" fill="white"/>
</svg>
