<svg id="icon-calender-check" xmlns="http://www.w3.org/2000/svg" width="32" height="32" viewBox="0 0 32 32">
  <rect id="사각형_228" data-name="사각형 228" width="32" height="32" fill="#ff1313" opacity="0"/>
  <path id="calendar-check-02" d="M21,10H3m18,2.5V8.8a7.453,7.453,0,0,0-.327-3.162,3,3,0,0,0-1.311-1.311A7.453,7.453,0,0,0,16.2,4H7.8a7.453,7.453,0,0,0-3.162.327A3,3,0,0,0,3.327,5.638,7.453,7.453,0,0,0,3,8.8v8.4a7.453,7.453,0,0,0,.327,3.162,3,3,0,0,0,1.311,1.311A7.453,7.453,0,0,0,7.8,22H12M16,2V6M8,2V6m6.5,13,2,2L21,16.5" transform="translate(4.5 4.5)" fill="none" stroke="#fff" stroke-linecap="round" stroke-linejoin="round" stroke-width="2"/>
</svg>
