<svg id="icon-paper-plus" xmlns="http://www.w3.org/2000/svg" width="32" height="32" viewBox="0 0 32 32">
  <rect id="사각형_228" data-name="사각형 228" width="32" height="32" fill="#ff1313" opacity="0"/>
  <path id="file-plus-02" d="M18.923,9.928V6.477a6.951,6.951,0,0,0-.3-2.949A2.8,2.8,0,0,0,17.4,2.3,6.951,6.951,0,0,0,14.446,2H8.477a6.951,6.951,0,0,0-2.949.3A2.8,2.8,0,0,0,4.3,3.528,6.951,6.951,0,0,0,4,6.477v9.7a6.951,6.951,0,0,0,.3,2.949,2.8,2.8,0,0,0,1.223,1.223,6.951,6.951,0,0,0,2.949.3h2.985m1.865-10.259h-5.6M9.6,14.125H7.731m7.461-7.461H7.731m9.327,13.057v-5.6m-2.8,2.8h5.6" transform="translate(4.072 5.173)" fill="none" stroke="#fff" stroke-linecap="round" stroke-linejoin="round" stroke-width="2"/>
</svg>
