<svg width="32" height="32" viewBox="0 0 32 32" fill="none" xmlns="http://www.w3.org/2000/svg">
<path d="M15.5 13.5026V17.5017M15.5 21.5008H15.5093M14.2183 8.39554L6.60522 22.5989C6.18295 23.3867 5.97182 23.7806 6.00302 24.1039C6.03024 24.3859 6.16702 24.6421 6.37932 24.8088C6.62271 25 7.04411 25 7.88691 25H23.1131C23.9559 25 24.3773 25 24.6207 24.8088C24.833 24.6421 24.9698 24.3859 24.997 24.1039C25.0282 23.7806 24.817 23.3867 24.3948 22.5989L16.7817 8.39554C16.3609 7.61055 16.1506 7.21806 15.8761 7.08624C15.6367 6.97125 15.3633 6.97125 15.1239 7.08624C14.8495 7.21806 14.6391 7.61056 14.2183 8.39554Z" stroke="white" stroke-width="2.5" stroke-linecap="round" stroke-linejoin="round"/>
</svg>
