<svg id="icon-message22" xmlns="http://www.w3.org/2000/svg" width="32" height="32" viewBox="0 0 32 32">
  <rect id="사각형_228" data-name="사각형 228" width="32" height="32" fill="#ff1313" opacity="0"/>
  <g id="Group_2101" data-name="Group 2101" transform="translate(3.989 6)">
    <path id="패스_604" data-name="패스 604" d="M17.785,12.585V2.655A1.655,1.655,0,0,0,16.13,1H7.855A1.655,1.655,0,0,0,6.2,2.655v9.93" transform="translate(-0.378)" fill="none" stroke="#fff" stroke-linejoin="round" stroke-width="1.7"/>
    <path id="패스_605" data-name="패스 605" d="M11.879,16.879l1.31,1.31a1.655,1.655,0,0,0,2.341,0l2.841-2.841a1.655,1.655,0,0,0-.018-2.359L6.5,1.5" transform="translate(-0.429 -0.086)" fill="none" stroke="#fff" stroke-linejoin="round" stroke-width="1.7"/>
    <path id="패스_606" data-name="패스 606" d="M17.408,11.43,9.71,19.1a1.655,1.655,0,0,1-2.339,0L4.5,16.227A1.655,1.655,0,0,1,4.481,13.9L16.58,1.5" transform="translate(0 -0.086)" fill="none" stroke="#fff" stroke-linejoin="round" stroke-width="1.7"/>
  </g>
</svg>
