<svg width="40" height="40" viewBox="0 0 40 40" fill="none" xmlns="http://www.w3.org/2000/svg">
<path d="M32.3992 7C34.3878 7 36 8.61215 36 10.6008V29.0124C36 31.001 34.3878 32.6133 32.3992 32.6133H7.60083C5.61215 32.6133 4 31.001 4 29.0124V10.6008C4 8.61215 5.61215 7 7.60083 7H32.3992ZM32.3992 9.40055H7.60083C6.93794 9.40055 6.40055 9.93794 6.40055 10.6008V29.0124C6.40055 29.6753 6.93794 30.2127 7.60083 30.2127L12.0002 30.2117L12.0018 25.8043C12.0018 24.3349 13.1335 23.1298 14.5728 23.013L14.8025 23.0037H25.1964C26.6659 23.0037 27.8709 24.1353 27.9878 25.5747L27.997 25.8043L27.9959 30.2117L32.3992 30.2127C33.062 30.2127 33.5994 29.6753 33.5994 29.0124V10.6008C33.5994 9.93794 33.062 9.40055 32.3992 9.40055ZM25.1964 25.4042H14.8025C14.6131 25.4042 14.4544 25.5358 14.413 25.7126L14.4024 25.8043L14.4008 30.2117H25.5954L25.5965 25.8043C25.5965 25.615 25.4649 25.4562 25.2881 25.4148L25.1964 25.4042ZM20.0037 11.8018C22.6553 11.8018 24.8048 13.9514 24.8048 16.603C24.8048 19.2545 22.6553 21.4041 20.0037 21.4041C17.352 21.4041 15.2026 19.2545 15.2026 16.603C15.2026 13.9514 17.352 11.8018 20.0037 11.8018ZM20.0037 14.2024C18.6779 14.2024 17.6031 15.2772 17.6031 16.603C17.6031 17.9288 18.6779 19.0036 20.0037 19.0036C21.3294 19.0036 22.4042 17.9288 22.4042 16.603C22.4042 15.2772 21.3294 14.2024 20.0037 14.2024Z" fill="white"/>
</svg>
