<svg width="40" height="40" viewBox="0 0 40 40" fill="none" xmlns="http://www.w3.org/2000/svg">
<path d="M9.5127 9.5127C9.6978 6.98956 11.8035 5 14.3739 5H27.8724C31.8071 5 34.9966 8.18961 34.9966 12.1242V21.1232C34.9966 23.6936 33.0071 25.7993 30.4839 25.9844C30.2988 28.5076 28.1931 30.4971 25.6227 30.4971H17.9986L12.4992 34.6216C11.2632 35.5485 9.49949 34.6668 9.49949 33.1218V30.4829C6.98261 30.2915 5 28.1886 5 25.6227V14.3739C5 11.8035 6.98956 9.6978 9.5127 9.5127ZM11.7758 9.49949H25.6227C28.3147 9.49949 30.4971 11.6818 30.4971 14.3739V23.7213C31.7691 23.5394 32.7469 22.4454 32.7469 21.1232V12.1242C32.7469 9.4321 30.5645 7.24975 27.8724 7.24975H14.3739C13.0517 7.24975 11.9578 8.22753 11.7758 9.49949ZM9.87445 28.2474H11.7492V32.3719L17.2487 28.2474H25.6227C27.0723 28.2474 28.2474 27.0723 28.2474 25.6227V14.3739C28.2474 12.9244 27.0723 11.7492 25.6227 11.7492H9.87445C8.42486 11.7492 7.24975 12.9244 7.24975 14.3739V25.6227C7.24975 27.0723 8.42486 28.2474 9.87445 28.2474Z" fill="white"/>
</svg>
