<svg width="40" height="40" viewBox="0 0 40 40" fill="none" xmlns="http://www.w3.org/2000/svg">
<path d="M13.125 8.49998C11.6752 8.49998 10.5 9.67522 10.5 11.125V12.625C10.5 14.0747 11.6752 15.2499 13.125 15.2499H21.3749C22.8247 15.2499 23.9999 14.0747 23.9999 12.625V11.125C23.9999 9.67522 22.8247 8.49998 21.3749 8.49998H13.125ZM12.75 11.125C12.75 10.9179 12.9179 10.75 13.125 10.75H21.3749C21.5821 10.75 21.7499 10.9179 21.7499 11.125V12.625C21.7499 12.8321 21.5821 13 21.3749 13H13.125C12.9179 13 12.75 12.8321 12.75 12.625V11.125ZM17.2499 17.1249C16.2144 17.1249 15.375 17.9643 15.375 18.9999C15.375 20.0355 16.2144 20.8749 17.2499 20.8749C18.2855 20.8749 19.1249 20.0355 19.1249 18.9999C19.1249 17.9643 18.2855 17.1249 17.2499 17.1249ZM15.375 24.2499C15.375 23.2143 16.2144 22.3749 17.2499 22.3749C18.2855 22.3749 19.1249 23.2143 19.1249 24.2499C19.1249 25.2855 18.2855 26.1249 17.2499 26.1249C16.2144 26.1249 15.375 25.2855 15.375 24.2499ZM12 17.1249C10.9644 17.1249 10.125 17.9643 10.125 18.9999C10.125 20.0355 10.9644 20.8749 12 20.8749C13.0355 20.8749 13.875 20.0355 13.875 18.9999C13.875 17.9643 13.0355 17.1249 12 17.1249ZM10.125 24.2499C10.125 23.2143 10.9644 22.3749 12 22.3749C13.0355 22.3749 13.875 23.2143 13.875 24.2499C13.875 25.2855 13.0355 26.1249 12 26.1249C10.9644 26.1249 10.125 25.2855 10.125 24.2499ZM22.4999 17.1249C21.4643 17.1249 20.6249 17.9643 20.6249 18.9999C20.6249 20.0355 21.4643 20.8749 22.4999 20.8749C23.5355 20.8749 24.3749 20.0355 24.3749 18.9999C24.3749 17.9643 23.5355 17.1249 22.4999 17.1249ZM20.6249 24.2499C20.6249 23.2143 21.4643 22.3749 22.4999 22.3749C23.5355 22.3749 24.3749 23.2143 24.3749 24.2499C24.3749 25.2855 23.5355 26.1249 22.4999 26.1249C21.4643 26.1249 20.6249 25.2855 20.6249 24.2499ZM10.7056 4C8.10678 4 6 6.10678 6 8.70563V25.5442C6 28.1431 8.10678 30.2499 10.7056 30.2499H23.7943C26.3931 30.2499 28.4999 28.1431 28.4999 25.5442V8.70563C28.4999 6.10678 26.3931 4 23.7943 4H10.7056ZM8.24999 8.70563C8.24999 7.34941 9.34941 6.24999 10.7056 6.24999H23.7943C25.1504 6.24999 26.2499 7.34941 26.2499 8.70563V25.5442C26.2499 26.9004 25.1504 27.9999 23.7943 27.9999H10.7056C9.34941 27.9999 8.24999 26.9004 8.24999 25.5442V8.70563ZM10.2011 31.7298C10.8801 33.076 12.2751 34 13.8866 34H24.3748C28.7238 34 32.2496 30.4743 32.2497 26.125L32.2499 11.875C32.2499 10.2634 31.3259 8.86772 29.9786 8.18888C29.9927 8.35931 29.9997 8.5317 29.9997 8.70575V11.8538L29.9999 11.8749L29.9997 25.5444V25.5787V26.125C29.9996 29.2317 27.4812 31.75 24.3748 31.75H23.8127H23.7941H10.7055C10.5357 31.75 10.3675 31.7431 10.2011 31.7298Z" fill="white"/>
</svg>
