<svg id="icon-user-question" xmlns="http://www.w3.org/2000/svg" width="32" height="32" viewBox="0 0 32 32">
  <rect id="사각형_228" data-name="사각형 228" width="32" height="32" fill="#ff1313" opacity="0"/>
  <g id="Group_1" data-name="Group 1" transform="translate(5 6)">
    <path id="패스_316" data-name="패스 316" d="M16,13.5a2.248,2.248,0,0,1,4.369.75c0,1.5-2.248,2.248-2.248,2.248m.029,3h.01" fill="none" stroke="#fff" stroke-linecap="round" stroke-linejoin="round" stroke-width="2"/>
    <path id="패스_317" data-name="패스 317" d="M11,13.5H6.5a10.016,10.016,0,0,0-2.661.172,4,4,0,0,0-2.667,2.667A10.013,10.013,0,0,0,1,19M13.5,5.5A4.5,4.5,0,1,1,9,1,4.5,4.5,0,0,1,13.5,5.5Z" fill="none" stroke="#fff" stroke-linecap="round" stroke-linejoin="round" stroke-width="2"/>
  </g>
</svg>
