<svg id="icon-folder" xmlns="http://www.w3.org/2000/svg" width="32" height="32" viewBox="0 0 32 32">
  <rect id="사각형_782" data-name="사각형 782" width="32" height="32" fill="#ff1313" opacity="0"/>
  <path id="folder" d="M10.319,6.025,9.475,4.338a3.379,3.379,0,0,0-.545-.906,1.513,1.513,0,0,0-.565-.349A3.378,3.378,0,0,0,7.31,3H4.42a3.757,3.757,0,0,0-1.594.165,1.512,1.512,0,0,0-.661.661A3.757,3.757,0,0,0,2,5.42v.6m0,0H13.495a5.636,5.636,0,0,1,2.391.247,2.268,2.268,0,0,1,.991.991,5.636,5.636,0,0,1,.247,2.391v3.327a5.636,5.636,0,0,1-.247,2.391,2.268,2.268,0,0,1-.991.991,5.636,5.636,0,0,1-2.391.247H5.63a5.636,5.636,0,0,1-2.391-.247,2.268,2.268,0,0,1-.991-.991A5.636,5.636,0,0,1,2,12.982Z" transform="translate(6.5 6.5)" fill="none" stroke="#fff" stroke-linecap="round" stroke-linejoin="round" stroke-width="1.5"/>
</svg>
