<svg width="40" height="40" viewBox="0 0 40 40" fill="none" xmlns="http://www.w3.org/2000/svg">
<path d="M22.5303 27.1893H31.1582M22.5303 27.1893L20.2295 32M22.5303 27.1893L25.9763 19.984C26.2539 19.4034 26.3928 19.1131 26.5828 19.0214C26.748 18.9416 26.9405 18.9416 27.1058 19.0214C27.2957 19.1131 27.4346 19.4034 27.7122 19.984L31.1582 27.1893M31.1582 27.1893L33.459 32" stroke="white" stroke-width="2" stroke-linecap="round" stroke-linejoin="round"/>
<path d="M19.1443 8.03691C19.7967 8.03691 20.3255 8.56576 20.3255 9.21812V13.1862H21.6359C22.1659 13.1862 22.5956 13.6159 22.5956 14.146V14.146C22.5956 14.676 22.1659 15.1057 21.6359 15.1057H20.3255V19.3876C20.3255 20.0399 19.7967 20.5688 19.1443 20.5688V20.5688C18.4919 20.5688 17.9631 20.0399 17.9631 19.3876V9.21812C17.9631 8.56576 18.4919 8.03691 19.1443 8.03691V8.03691ZM7.93205 11.6544C7.41729 11.6544 7 11.2371 7 10.7223V10.7223C7 10.2076 7.41729 9.79027 7.93205 9.79027H10.8205V9.17198C10.8205 8.52471 11.3452 8 11.9924 8V8C12.6397 8 13.1644 8.52471 13.1644 9.17198V9.79027H16.0344C16.5491 9.79027 16.9664 10.2076 16.9664 10.7223V10.7223C16.9664 11.2371 16.5491 11.6544 16.0344 11.6544H7.93205ZM7.81208 15.4933C7.81208 13.5461 9.53775 12.245 11.9832 12.245C14.4195 12.245 16.1174 13.5461 16.1174 15.4933C16.1174 17.4312 14.4195 18.7047 11.9832 18.7047C9.53775 18.7047 7.81208 17.4312 7.81208 15.4933ZM11.4362 24.5184C10.3317 24.5184 9.43624 23.623 9.43624 22.5184V20.781C9.43624 20.1338 9.96095 19.6091 10.6082 19.6091V19.6091C11.2555 19.6091 11.7802 20.1338 11.7802 20.781V21.6359C11.7802 22.1882 12.2279 22.6359 12.7802 22.6359H19.9933C20.5131 22.6359 20.9346 23.0573 20.9346 23.5772V23.5772C20.9346 24.097 20.5131 24.5184 19.9933 24.5184H11.4362ZM10.1191 15.4933C10.1099 16.4161 10.8574 16.9144 11.9832 16.9144C13.1183 16.9144 13.8842 16.4161 13.8842 15.4933C13.8842 14.5612 13.1183 14.0445 11.9832 14.0352C10.8574 14.0445 10.1099 14.5612 10.1191 15.4933Z" fill="white"/>
</svg>
