<svg width="40" height="40" viewBox="0 0 40 40" fill="none" xmlns="http://www.w3.org/2000/svg">
<path d="M20.7143 17.9286H30.3066C30.7927 17.4327 31.4223 17.078 32.128 16.9316C31.794 9.73339 25.8523 4 18.5714 4C11.0761 4 5 10.0761 5 17.5714C5 24.8271 10.6939 30.753 17.8571 31.1244V29V28.978C11.8781 28.6094 7.14286 23.6434 7.14286 17.5714C7.14286 11.3791 12.0677 6.33701 18.2143 6.14833V15.4286C18.2143 16.8093 19.3336 17.9286 20.7143 17.9286ZM20.7143 15.7857C20.517 15.7857 20.3571 15.6259 20.3571 15.4286V6.28154C25.239 7.04754 29.0953 10.9039 29.8613 15.7857H20.7143ZM32.8571 18.2857C31.6737 18.2857 30.7143 19.2451 30.7143 20.4286V31.8571C30.7143 33.0406 31.6737 34 32.8571 34C34.0406 34 35 33.0406 35 31.8571V20.4286C35 19.2451 34.0406 18.2857 32.8571 18.2857ZM21.4286 26.8571C20.2451 26.8571 19.2857 27.8166 19.2857 29V31.8571C19.2857 33.0406 20.2451 34 21.4286 34C22.612 34 23.5714 33.0406 23.5714 31.8571V29C23.5714 27.8166 22.612 26.8571 21.4286 26.8571ZM25 24.7143C25 23.5309 25.9594 22.5714 27.1429 22.5714C28.3263 22.5714 29.2857 23.5309 29.2857 24.7143V31.8571C29.2857 33.0406 28.3263 34 27.1429 34C25.9594 34 25 33.0406 25 31.8571V24.7143Z" fill="white"/>
</svg>
