<svg width="40" height="40" viewBox="0 0 40 40" fill="none" xmlns="http://www.w3.org/2000/svg">
<g clip-path="url(#clip0_1363_2260)">
<path d="M20 19H15M23 15H15M27 18.5V14.8C27 13.1198 27 12.2798 26.673 11.638C26.3854 11.0735 25.9265 10.6146 25.362 10.327C24.7202 10 23.8802 10 22.2 10H15.8C14.1198 10 13.2798 10 12.638 10.327C12.0735 10.6146 11.6146 11.0735 11.327 11.638C11 12.2798 11 13.1198 11 14.8V25.2C11 26.8802 11 27.7202 11.327 28.362C11.6146 28.9265 12.0735 29.3854 12.638 29.673C13.2798 30 14.1198 30 15.8 30H18.5M29 30.7L26 27.7M15.8 23H15M27 25.2C27 27.133 25.433 28.7 23.5 28.7C21.567 28.7 20 27.133 20 25.2C20 23.267 21.567 21.7 23.5 21.7C25.433 21.7 27 23.267 27 25.2Z" stroke="white" stroke-width="2" stroke-linecap="round" stroke-linejoin="round"/>
</g>
<defs>
<clipPath id="clip0_1363_2260">
<rect width="40" height="40" fill="white"/>
</clipPath>
</defs>
</svg>
