<svg width="32" height="32" viewBox="0 0 32 32" fill="none" xmlns="http://www.w3.org/2000/svg">
<g clip-path="url(#clip0_1411_2423)">
<path d="M22.1133 13.4145V11.1195C22.2113 10.2146 22.1204 9.29932 21.8463 8.43146C21.6159 7.95634 21.2409 7.56637 20.7753 7.31746C19.9455 7.03296 19.0625 6.93796 18.1913 7.03946H12.9613C12.09 6.93793 11.207 7.03292 10.3773 7.31746C9.9112 7.56621 9.53592 7.95619 9.30526 8.43146C9.03112 9.29932 8.94021 10.2146 9.03826 11.1195V19.9595C8.94021 20.8643 9.03112 21.7796 9.30526 22.6475C9.53566 23.1226 9.91057 23.5126 10.3763 23.7615C11.2063 24.0462 12.0896 24.1411 12.9613 24.0395H17.2113M17.2113 14.6895H12.3113M13.9383 18.0895H12.3073M18.8453 11.2895H12.3073" stroke="white" stroke-width="1.7" stroke-linecap="round" stroke-linejoin="round"/>
<path d="M19.7112 19.7675C19.7283 19.6585 19.7548 19.5511 19.7902 19.4465C19.8159 19.3788 19.8494 19.3144 19.8902 19.2545C19.9578 19.167 20.0327 19.0853 20.1142 19.0105L26.2782 12.8465C26.4 12.7245 26.5448 12.6277 26.704 12.5616C26.8633 12.4956 27.034 12.4615 27.2065 12.4614C27.3789 12.4613 27.5497 12.4952 27.709 12.5611C27.8684 12.627 28.0132 12.7237 28.1352 12.8455C28.2572 12.9674 28.354 13.1121 28.4201 13.2714C28.4861 13.4306 28.5202 13.6014 28.5203 13.7738C28.5204 13.9463 28.4865 14.117 28.4206 14.2764C28.3547 14.4357 28.258 14.5805 28.1362 14.7025L21.9682 20.8675C21.8934 20.949 21.8117 21.0239 21.7242 21.0915C21.6643 21.1322 21.5999 21.1658 21.5322 21.1915C21.4276 21.2269 21.3202 21.2533 21.2112 21.2705L19.3362 21.6465L19.7112 19.7675Z" stroke="white" stroke-width="1.7" stroke-linecap="round" stroke-linejoin="round"/>
</g>
<defs>
<clipPath id="clip0_1411_2423">
<rect width="32" height="32" fill="white"/>
</clipPath>
</defs>
</svg>
