<svg width="40" height="40" viewBox="0 0 40 40" fill="none" xmlns="http://www.w3.org/2000/svg">
<path d="M26 14.375C26 13.7537 26.5037 13.25 27.125 13.25C27.7463 13.25 28.25 13.7537 28.25 14.375V19.25C28.25 19.8713 27.7463 20.375 27.125 20.375H23C22.3787 20.375 21.875 19.8713 21.875 19.25C21.875 18.6287 22.3787 18.125 23 18.125H24.9058C24.1511 16.1516 22.2386 14.75 20.0002 14.75C18.3605 14.75 16.9449 15.4454 15.9902 16.5941C15.5931 17.0718 14.8838 17.1374 14.406 16.7402C13.9281 16.3431 13.8627 15.6338 14.2598 15.1559C15.6439 13.4905 17.6948 12.5 20.0002 12.5C22.454 12.5 24.6318 13.678 26 15.4993V14.375ZM14 24.5V25.625C14 26.2463 13.4963 26.75 12.875 26.75C12.2537 26.75 11.75 26.2463 11.75 25.625V21.125C11.75 20.5037 12.2537 20 12.875 20H17C17.6213 20 18.125 20.5037 18.125 21.125C18.125 21.7463 17.6213 22.25 17 22.25H15.255C16.0979 24.0243 17.9071 25.25 20.0002 25.25C21.6061 25.25 23.0552 24.5306 24.0179 23.3983C24.4204 22.9249 25.1303 22.8673 25.6037 23.2697C26.0771 23.6722 26.1345 24.3821 25.7321 24.8555C24.3561 26.474 22.2878 27.5 20.0002 27.5C17.5457 27.5 15.3679 26.3215 14 24.5ZM20 5C11.7157 5 5 11.7157 5 20C5 28.2842 11.7157 35 20 35C28.2842 35 35 28.2842 35 20C35 11.7157 28.2842 5 20 5ZM32.75 20C32.75 27.0416 27.0416 32.75 20 32.75C12.9584 32.75 7.25 27.0416 7.25 20C7.25 12.9584 12.9584 7.25 20 7.25C27.0416 7.25 32.75 12.9584 32.75 20Z" fill="white"/>
</svg>
