<svg id="icon-state-ing" xmlns="http://www.w3.org/2000/svg" width="38" height="38" viewBox="0 0 38 38">
  <rect id="사각형_545" data-name="사각형 545" width="38" height="38" fill="#111" opacity="0"/>
  <path id="chrome-cast" d="M2,12.05A9,9,0,0,1,9.95,20M2,16.1A5,5,0,0,1,5.9,20M2,20h.01M14,21h3.2a7.453,7.453,0,0,0,3.162-.327,3,3,0,0,0,1.311-1.311A7.453,7.453,0,0,0,22,16.2V7.8a7.453,7.453,0,0,0-.327-3.162,3,3,0,0,0-1.311-1.311A7.453,7.453,0,0,0,17.2,3H6.8a7.453,7.453,0,0,0-3.162.327A3,3,0,0,0,2.327,4.638,7.453,7.453,0,0,0,2,7.8V8" transform="translate(7 7.5)" fill="none" stroke="#fff" stroke-linecap="round" stroke-linejoin="round" stroke-width="2"/>
</svg>
