<svg width="40" height="40" viewBox="0 0 40 40" fill="none" xmlns="http://www.w3.org/2000/svg">
<path d="M20 25V31.25M20 25L27.5 31.25M20 25L12.5 31.25M31.25 8.75V19C31.25 21.1002 31.25 22.1503 30.8413 22.9525C30.4817 23.6581 29.9081 24.2317 29.2025 24.5913C28.4003 25 27.3502 25 25.25 25H14.75C12.6498 25 11.5997 25 10.7975 24.5913C10.0919 24.2317 9.51825 23.6581 9.15873 22.9525C8.75 22.1503 8.75 21.1002 8.75 19V8.75M15 16.25V20M20 13.75V20M25 18.75V20M32.5 8.75H7.5" stroke="white" stroke-width="2.5" stroke-linecap="round" stroke-linejoin="round"/>
</svg>
