<svg width="40" height="40" viewBox="0 0 40 40" fill="none" xmlns="http://www.w3.org/2000/svg">
<path d="M32.3992 4C34.3878 4 36 5.61215 36 7.60083V26.0124C36 28.001 34.3878 29.6133 32.3992 29.6133H7.60083C5.61215 29.6133 4 28.001 4 26.0124V7.60083C4 5.61215 5.61215 4 7.60083 4H32.3992ZM32.3992 6.40055H7.60083C6.93794 6.40055 6.40055 6.93794 6.40055 7.60083V26.0124C6.40055 26.6753 6.93794 27.2127 7.60083 27.2127L12.0002 27.2117L12.0018 22.8043C12.0018 21.3349 13.1335 20.1298 14.5728 20.013L14.8025 20.0037H25.1964C26.6659 20.0037 27.8709 21.1353 27.9878 22.5747L27.997 22.8043L27.9959 27.2117L32.3992 27.2127C33.062 27.2127 33.5994 26.6753 33.5994 26.0124V7.60083C33.5994 6.93794 33.062 6.40055 32.3992 6.40055ZM25.1964 22.4042H14.8025C14.6131 22.4042 14.4544 22.5358 14.413 22.7126L14.4024 22.8043L14.4008 27.2117H25.5954L25.5965 22.8043C25.5965 22.615 25.4649 22.4562 25.2881 22.4148L25.1964 22.4042ZM20.0037 8.80184C22.6553 8.80184 24.8048 10.9514 24.8048 13.603C24.8048 16.2545 22.6553 18.4041 20.0037 18.4041C17.352 18.4041 15.2026 16.2545 15.2026 13.603C15.2026 10.9514 17.352 8.80184 20.0037 8.80184ZM20.0037 11.2024C18.6779 11.2024 17.6031 12.2772 17.6031 13.603C17.6031 14.9288 18.6779 16.0036 20.0037 16.0036C21.3294 16.0036 22.4042 14.9288 22.4042 13.603C22.4042 12.2772 21.3294 11.2024 20.0037 11.2024Z" fill="white"/>
</svg>
