<svg id="icon-social-connect" xmlns="http://www.w3.org/2000/svg" width="32" height="32" viewBox="0 0 32 32">
  <rect id="사각형_778" data-name="사각형 778" width="32" height="32" fill="#ff1313" opacity="0"/>
  <path id="share-07" d="M7.752,11.783l5.806,3.383m-.009-9.333-5.8,3.383M18.3,4.55A2.55,2.55,0,1,1,15.75,2,2.55,2.55,0,0,1,18.3,4.55ZM8.1,10.5A2.55,2.55,0,1,1,5.55,7.95,2.55,2.55,0,0,1,8.1,10.5Zm10.2,5.95a2.55,2.55,0,1,1-2.55-2.55A2.55,2.55,0,0,1,18.3,16.45Z" transform="translate(5.5 5.5)" fill="none" stroke="#fff" stroke-linecap="round" stroke-linejoin="round" stroke-width="2"/>
</svg>
