<svg width="40" height="40" viewBox="0 0 40 40" fill="none" xmlns="http://www.w3.org/2000/svg">
<path d="M12.625 6C8.68998 6 5.5 9.18998 5.5 13.125V19.8858C6.16947 19.3329 6.92766 18.8835 7.75 18.5624V13.125C7.75 10.4326 9.93261 8.25 12.625 8.25H27.625C28.2463 8.25 28.75 8.75369 28.75 9.375V9.75H31V9.375C31 7.51104 29.4889 6 27.625 6H12.625ZM32.125 32.25H20.4624L18.2124 30H32.125C32.7463 30 33.25 29.4963 33.25 28.875V14.625C33.25 14.0037 32.7463 13.5 32.125 13.5H14.125C13.5037 13.5 13 14.0037 13 14.625V18.3105C12.2848 18.1083 11.53 18 10.75 18V14.625C10.75 12.761 12.2611 11.25 14.125 11.25H32.125C33.9889 11.25 35.5 12.761 35.5 14.625V28.875C35.5 30.7389 33.9889 32.25 32.125 32.25ZM10.75 33C12.2078 33 13.5577 32.5379 14.6611 31.7522L18.5796 35.6705C19.0189 36.1098 19.7311 36.1098 20.1705 35.6705C20.6098 35.2311 20.6098 34.5189 20.1705 34.0796L16.2521 30.1611C17.0379 29.0577 17.5 27.7079 17.5 26.25C17.5 22.5221 14.4779 19.5 10.75 19.5C7.02208 19.5 4 22.5221 4 26.25C4 29.978 7.02208 33 10.75 33ZM10.75 30.75C8.26473 30.75 6.25 28.7354 6.25 26.25C6.25 23.7647 8.26473 21.75 10.75 21.75C13.2353 21.75 15.25 23.7647 15.25 26.25C15.25 28.7354 13.2353 30.75 10.75 30.75Z" fill="white"/>
</svg>
