<svg id="icon-stuff-ruler" xmlns="http://www.w3.org/2000/svg" width="32" height="32" viewBox="0 0 32 32">
  <rect id="사각형_484" data-name="사각형 484" width="32" height="32" fill="#ff1313" opacity="0"/>
  <path id="ruler" d="M14.5,5.5,16,7M11.5,8.5,13,10M8.5,11.5,10,13M5.5,14.5,7,16M2.566,17.566l3.869,3.869a1.241,1.241,0,0,0,.411.334.5.5,0,0,0,.309,0,1.241,1.241,0,0,0,.411-.334L21.434,7.566a1.241,1.241,0,0,0,.334-.411.5.5,0,0,0,0-.309,1.241,1.241,0,0,0-.334-.411L17.566,2.566a1.242,1.242,0,0,0-.411-.334.5.5,0,0,0-.309,0,1.243,1.243,0,0,0-.411.334L2.566,16.434a1.243,1.243,0,0,0-.334.411.5.5,0,0,0,0,.309A1.242,1.242,0,0,0,2.566,17.566Z" transform="translate(4.293 4.293)" fill="none" stroke="#fff" stroke-linecap="round" stroke-linejoin="round" stroke-width="1.5"/>
</svg>
