<svg width="40" height="40" viewBox="0 0 40 40" fill="none" xmlns="http://www.w3.org/2000/svg">
<path d="M31.2446 5C33.3156 5 34.9942 6.67872 34.9942 8.74952V31.2505C34.9942 33.3212 33.3156 35 31.2446 35H8.74952C6.67872 35 5 33.3212 5 31.2505V8.74952C5 6.67872 6.67872 5 8.74952 5H31.2446ZM31.2446 7.49968H8.74952C8.05926 7.49968 7.49968 8.05926 7.49968 8.74952V31.2505C7.49968 31.9407 8.05926 32.5003 8.74952 32.5003H31.2446C31.9349 32.5003 32.4945 31.9407 32.4945 31.2505V8.74952C32.4945 8.05926 31.9349 7.49968 31.2446 7.49968ZM13.7573 19.1655L16.3515 13.2478C16.7703 12.2925 18.0775 12.257 18.5734 13.1139L18.6564 13.285L22.6247 23.1948L24.2965 19.8558C24.482 19.4856 24.8363 19.2348 25.2391 19.1779L25.4142 19.1655H28.747C29.4372 19.1655 29.9968 19.7251 29.9968 20.4154C29.9968 21.0481 29.5265 21.571 28.9166 21.6539L28.747 21.6652H26.1861L23.6153 26.7995C23.1612 27.7066 21.899 27.7086 21.4181 26.8714L21.3374 26.7046L17.4441 16.9816L15.7188 20.9173C15.5445 21.3149 15.1788 21.5894 14.7576 21.6517L14.5741 21.6652H11.2492C10.5589 21.6652 9.99936 21.1058 9.99936 20.4154C9.99936 19.7826 10.4696 19.2597 11.0796 19.177L11.2492 19.1655H13.7573Z" fill="white"/>
</svg>
