<svg width="40" height="40" viewBox="0 0 40 40" fill="none" xmlns="http://www.w3.org/2000/svg">
<path d="M12.625 4C8.68998 4 5.5 7.18998 5.5 11.125V17.8858C6.16947 17.3329 6.92766 16.8835 7.75 16.5624V11.125C7.75 8.43261 9.93261 6.25 12.625 6.25H27.625C28.2463 6.25 28.75 6.75369 28.75 7.375V7.75H31V7.375C31 5.51104 29.4889 4 27.625 4H12.625ZM32.125 30.25H20.4624L18.2124 28H32.125C32.7463 28 33.25 27.4963 33.25 26.875V12.625C33.25 12.0037 32.7463 11.5 32.125 11.5H14.125C13.5037 11.5 13 12.0037 13 12.625V16.3105C12.2848 16.1083 11.53 16 10.75 16V12.625C10.75 10.761 12.2611 9.25001 14.125 9.25001H32.125C33.9889 9.25001 35.5 10.761 35.5 12.625V26.875C35.5 28.7389 33.9889 30.25 32.125 30.25ZM10.75 31C12.2078 31 13.5577 30.5379 14.6611 29.7522L18.5796 33.6705C19.0189 34.1098 19.7311 34.1098 20.1705 33.6705C20.6098 33.2311 20.6098 32.5189 20.1705 32.0796L16.2521 28.1611C17.0379 27.0577 17.5 25.7079 17.5 24.25C17.5 20.5221 14.4779 17.5 10.75 17.5C7.02208 17.5 4 20.5221 4 24.25C4 27.978 7.02208 31 10.75 31ZM10.75 28.75C8.26473 28.75 6.25 26.7354 6.25 24.25C6.25 21.7647 8.26473 19.75 10.75 19.75C13.2353 19.75 15.25 21.7647 15.25 24.25C15.25 26.7354 13.2353 28.75 10.75 28.75Z" fill="white"/>
</svg>
