<svg width="40" height="40" viewBox="0 0 40 40" fill="none" xmlns="http://www.w3.org/2000/svg">
<g clip-path="url(#clip0_1244_2290)">
<mask id="mask0_1244_2290" style="mask-type:luminance" maskUnits="userSpaceOnUse" x="0" y="0" width="40" height="40">
<path d="M40 0H0V40H40V0Z" fill="white"/>
</mask>
<g mask="url(#mask0_1244_2290)">
<path d="M12.316 26.438C12.6228 25.7147 13.1358 25.0979 13.7909 24.6643C14.4461 24.2307 15.2144 23.9997 16 24H22C22.7856 23.9997 23.5539 24.2307 24.2091 24.6643C24.8642 25.0979 25.3772 25.7147 25.684 26.438M23 16.5C23 17.2911 22.7654 18.0645 22.3259 18.7223C21.8864 19.3801 21.2616 19.8928 20.5307 20.1955C19.7998 20.4983 18.9956 20.5775 18.2196 20.4231C17.4437 20.2688 16.731 19.8878 16.1716 19.3284C15.6122 18.769 15.2312 18.0563 15.0769 17.2804C14.9225 16.5044 15.0017 15.7002 15.3045 14.9693C15.6072 14.2384 16.1199 13.6136 16.7777 13.1741C17.4355 12.7346 18.2089 12.5 19 12.5C20.0609 12.5 21.0783 12.9214 21.8284 13.6716C22.5786 14.4217 23 15.4391 23 16.5ZM29 19C29 20.9778 28.4135 22.9112 27.3147 24.5557C26.2159 26.2002 24.6541 27.4819 22.8268 28.2388C20.9996 28.9957 18.9889 29.1937 17.0491 28.8078C15.1093 28.422 13.3275 27.4696 11.9289 26.0711C10.5304 24.6725 9.578 22.8907 9.19215 20.9509C8.8063 19.0111 9.00433 17.0004 9.76121 15.1732C10.5181 13.3459 11.7998 11.7841 13.4443 10.6853C15.0888 9.58649 17.0222 9 19 9C20.3132 9 21.6136 9.25866 22.8268 9.7612C24.0401 10.2638 25.1425 11.0003 26.0711 11.9289C26.9997 12.8575 27.7362 13.9599 28.2388 15.1732C28.7413 16.3864 29 17.6868 29 19Z" stroke="white" stroke-width="2" stroke-linecap="round" stroke-linejoin="round"/>
</g>
</g>
<defs>
<clipPath id="clip0_1244_2290">
<rect width="40" height="40" fill="white"/>
</clipPath>
</defs>
</svg>
