<svg width="40" height="40" viewBox="0 0 40 40" fill="none" xmlns="http://www.w3.org/2000/svg">
<path d="M19.9286 4C21.5841 4 22.9473 5.25156 23.1236 6.86013L23.1231 6.85634L25.6429 6.85714C27.418 6.85714 28.8571 8.29623 28.8571 10.0714V17.5689C28.1797 17.2863 27.4617 17.0817 26.7143 16.9663V10.0714C26.7143 9.4797 26.2346 9 25.6429 9L22.6014 9.00029C22.0247 9.86157 21.0429 10.4286 19.9286 10.4286H14.9286C13.8142 10.4286 12.8323 9.86153 12.2557 9.00023L9.21429 9C8.62256 9 8.14286 9.4797 8.14286 10.0714V29.3571C8.14286 29.9489 8.62256 30.4286 9.21429 30.4286H17.046C17.4563 31.2157 17.976 31.9367 18.5851 32.5714H9.21429C7.43909 32.5714 6 31.1323 6 29.3571V10.0714C6 8.29623 7.43909 6.85714 9.21429 6.85714L11.734 6.85634C11.912 5.2496 13.2744 4 14.9286 4H19.9286ZM23.1354 6.99421L23.1429 7.21429C23.1429 7.14031 23.1404 7.06693 23.1354 6.99421ZM19.9286 6.14286H14.9286C14.3368 6.14286 13.8571 6.62256 13.8571 7.21429C13.8571 7.80601 14.3368 8.28571 14.9286 8.28571H19.9286C20.5203 8.28571 21 7.80601 21 7.21429C21 6.62256 20.5203 6.14286 19.9286 6.14286ZM33.1429 26.1429C33.1429 30.4823 29.6251 34 25.2857 34C20.9463 34 17.4286 30.4823 17.4286 26.1429C17.4286 21.8034 20.9463 18.2857 25.2857 18.2857C29.6251 18.2857 33.1429 21.8034 33.1429 26.1429ZM30.0766 22.7806C29.7976 22.5017 29.3453 22.5017 29.0663 22.7806L23.8571 27.9899L21.5051 25.6377C21.2261 25.3589 20.7739 25.3589 20.4949 25.6377C20.216 25.9167 20.216 26.369 20.4949 26.648L23.352 29.5051C23.631 29.784 24.0833 29.784 24.3623 29.5051L30.0766 23.7909C30.3554 23.5119 30.3554 23.0596 30.0766 22.7806Z" fill="white"/>
</svg>
