<svg width="40" height="40" viewBox="0 0 40 40" fill="none" xmlns="http://www.w3.org/2000/svg">
<path d="M20 7C20 6.44772 19.5523 6 19 6C18.4478 6 18.0001 6.44772 18.0001 7V7.33333H10.3333C7.94009 7.33333 6 9.27342 6 11.6666V24.3334C6 26.7265 7.94009 28.6667 10.3333 28.6667H13.5313L11.5645 31.0265C11.2108 31.4508 11.2681 32.0813 11.6924 32.4349C12.1167 32.7885 12.7473 32.7313 13.1008 32.307L16.1348 28.6667H20.8119C21.0491 27.8468 21.5627 27.1444 22.2449 26.6667H10.3333C9.04466 26.6667 8 25.622 8 24.3334V11.6666C8 10.378 9.04466 9.33333 10.3333 9.33333H28.3334C29.622 9.33333 30.6667 10.378 30.6667 11.6666V18.8364C31.8755 19.6798 32.6666 21.0808 32.6666 22.6666V11.6666C32.6666 9.27342 30.7265 7.33333 28.3334 7.33333H20V7ZM11.3333 13.6667C11.3333 13.1144 11.7811 12.6667 12.3333 12.6667H17.6667C18.2189 12.6667 18.6666 13.1144 18.6666 13.6667C18.6666 14.2189 18.2189 14.6667 17.6667 14.6667H12.3333C11.7811 14.6667 11.3333 14.2189 11.3333 13.6667ZM12.3333 16.6667C11.7811 16.6667 11.3333 17.1144 11.3333 17.6667C11.3333 18.2189 11.7811 18.6666 12.3333 18.6666H21C21.5522 18.6666 21.9999 18.2189 21.9999 17.6667C21.9999 17.1144 21.5522 16.6667 21 16.6667H12.3333ZM11.3333 21.6667C11.3333 21.1144 11.7811 20.6667 12.3333 20.6667H19.6667C20.219 20.6667 20.6667 21.1144 20.6667 21.6667C20.6667 22.2189 20.219 22.6666 19.6667 22.6666H12.3333C11.7811 22.6666 11.3333 22.2189 11.3333 21.6667ZM31.3334 22.6666C31.3334 24.5076 29.841 26 28 26C26.1591 26 24.6667 24.5076 24.6667 22.6666C24.6667 20.8257 26.1591 19.3333 28 19.3333C29.841 19.3333 31.3334 20.8257 31.3334 22.6666ZM34 29.8333C34 31.9087 32.2857 34 28 34C23.7143 34 21.9999 31.9165 21.9999 29.8333V29.696C21.9999 28.3906 23.0583 27.3333 24.3636 27.3333H31.6364C32.9417 27.3333 34 28.3907 34 29.696V29.8333Z" fill="#222222"/>
</svg>
