<svg id="icon-pdf" xmlns="http://www.w3.org/2000/svg" width="32" height="32" viewBox="0 0 32 32">
  <rect id="사각형_780" data-name="사각형 780" width="32" height="32" fill="#ff1313" opacity="0"/>
  <path id="picture_as_pdf_FILL0_wght400_GRAD0_opsz48" d="M9.1,13.119h.751V11.433h.975a.729.729,0,0,0,.751-.751V9.707a.729.729,0,0,0-.751-.751H9.1Zm.751-2.437V9.707h.975v.975Zm2.62,2.437h1.706a.739.739,0,0,0,.528-.213.712.712,0,0,0,.223-.538V9.707a.712.712,0,0,0-.223-.538.739.739,0,0,0-.528-.213H12.469Zm.751-.751V9.707h.955v2.661Zm2.7.751h.751V11.433h1.016v-.751H16.673V9.707h1.016V8.956H15.922ZM7.656,17.811a1.249,1.249,0,0,1-1.219-1.219V5.219A1.249,1.249,0,0,1,7.656,4H19.029a1.249,1.249,0,0,1,1.219,1.219V16.592a1.249,1.249,0,0,1-1.219,1.219Zm0-1.219H19.029V5.219H7.656ZM5.219,20.248A1.249,1.249,0,0,1,4,19.029V6.437H5.219V19.029H17.811v1.219ZM7.656,5.219v0Z" transform="translate(4 4)" fill="#fff"/>
</svg>
