<svg id="icon-talk-talk" xmlns="http://www.w3.org/2000/svg" width="32" height="32" viewBox="0 0 32 32">
  <rect id="사각형_228" data-name="사각형 228" width="32" height="32" fill="#ff1313" opacity="0"/>
  <path id="message-chat-square" d="M8.8,13.05,6.186,15.7c-.365.369-.547.554-.7.567a.425.425,0,0,1-.358-.147c-.1-.119-.1-.379-.1-.9V13.893a.917.917,0,0,0-.842-.87h0A2.55,2.55,0,0,1,2.027,10.87,6.406,6.406,0,0,1,2,10.028V6.08a6.335,6.335,0,0,1,.278-2.688A2.55,2.55,0,0,1,3.392,2.278,6.335,6.335,0,0,1,6.08,2h6.29a6.335,6.335,0,0,1,2.688.278,2.55,2.55,0,0,1,1.114,1.114A6.335,6.335,0,0,1,16.45,6.08V9.65m0,9.35L14.6,17.714a3.578,3.578,0,0,0-.532-.335,1.7,1.7,0,0,0-.393-.123,3.583,3.583,0,0,0-.628-.028H11.52a4.223,4.223,0,0,1-1.792-.185,1.7,1.7,0,0,1-.743-.743A4.223,4.223,0,0,1,8.8,14.507V12.37a4.223,4.223,0,0,1,.185-1.792,1.7,1.7,0,0,1,.743-.743A4.223,4.223,0,0,1,11.52,9.65h4.76a4.223,4.223,0,0,1,1.792.185,1.7,1.7,0,0,1,.743.743A4.223,4.223,0,0,1,19,12.37v2.307a4.241,4.241,0,0,1-.129,1.5,1.7,1.7,0,0,1-.92.92,4.238,4.238,0,0,1-1.5.129Z" transform="translate(5.461 6.461)" fill="none" stroke="#fff" stroke-linecap="round" stroke-linejoin="round" stroke-width="1.7"/>
</svg>
