<svg width="40" height="40" viewBox="0 0 40 40" fill="none" xmlns="http://www.w3.org/2000/svg">
<path d="M19 5C27.2843 5 34 11.7157 34 20C34 28.2843 27.2843 35 19 35C10.7157 35 4 28.2843 4 20C4 11.7157 10.7157 5 19 5ZM23.4077 26.7485H14.5923C15.5702 30.3693 17.2701 32.7503 19 32.7503C20.73 32.7503 22.4297 30.3693 23.4077 26.7485ZM12.2635 26.7494L8.18042 26.7493C9.61771 29.0484 11.7676 30.8566 14.3207 31.8644C13.5374 30.6349 12.891 29.0957 12.4156 27.3419L12.2635 26.7494ZM29.8197 26.7493L25.7366 26.7494C25.2509 28.7498 24.5496 30.4983 23.6777 31.8644C26.0728 30.9196 28.112 29.2713 29.5419 27.1745L29.8197 26.7493ZM11.6413 16.9995H6.60564L6.59852 17.0254C6.37042 17.9797 6.24966 18.9757 6.24966 20C6.24966 21.5841 6.53848 23.1005 7.06637 24.4998L11.8254 24.4992C11.612 23.0758 11.4989 21.5637 11.4989 20C11.4989 18.9742 11.5475 17.9705 11.6413 16.9995ZM24.0946 16.9996H13.9054C13.8034 17.9599 13.7485 18.9643 13.7485 20C13.7485 21.589 13.8777 23.1043 14.108 24.4995H23.892C24.1224 23.1043 24.2515 21.589 24.2515 20C24.2515 18.9643 24.1966 17.9599 24.0946 16.9996ZM31.395 16.9983L26.3588 16.9995C26.4526 17.9705 26.5011 18.9742 26.5011 20C26.5011 21.5637 26.3881 23.0758 26.1746 24.4992L30.9337 24.4998C31.4615 23.1005 31.7503 21.5841 31.7503 20C31.7503 18.9661 31.6274 17.9609 31.395 16.9983ZM14.3223 8.13557L14.288 8.14865C11.2175 9.37053 8.73382 11.7511 7.37702 14.7505L11.9485 14.751C12.4185 12.1222 13.2386 9.83369 14.3223 8.13557ZM19 7.24966L18.8265 7.2576C16.9287 7.4312 15.0953 10.4337 14.2438 14.7504H23.7563C22.9071 10.4458 21.0816 7.44805 19.1895 7.25912L19 7.24966ZM23.6793 8.13566L23.8395 8.39676C24.8432 10.0652 25.6053 12.2547 26.0515 14.751L30.623 14.7505C29.3263 11.8838 27.0001 9.58234 24.1161 8.31754L23.6793 8.13566Z" fill="white"/>
</svg>
