<svg width="40" height="40" viewBox="0 0 40 40" fill="none" xmlns="http://www.w3.org/2000/svg">
<path d="M19.8875 17.3998C21.3107 17.3998 22.4779 18.4959 22.591 19.8898L22.6 20.1122V33.2875C22.6 34.7107 21.504 35.8779 20.1099 35.991L19.8875 36H6.7125C5.28934 36 4.12216 34.904 4.00899 33.5099L4 33.2875V20.1122C4 18.6891 5.09602 17.522 6.49003 17.4087L6.7125 17.3998H19.8875ZM12.525 19.7234L6.7125 19.7247C6.52906 19.7247 6.37539 19.8523 6.33523 20.0234L6.325 20.1122V33.2875C6.325 33.4709 6.45246 33.6246 6.62365 33.6648L6.7125 33.675L12.525 33.6735V19.7234ZM19.8875 19.7247L14.075 19.7234V33.6735L19.8875 33.675C20.0709 33.675 20.2246 33.5476 20.2648 33.3763L20.275 33.2875V20.1122C20.275 19.9288 20.1476 19.7752 19.9763 19.7349L19.8875 19.7247ZM17.3687 29.8C18.0108 29.8 18.5312 30.3205 18.5312 30.9625C18.5312 31.551 18.0938 32.0374 17.5265 32.1145L17.3687 32.125H16.5938C15.9517 32.125 15.4312 31.6045 15.4312 30.9625C15.4312 30.374 15.8686 29.8876 16.436 29.8105L16.5938 29.8H17.3687ZM10.0062 29.8C10.6483 29.8 11.1687 30.3205 11.1687 30.9625C11.1687 31.551 10.7314 32.0374 10.164 32.1145L10.0062 32.125H9.23125C8.58922 32.125 8.06875 31.6045 8.06875 30.9625C8.06875 30.374 8.50608 29.8876 9.07351 29.8105L9.23125 29.8H10.0062ZM31.5125 5C33.3584 5 34.8692 6.434 34.9919 8.24872L35 8.4875V22.4375C35 24.2834 33.5659 25.7942 31.7512 25.9169L31.5125 25.925H27.2562V29.025H29.1875C29.8295 29.025 30.35 29.5455 30.35 30.1875C30.35 30.776 29.9126 31.2624 29.3453 31.3395L29.1875 31.35H24.15V29.025H24.9312V25.925H24.15V23.6H31.5125C32.101 23.6 32.5874 23.1626 32.6645 22.5953L32.675 22.4375V8.4875C32.675 7.84547 32.1545 7.325 31.5125 7.325H10.5875C9.99896 7.325 9.51259 7.76233 9.43562 8.32976L9.425 8.4875V15.85H7.1V8.4875C7.1 6.64167 8.534 5.13076 10.3487 5.00804L10.5875 5H31.5125Z" fill="white"/>
</svg>
