<svg width="40" height="40" viewBox="0 0 40 40" fill="none" xmlns="http://www.w3.org/2000/svg">
<path d="M17.7778 29.1111H22.2222C22.2222 30.3333 21.2222 31.3333 20 31.3333C18.7778 31.3333 17.7778 30.3333 17.7778 29.1111ZM30 26.8889V28H10V26.8889L12.2222 24.6667V18C12.2222 14.5556 14.4444 11.5556 17.7778 10.5556V10.2222C17.7778 9 18.7778 8 20 8C21.2222 8 22.2222 9 22.2222 10.2222V10.5556C25.5556 11.5556 27.7778 14.5556 27.7778 18V24.6667L30 26.8889ZM25.5556 18C25.5556 14.8889 23.1111 12.4444 20 12.4444C16.8889 12.4444 14.4444 14.8889 14.4444 18V25.7778H25.5556V18Z" fill="white"/>
</svg>
