<svg width="40" height="40" viewBox="0 0 40 40" fill="none" xmlns="http://www.w3.org/2000/svg">
<path d="M27.5519 5L27.8338 5.00786C30.3535 5.14882 32.3718 7.1671 32.5128 9.68671L32.5206 9.96866V18.7933C31.8121 18.3396 31.0422 17.9732 30.2261 17.7097L30.2255 12.6441H7.29506L7.29323 27.5501C7.29323 28.9538 8.37427 30.105 9.74923 30.2166L9.96866 30.2255H17.7107C17.9742 31.0411 18.3403 31.8106 18.7936 32.5187H9.96866C7.31917 32.5187 5.15403 30.4449 5.00786 27.832L5 27.5501V9.96866C5 7.31917 7.07377 5.15403 9.68671 5.00786L9.96866 5H27.5519ZM27.5516 7.29323H9.97016C8.49255 7.29323 7.29473 8.49106 7.29473 9.96866V10.3509H30.227V9.96866C30.227 8.49106 29.0292 7.29323 27.5516 7.29323ZM16.0839 14.9373C16.6644 14.9373 17.1442 15.3687 17.2202 15.9283L17.2305 16.0839V26.7857C17.2305 27.3662 16.7991 27.8459 16.2396 27.9219L16.0839 27.9323H10.7331C10.1526 27.9323 9.67285 27.5008 9.59693 26.9413L9.58646 26.7857V16.0839C9.58646 15.5034 10.0178 15.0237 10.5775 14.9478L10.7331 14.9373H16.0839ZM14.9373 17.2305H11.8797V25.639H14.9373V17.2305ZM27.9323 16.0839C27.9323 15.4507 27.4189 14.9373 26.7857 14.9373H19.9127L19.7571 14.9478C19.1975 15.0237 18.7661 15.5034 18.7661 16.0839C18.7661 16.7172 19.2795 17.2305 19.9127 17.2305H26.7857L26.9413 17.2202C27.5008 17.1442 27.9323 16.6644 27.9323 16.0839ZM22.2438 21.7794C22.725 23.4461 21.7247 25.179 20.0405 25.5956L19.1474 25.8165C19.0787 26.2564 19.043 26.7077 19.043 27.1676C19.043 27.6487 19.0821 28.1203 19.157 28.5793L19.9818 28.778C21.6826 29.1876 22.6936 30.9381 22.1986 32.616L21.9138 33.5811C22.5851 34.1706 23.3503 34.6494 24.1827 34.9901L24.9369 34.1969C26.1425 32.9292 28.1639 32.9295 29.3691 34.1977L30.1315 35C30.9625 34.6632 31.727 34.189 32.3984 33.6043L32.0957 32.5557C31.6144 30.8889 32.6149 29.1561 34.299 28.7395L35.1914 28.5186C35.2601 28.0787 35.2958 27.6274 35.2958 27.1676C35.2958 26.6864 35.2567 26.2146 35.1816 25.7555L34.3577 25.5571C32.6569 25.1475 31.6459 23.397 32.141 21.719L32.4256 20.7546C31.7542 20.1648 30.9891 19.686 30.1566 19.3454L29.4027 20.1381C28.1971 21.4059 26.1755 21.4056 24.9705 20.1373L24.2079 19.335C23.3769 19.6716 22.6126 20.1457 21.941 20.7303L22.2438 21.7794ZM27.1694 29.4608C25.9454 29.4608 24.9531 28.434 24.9531 27.1676C24.9531 25.9011 25.9454 24.8743 27.1694 24.8743C28.3934 24.8743 29.3857 25.9011 29.3857 27.1676C29.3857 28.434 28.3934 29.4608 27.1694 29.4608Z" fill="white"/>
</svg>
