<svg xmlns="http://www.w3.org/2000/svg" xmlns:xlink="http://www.w3.org/1999/xlink" width="33" height="38.095" viewBox="0 0 33 38.095">
  <defs>
    <linearGradient id="linear-gradient" x1="0.139" y1="0.139" x2="0.887" y2="0.888" gradientUnits="objectBoundingBox">
      <stop offset="0" stop-color="#33d6ff"/>
      <stop offset="1" stop-color="#3b9df8"/>
    </linearGradient>
  </defs>
  <g id="그룹_212" data-name="그룹 212" transform="translate(0 0)">
    <path id="패스_181" data-name="패스 181" d="M1624.8,2021.184a11.233,11.233,0,1,1-11.233-11.233A11.233,11.233,0,0,1,1624.8,2021.184Z" transform="translate(-1591.8 -2009.951)" fill="#d6eaff"/>
    <g id="그룹_211" data-name="그룹 211" transform="translate(0 3.537)">
      <g id="그룹_202" data-name="그룹 202" transform="translate(0 2.855)">
        <rect id="사각형_148" data-name="사각형 148" width="24.286" height="30.195" rx="2" transform="translate(0.754 0.754)" fill="url(#linear-gradient)"/>
        <path id="패스_182" data-name="패스 182" d="M1556.806,2084.052h-22.889a1.454,1.454,0,0,1-1.452-1.452v-28.8a1.454,1.454,0,0,1,1.452-1.452h22.889a1.454,1.454,0,0,1,1.452,1.452v28.8A1.454,1.454,0,0,1,1556.806,2084.052Zm-22.833-1.508h22.778v-28.687h-22.778Z" transform="translate(-1532.465 -2052.349)" fill="#333"/>
      </g>
      <g id="그룹_209" data-name="그룹 209" transform="translate(5.245 9.485)">
        <g id="그룹_203" data-name="그룹 203" transform="translate(0)">
          <path id="패스_183" data-name="패스 183" d="M1569.3,2101.64h-.029a.753.753,0,0,1-.635-.4c-.522-.972-1.116-2.06-1.235-2.252a.754.754,0,0,1,1.137-.984,7.272,7.272,0,0,1,.818,1.4l1.753-2.732a.754.754,0,0,1,1.269.814l-2.443,3.809A.754.754,0,0,1,1569.3,2101.64Z" transform="translate(-1567.252 -2096.323)" fill="#fff"/>
        </g>
        <g id="그룹_204" data-name="그룹 204" transform="translate(6.268 1.905)">
          <path id="패스_184" data-name="패스 184" d="M1617.1,2110.464h-7.528a.754.754,0,0,1,0-1.508h7.528a.754.754,0,0,1,0,1.508Z" transform="translate(-1608.821 -2108.956)" fill="#fff"/>
        </g>
        <g id="그룹_205" data-name="그룹 205" transform="translate(0 7.401)">
          <path id="패스_185" data-name="패스 185" d="M1569.3,2150.727h-.029a.754.754,0,0,1-.635-.4c-.522-.972-1.116-2.06-1.235-2.252a.754.754,0,0,1,1.136-.985,7.262,7.262,0,0,1,.818,1.4l1.753-2.732a.754.754,0,1,1,1.269.814l-2.443,3.809A.754.754,0,0,1,1569.3,2150.727Z" transform="translate(-1567.252 -2145.41)" fill="#fff"/>
        </g>
        <g id="그룹_206" data-name="그룹 206" transform="translate(6.268 9.306)">
          <path id="패스_186" data-name="패스 186" d="M1617.1,2159.551h-7.528a.754.754,0,0,1,0-1.508h7.528a.754.754,0,0,1,0,1.508Z" transform="translate(-1608.821 -2158.043)" fill="#fff"/>
        </g>
        <g id="그룹_207" data-name="그룹 207" transform="translate(0 14.802)">
          <path id="패스_187" data-name="패스 187" d="M1569.3,2199.814h-.029a.754.754,0,0,1-.635-.4c-.522-.972-1.116-2.06-1.235-2.252a.754.754,0,0,1,1.136-.985,7.244,7.244,0,0,1,.818,1.4l1.753-2.732a.754.754,0,1,1,1.269.814l-2.443,3.809A.755.755,0,0,1,1569.3,2199.814Z" transform="translate(-1567.252 -2194.497)" fill="#fff"/>
        </g>
        <g id="그룹_208" data-name="그룹 208" transform="translate(6.268 16.707)">
          <path id="패스_188" data-name="패스 188" d="M1617.1,2208.638h-7.528a.754.754,0,0,1,0-1.508h7.528a.754.754,0,0,1,0,1.508Z" transform="translate(-1608.821 -2207.13)" fill="#fff"/>
        </g>
      </g>
      <g id="그룹_210" data-name="그룹 210" transform="translate(9.861 0)">
        <path id="패스_189" data-name="패스 189" d="M1607.431,2044.241a.764.764,0,0,1-.7.812h-3.167a.764.764,0,0,1-.7-.812v-5.017a.764.764,0,0,1,.7-.812h3.167a.764.764,0,0,1,.7.813Z" transform="translate(-1602.113 -2037.657)" fill="#fff"/>
        <path id="패스_190" data-name="패스 190" d="M1602.486,2041.561h-3.167a1.514,1.514,0,0,1-1.452-1.566v-5.017a1.514,1.514,0,0,1,1.452-1.566h3.167a1.514,1.514,0,0,1,1.452,1.566v5.017A1.514,1.514,0,0,1,1602.486,2041.561Zm-3.1-1.508h3.036a.166.166,0,0,0,.01-.058v-5.017a.168.168,0,0,0-.01-.059h-3.036a.165.165,0,0,0-.01.059v5.017A.16.16,0,0,0,1599.385,2040.053Z" transform="translate(-1597.867 -2033.411)" fill="#333"/>
      </g>
    </g>
  </g>
</svg>
