<svg id="그룹_221" data-name="그룹 221" xmlns="http://www.w3.org/2000/svg" xmlns:xlink="http://www.w3.org/1999/xlink" width="38" height="36.393" viewBox="0 0 38 36.393">
  <defs>
    <linearGradient id="linear-gradient" x1="-0.015" y1="-1.894" x2="1.116" y2="3.361" gradientUnits="objectBoundingBox">
      <stop offset="0" stop-color="#33d6ff"/>
      <stop offset="1" stop-color="#3b9df8"/>
    </linearGradient>
  </defs>
  <circle id="타원_11" data-name="타원 11" cx="11.322" cy="11.322" r="11.322" transform="translate(15.356)" fill="#d6eaff"/>
  <g id="그룹_220" data-name="그룹 220" transform="translate(0 7.087)">
    <g id="그룹_214" data-name="그룹 214" transform="translate(0 0)">
      <rect id="사각형_151" data-name="사각형 151" width="32" height="21" rx="3" transform="translate(0 0.11)" fill="#36bbfb"/>
      <g id="그룹_213" data-name="그룹 213" transform="translate(0.01)">
        <path id="패스_191" data-name="패스 191" d="M2078.6,2609.224h-28.76a2.07,2.07,0,0,1-2.068-2.067V2589.38a2.07,2.07,0,0,1,2.068-2.068h28.76a2.07,2.07,0,0,1,2.067,2.068v17.777A2.069,2.069,0,0,1,2078.6,2609.224Zm-28.76-20.392a.548.548,0,0,0-.548.548v17.777a.548.548,0,0,0,.548.548h28.76a.548.548,0,0,0,.548-.548V2589.38a.548.548,0,0,0-.548-.548Z" transform="translate(-2047.771 -2587.312)" fill="#333"/>
      </g>
    </g>
    <g id="그룹_216" data-name="그룹 216" transform="translate(3.624 3.475)">
      <rect id="사각형_150" data-name="사각형 150" width="24.149" height="13.442" rx="2" transform="translate(0.76 0.76)" fill="#fff"/>
      <g id="그룹_215" data-name="그룹 215">
        <path id="패스_192" data-name="패스 192" d="M2095.8,2625.14h-22.841a1.415,1.415,0,0,1-1.414-1.414v-12.134a1.415,1.415,0,0,1,1.414-1.414H2095.8a1.415,1.415,0,0,1,1.414,1.414v12.134A1.415,1.415,0,0,1,2095.8,2625.14Zm-22.735-1.52H2095.7V2611.7h-22.629Z" transform="translate(-2071.549 -2610.179)" fill="#333"/>
      </g>
    </g>
    <g id="그룹_218" data-name="그룹 218" transform="translate(2.76 25.357)">
      <path id="패스_193" data-name="패스 193" d="M2096.742,2760.384a1.322,1.322,0,0,1-1.4,1.214h-23.073a1.227,1.227,0,1,1,0-2.429h23.073A1.322,1.322,0,0,1,2096.742,2760.384Z" transform="translate(-2070.106 -2758.409)" fill="url(#linear-gradient)"/>
      <g id="그룹_217" data-name="그룹 217">
        <path id="패스_194" data-name="패스 194" d="M2091.1,2758.118h-23.073a1.982,1.982,0,1,1,0-3.949H2091.1a1.982,1.982,0,1,1,0,3.949Zm-23.073-2.429c-.378,0-.641.24-.641.455s.263.455.641.455H2091.1c.378,0,.641-.24.641-.455s-.263-.455-.641-.455Z" transform="translate(-2065.866 -2754.169)" fill="#333"/>
      </g>
    </g>
    <g id="그룹_219" data-name="그룹 219" transform="translate(15.698 20.392)">
      <path id="패스_195" data-name="패스 195" d="M2151.761,2727.98a.76.76,0,0,1-.76-.76v-4.965a.76.76,0,1,1,1.52,0v4.965A.76.76,0,0,1,2151.761,2727.98Z" transform="translate(-2151.001 -2721.495)" fill="#333"/>
    </g>
  </g>
</svg>
