<svg xmlns="http://www.w3.org/2000/svg" width="129.589" height="62.893" viewBox="0 0 129.589 62.893">
  <g id="그룹_7" data-name="그룹 7" transform="translate(-45.771 -33.805)">
    <path id="패스_1" data-name="패스 1" d="M118.129,49.32l-6.653,13.128L104.868,49.32h-7.33l8.315,15.48H96.927V49.32H93.166V33.805h-16.4V49.3h-15.5V64.8h-15.5V81.2h15.5V96.7h16.4V81.2h30.99v0h6.175V68.8l10.58-19.476ZM61.266,80.3H46.675V65.7H61.266ZM77.67,34.71H92.26V49.3H77.67Zm12.516,15.5V61.825H77.67V50.206Zm-28.016,0h8.615V64.8H62.171Zm0,15.5h8.615V80.3H62.171ZM76.764,95.792H62.171V81.2H76.764Zm.906-28.336H90.187V80.3H77.67ZM96.927,80.3V65.7h9.412l1.416,2.637V80.3Z" fill="#009de6"/>
    <path id="패스_2" data-name="패스 2" d="M164.18,59.791a6.9,6.9,0,0,0-5.914,2.866q-2.092,2.868-2.1,7.987,0,10.664,8.01,10.662a25.336,25.336,0,0,0,8.14-1.68V85.3a22.557,22.557,0,0,1-8.769,1.639q-6.965,0-10.649-4.22T149.216,70.6a19.793,19.793,0,0,1,1.809-8.711,13.089,13.089,0,0,1,5.2-5.735,15.408,15.408,0,0,1,7.955-2,21.458,21.458,0,0,1,9.337,2.248l-2.182,5.5a35.879,35.879,0,0,0-3.6-1.482A10.759,10.759,0,0,0,164.18,59.791Z" transform="translate(-26.94 -5.301)" fill="#009de6"/>
    <path id="패스_3" data-name="패스 3" d="M211.779,54.783V75.411A11.9,11.9,0,0,1,210.2,81.6a10.3,10.3,0,0,1-4.568,4.077,16.366,16.366,0,0,1-7.064,1.418q-6.152,0-9.552-3.151a11.176,11.176,0,0,1-3.4-8.625V54.783h6.739V74.3q0,3.69,1.484,5.409t4.9,1.724q3.313,0,4.806-1.736t1.493-5.441V54.783Z" transform="translate(-36.419 -5.463)" fill="#009de6"/>
    <g id="그룹_6" data-name="그룹 6" transform="translate(79.084 86.105)">
      <path id="패스_4" data-name="패스 4" d="M94.685,109.333h-1v-2.04H91.815v2.04h-1v-4.722h1v1.848h1.873v-1.848h1Z" transform="translate(-90.815 -104.545)" fill="#009de6"/>
      <path id="패스_5" data-name="패스 5" d="M100.254,109.327l-.342-1.12H98.188l-.342,1.12H96.767l1.668-4.74h1.223l1.675,4.74Zm-.582-1.961q-.475-1.531-.535-1.729c-.041-.135-.068-.24-.085-.319q-.108.416-.612,2.048Z" transform="translate(-92.365 -104.539)" fill="#009de6"/>
      <path id="패스_6" data-name="패스 6" d="M107.842,109.333h-1.274l-2.053-3.572h-.028c.04.631.061,1.081.061,1.35v2.222h-.895v-4.722h1.263l2.05,3.537h.021c-.033-.615-.048-1.046-.048-1.3v-2.234h.9Z" transform="translate(-94.158 -104.545)" fill="#009de6"/>
      <path id="패스_7" data-name="패스 7" d="M112.1,106.555l.985-1.944h1.079L112.6,107.5v1.837H111.6v-1.8l-1.566-2.918h1.085Z" transform="translate(-95.82 -104.545)" fill="#009de6"/>
      <path id="패스_8" data-name="패스 8" d="M119.013,109.327l-.342-1.12h-1.722l-.344,1.12h-1.078l1.666-4.74h1.225l1.673,4.74Zm-.582-1.961q-.476-1.531-.535-1.729c-.039-.135-.067-.24-.086-.319-.07.277-.275.959-.61,2.048Z" transform="translate(-97.251 -104.539)" fill="#009de6"/>
      <path id="패스_9" data-name="패스 9" d="M126.6,109.333h-1.272l-2.054-3.572h-.028q.06.946.061,1.35v2.222h-.895v-4.722h1.263l2.051,3.537h.022c-.033-.615-.048-1.046-.048-1.3v-2.234h.9Z" transform="translate(-99.044 -104.545)" fill="#009de6"/>
      <path id="패스_10" data-name="패스 10" d="M131.313,106.659h1.873v2.45a5.283,5.283,0,0,1-.857.206,5.477,5.477,0,0,1-.822.061,2.088,2.088,0,0,1-1.632-.628,2.621,2.621,0,0,1-.563-1.8,2.38,2.38,0,0,1,.654-1.783,2.486,2.486,0,0,1,1.813-.639,3.515,3.515,0,0,1,1.4.29l-.333.8a2.361,2.361,0,0,0-1.074-.257,1.32,1.32,0,0,0-1.039.436,1.687,1.687,0,0,0-.391,1.171,1.89,1.89,0,0,0,.314,1.175,1.086,1.086,0,0,0,.916.4,3.13,3.13,0,0,0,.635-.065v-.987h-.894Z" transform="translate(-100.841 -104.522)" fill="#009de6"/>
      <path id="패스_11" data-name="패스 11" d="M140.151,105.356a1.024,1.024,0,0,0-.877.424,1.982,1.982,0,0,0-.309,1.183q0,1.579,1.186,1.58a3.706,3.706,0,0,0,1.205-.248v.841a3.367,3.367,0,0,1-1.3.242,1.98,1.98,0,0,1-1.577-.626,2.642,2.642,0,0,1-.546-1.794,2.922,2.922,0,0,1,.268-1.289,1.934,1.934,0,0,1,.77-.85,2.29,2.29,0,0,1,1.178-.3,3.155,3.155,0,0,1,1.384.334l-.324.813a4.612,4.612,0,0,0-.533-.219A1.547,1.547,0,0,0,140.151,105.356Z" transform="translate(-103.087 -104.522)" fill="#009de6"/>
      <path id="패스_12" data-name="패스 12" d="M145.091,106.555l.985-1.944h1.079l-1.567,2.885v1.837h-.994v-1.8l-1.567-2.918h1.085Z" transform="translate(-104.413 -104.545)" fill="#009de6"/>
      <path id="패스_13" data-name="패스 13" d="M149.321,104.611h1.471a2.834,2.834,0,0,1,1.458.285,1,1,0,0,1,.453.91,1.139,1.139,0,0,1-.2.694.792.792,0,0,1-.528.327v.033a1.026,1.026,0,0,1,.648.374,1.225,1.225,0,0,1,.2.729,1.2,1.2,0,0,1-.465,1.009,2.034,2.034,0,0,1-1.268.362h-1.768Zm1,1.871h.581a1.07,1.07,0,0,0,.589-.126.471.471,0,0,0,.182-.418.417.417,0,0,0-.2-.389,1.273,1.273,0,0,0-.629-.118h-.525Zm0,.793V108.5h.651a.961.961,0,0,0,.61-.158.582.582,0,0,0,.2-.483q0-.589-.84-.589Z" transform="translate(-106.052 -104.545)" fill="#009de6"/>
      <path id="패스_14" data-name="패스 14" d="M157.964,109.333h-2.721v-4.722h2.721v.82h-1.719v1.038h1.6v.82h-1.6V108.5h1.719Z" transform="translate(-107.594 -104.545)" fill="#009de6"/>
      <path id="패스_15" data-name="패스 15" d="M161.165,107.524v1.809h-1v-4.722h1.375a2.352,2.352,0,0,1,1.424.351,1.254,1.254,0,0,1,.461,1.066,1.271,1.271,0,0,1-.229.742,1.516,1.516,0,0,1-.65.509q1.066,1.591,1.388,2.055h-1.11l-1.126-1.809Zm0-.816h.322a1.253,1.253,0,0,0,.7-.158.572.572,0,0,0,.226-.5.519.519,0,0,0-.231-.479,1.417,1.417,0,0,0-.714-.141h-.3Z" transform="translate(-108.876 -104.545)" fill="#009de6"/>
      <path id="패스_16" data-name="패스 16" d="M172.048,104.611v3.056a1.749,1.749,0,0,1-.234.918,1.535,1.535,0,0,1-.676.6,2.419,2.419,0,0,1-1.047.211,2.01,2.01,0,0,1-1.416-.467,1.659,1.659,0,0,1-.5-1.279v-3.043h1V107.5a1.214,1.214,0,0,0,.218.8.917.917,0,0,0,.728.256.9.9,0,0,0,.714-.259,1.221,1.221,0,0,0,.221-.8v-2.885Z" transform="translate(-110.961 -104.545)" fill="#009de6"/>
      <path id="패스_17" data-name="패스 17" d="M179.076,109.333H177.8l-2.052-3.572h-.03q.061.946.061,1.35v2.222h-.9v-4.722h1.264l2.049,3.537h.023c-.033-.615-.049-1.046-.049-1.3v-2.234h.9Z" transform="translate(-112.71 -104.545)" fill="#009de6"/>
      <path id="패스_18" data-name="패스 18" d="M182.07,109.333v-4.722h1v4.722Z" transform="translate(-114.581 -104.545)" fill="#009de6"/>
      <path id="패스_19" data-name="패스 19" d="M187.428,104.611h1.011l-1.607,4.722h-1.09l-1.6-4.722h1.011l.887,2.811c.051.165.1.359.153.578s.086.375.1.461a8.187,8.187,0,0,1,.243-1.04Z" transform="translate(-115.12 -104.545)" fill="#009de6"/>
      <path id="패스_20" data-name="패스 20" d="M193.388,109.333h-2.72v-4.722h2.72v.82h-1.719v1.038h1.6v.82h-1.6V108.5h1.719Z" transform="translate(-116.82 -104.545)" fill="#009de6"/>
      <path id="패스_21" data-name="패스 21" d="M196.591,107.524v1.809h-1v-4.722h1.376a2.351,2.351,0,0,1,1.424.351,1.4,1.4,0,0,1,.233,1.808,1.507,1.507,0,0,1-.649.509q1.066,1.591,1.388,2.055h-1.112l-1.126-1.809Zm0-.816h.32a1.243,1.243,0,0,0,.7-.158.565.565,0,0,0,.226-.5.522.522,0,0,0-.229-.479,1.427,1.427,0,0,0-.716-.141h-.3Z" transform="translate(-118.101 -104.545)" fill="#009de6"/>
      <path id="패스_22" data-name="패스 22" d="M204.092,108a1.223,1.223,0,0,1-.46,1.01,2.01,2.01,0,0,1-1.282.368,2.981,2.981,0,0,1-1.337-.288v-.929a5.587,5.587,0,0,0,.809.3,2.457,2.457,0,0,0,.606.087.863.863,0,0,0,.506-.127.427.427,0,0,0,.177-.373.415.415,0,0,0-.078-.247.886.886,0,0,0-.227-.208,6.226,6.226,0,0,0-.613-.32,2.826,2.826,0,0,1-.65-.39,1.478,1.478,0,0,1-.346-.436,1.36,1.36,0,0,1,.3-1.566,1.769,1.769,0,0,1,1.175-.358,2.821,2.821,0,0,1,.7.087,4.719,4.719,0,0,1,.7.246l-.323.778a4.61,4.61,0,0,0-.626-.217,2.064,2.064,0,0,0-.487-.061.649.649,0,0,0-.437.132.437.437,0,0,0-.151.344.446.446,0,0,0,.061.233.719.719,0,0,0,.2.189,5.871,5.871,0,0,0,.636.33,2.574,2.574,0,0,1,.909.635A1.237,1.237,0,0,1,204.092,108Z" transform="translate(-119.514 -104.522)" fill="#009de6"/>
      <path id="패스_23" data-name="패스 23" d="M206.242,109.333v-4.722h1v4.722Z" transform="translate(-120.876 -104.545)" fill="#009de6"/>
      <path id="패스_24" data-name="패스 24" d="M210.773,109.333h-1v-3.89h-1.282v-.832h3.566v.832h-1.284Z" transform="translate(-121.461 -104.545)" fill="#009de6"/>
      <path id="패스_25" data-name="패스 25" d="M215.467,106.555l.985-1.944h1.079l-1.568,2.885v1.837h-.993v-1.8l-1.567-2.918h1.086Z" transform="translate(-122.741 -104.545)" fill="#009de6"/>
    </g>
  </g>
</svg>
