<svg xmlns="http://www.w3.org/2000/svg" width="19.452" height="15.333" viewBox="0 0 19.452 15.333">
  <path id="Frame_3" data-name="Frame 3" d="M7.667,11.833l6.8,4.763a3.8,3.8,0,0,0,1.126.653,1.666,1.666,0,0,0,.806,0,3.8,3.8,0,0,0,1.126-.653l6.8-4.763M11.667,22.667h8.667a6.212,6.212,0,0,0,2.635-.272A2.5,2.5,0,0,0,24.061,21.3a6.211,6.211,0,0,0,.273-2.635V13.333a6.211,6.211,0,0,0-.273-2.635,2.5,2.5,0,0,0-1.093-1.093,6.21,6.21,0,0,0-2.635-.272H11.667a6.211,6.211,0,0,0-2.635.272A2.5,2.5,0,0,0,7.939,10.7a6.211,6.211,0,0,0-.272,2.635v5.333A6.211,6.211,0,0,0,7.939,21.3a2.5,2.5,0,0,0,1.093,1.093A6.213,6.213,0,0,0,11.667,22.667Z" transform="translate(-6.274 -8.333)" fill="none" stroke="#fff" stroke-linecap="round" stroke-linejoin="round" stroke-width="2"/>
</svg>
