<svg width="40" height="40" viewBox="0 0 40 40" fill="none" xmlns="http://www.w3.org/2000/svg">
<path d="M13.5937 6.73859C11.1223 8.34118 9.45168 11.1701 9.45168 14.4032C9.45168 17.6362 11.1223 20.4652 13.6351 22.0678C9.39645 22.0678 6 18.6396 6 14.4032C6 12.3704 6.80005 10.4209 8.22414 8.98349C9.64823 7.5461 11.5797 6.73859 13.5937 6.73859ZM29.568 8.82893L31.5424 10.8217L10.0454 32.5195L8.07101 30.5267L29.568 8.82893ZM21.0355 12.2153L18.9921 10.9193L17.0039 12.3128L17.5838 9.94378L15.6647 8.4666L18.0809 8.29938L18.8817 6L19.8067 8.2715L22.1953 8.31331L20.3314 9.88803L21.0355 12.2153ZM16.4793 17.246L14.8777 16.2287L13.3314 17.3157L13.8008 15.4762L12.2959 14.3196L14.1736 14.1941L14.7949 12.3964L15.499 14.1663L17.3767 14.2081L15.927 15.4205L16.4793 17.246ZM29.4714 22.7645C29.4714 24.7973 28.6713 26.7468 27.2473 28.1842C25.8231 29.6216 23.8917 30.4291 21.8777 30.4291C20.1933 30.4291 18.6331 29.8717 17.3767 28.938L27.9941 18.2215C28.9191 19.4897 29.4714 21.0644 29.4714 22.7645ZM23.3964 31.9342L27.2209 30.3316L26.8895 35L23.3964 31.9342ZM29.3748 28.1716L30.9625 24.3114L34 27.851L29.3748 28.1716ZM30.9625 21.2595L29.3886 17.3854L34 17.7198L30.9625 21.2595ZM16.5345 30.3316L20.359 31.9342L16.8659 34.9861L16.5345 30.3316Z" fill="white"/>
</svg>
