<svg xmlns="http://www.w3.org/2000/svg" viewBox="0 0 395.55 528.23"><defs><style>.cls-1{fill:#051928;}</style></defs><g id="레이어_2" data-name="레이어 2"><g id="Layer_1" data-name="Layer 1"><path class="cls-1" d="M393.76,437.7,340.87,291.06a30,30,0,0,0-28.22-19.82H218.86V221.71h62.67a22.5,22.5,0,0,0,0-45H218.86v-34a40,40,0,0,0-80,0V291.2A40,40,0,0,0,175.35,331a29,29,0,0,0,3.51.21H291.58l45.74,126.82a30,30,0,0,0,56.44-20.36Z"/><path class="cls-1" d="M309.13,428.78a22.51,22.51,0,0,0-31.57,4A129.9,129.9,0,0,1,167.46,483C96,479,41.15,417.51,45.21,346a129.1,129.1,0,0,1,68.12-107A22.5,22.5,0,1,0,92,199.45a174.7,174.7,0,0,0-91.68,144C-5.18,439.73,68.66,522.47,164.9,528a174.93,174.93,0,0,0,148.24-67.61A22.5,22.5,0,0,0,309.13,428.78Z"/><circle class="cls-1" cx="178.86" cy="44.6" r="44.6"/></g></g></svg>