<svg xmlns="http://www.w3.org/2000/svg" width="24.661" height="22.395" viewBox="0 0 24.661 22.395">
  <path id="users-01" d="M24.661,23.4V21.129a4.534,4.534,0,0,0-3.4-4.389M17.3,3.329a4.534,4.534,0,0,1,0,8.406M19,23.4c0-2.112,0-3.168-.345-4A4.533,4.533,0,0,0,16.2,16.942c-.833-.345-1.889-.345-4-.345H8.8c-2.112,0-3.168,0-4,.345a4.532,4.532,0,0,0-2.453,2.453C2,20.228,2,21.283,2,23.4M15.03,7.532A4.532,4.532,0,1,1,10.5,3,4.532,4.532,0,0,1,15.03,7.532Z" transform="translate(-1 -2)" fill="none" stroke="#333" stroke-linecap="round" stroke-linejoin="round" stroke-width="2"/>
</svg>
